<svg xmlns="http://www.w3.org/2000/svg" xmlns:xlink="http://www.w3.org/1999/xlink" width="1920" zoomAndPan="magnify" viewBox="0 0 1440 809.999993" height="1080" preserveAspectRatio="xMidYMid meet" version="1.0"><path fill="#ffc700" d="M 476.523438 333.097656 C 473.949219 332.558594 473.277344 324.542969 475.007812 323.191406 L 636.074219 238.796875 L 661.136719 237.636719 C 721.226562 234.84375 781.222656 232.410156 841.585938 229.796875 L 927.054688 226.105469 C 928.417969 226.234375 928.503906 227.441406 928.859375 228.496094 C 929.421875 230.164062 930.984375 235.792969 929.804688 236.984375 L 899.519531 256.257812 L 899.519531 343.582031 L 966.9375 344.613281 C 968.871094 345.078125 972.671875 344.699219 973.363281 347.101562 C 973.789062 348.59375 973.621094 360.367188 972.875 360.816406 L 970.851562 360.890625 C 972.269531 364.621094 970.917969 368.910156 970.824219 372.660156 C 969.601562 422.199219 971.402344 472.066406 971.359375 521.535156 C 971.503906 522.117188 972.726562 521.902344 972.957031 523.191406 C 973.4375 525.847656 973.152344 529.796875 973.535156 532.585938 L 980.203125 535.359375 L 981.234375 550.644531 C 980.148438 551.332031 979.003906 551.765625 977.785156 552.175781 C 975.015625 553.109375 962.453125 556.203125 960.152344 555.957031 C 958.332031 555.761719 945.511719 552.683594 944.128906 552.023438 C 941.070312 550.570312 941.804688 547.640625 941.484375 545.214844 C 941.378906 544.421875 941.777344 544.375 940.699219 544.441406 L 835.429688 567.160156 L 833.964844 568.042969 L 835.84375 568.523438 C 837.585938 569.898438 835.902344 582.390625 836.886719 585.359375 C 836.539062 585.777344 836.085938 585.941406 835.585938 586.09375 C 832.554688 587.015625 820.890625 589.496094 817.96875 589.585938 C 815.6875 589.65625 796.476562 585.328125 795.410156 584.316406 C 793.800781 582.785156 795.144531 580.082031 795.175781 578.300781 C 795.226562 575.363281 794.777344 571.542969 795.105469 568.796875 C 795.257812 567.542969 796.636719 568.539062 796.199219 567.003906 L 773.121094 562.28125 L 773.121094 575.132812 C 773.121094 575.242188 772.375 575.710938 772.589844 575.914062 C 775.605469 577.050781 788.617188 578.378906 790.148438 580.128906 C 791.871094 582.09375 790.699219 593.257812 790.722656 596.40625 C 790.097656 597.292969 771.289062 601.425781 769.621094 601.433594 C 764.90625 601.464844 756.578125 597.246094 751.449219 596.804688 L 750.660156 596.015625 L 750.117188 579.925781 C 750.609375 578.457031 761.996094 576.726562 764.203125 576.445312 L 764.582031 561.992188 L 763.867188 561.332031 L 568.578125 522.425781 L 568.578125 528.714844 C 563.867188 528.625 558.050781 531.773438 553.601562 531.882812 C 551.128906 531.945312 542.59375 529.75 539.71875 528.988281 C 538.136719 528.570312 534.308594 528.269531 533.957031 526.359375 C 533.3125 522.808594 534.449219 517.605469 533.929688 513.847656 L 536.335938 513.007812 C 535.808594 511.324219 536.578125 509.476562 536.578125 508 L 536.578125 357.734375 L 532.382812 358.257812 L 532.382812 347.246094 L 665.078125 341.476562 L 665.078125 333.082031 L 499.339844 333.082031 L 499.339844 523.996094 C 502.167969 524.75 513.847656 526.449219 515.113281 528.417969 C 515.976562 529.769531 515.992188 540.207031 514.84375 541.335938 C 513.699219 542.453125 499.566406 545.605469 497.53125 545.515625 C 492.636719 545.304688 485.09375 541.90625 480.175781 540.792969 L 480.410156 526.957031 L 491.4375 523.664062 L 490.949219 333.078125 C 486.792969 332.480469 480.371094 333.886719 476.523438 333.078125 Z M 893.75 241.316406 L 905.027344 241.316406 C 907.0625 241.316406 919.625 230.703125 923.117188 230.296875 C 922.964844 229.378906 920.382812 229.714844 919.6875 229.75 C 916.488281 229.933594 913.21875 230.488281 909.984375 230.535156 Z M 905.027344 230.824219 C 901.367188 230.984375 897.675781 230.710938 894.011719 230.824219 L 876.96875 241.839844 L 890.34375 241.839844 C 891.308594 241.839844 904.355469 232.476562 906.332031 231.082031 C 908.289062 229.699219 905.128906 230.824219 905.027344 230.824219 Z M 860.183594 242.363281 L 873.558594 242.363281 L 889.03125 231.613281 C 884.160156 230.824219 879.234375 231.765625 874.371094 232.164062 L 860.191406 242.367188 Z M 782.042969 328.902344 L 926.816406 234.75 L 927.203125 234.253906 L 926.257812 231.355469 L 781.597656 325.328125 Z M 843.402344 242.886719 L 854.152344 242.886719 C 854.414062 242.886719 857.253906 242.578125 857.40625 242.515625 C 859.574219 241.667969 867.085938 235.554688 869.660156 233.734375 C 870.28125 233.300781 870.960938 232.992188 871.722656 232.914062 C 872.042969 230.726562 868.324219 232.355469 867.257812 232.386719 C 864.023438 232.5 860.75 232.117188 857.539062 232.632812 L 843.402344 242.882812 Z M 827.667969 242.886719 L 840.515625 242.886719 L 853.890625 233.183594 C 849.363281 232.402344 844.785156 233.3125 840.273438 233.730469 Z M 837.632812 233.449219 L 830.027344 233.449219 C 825.136719 233.449219 818.410156 238.457031 814.601562 241.617188 C 814.1875 241.960938 813.566406 242.3125 813.503906 242.886719 L 824.78125 242.886719 C 825.578125 242.886719 835.847656 234.453125 837.632812 233.449219 Z M 809.308594 233.976562 L 789.230469 235.140625 L 773.121094 244.980469 C 776.832031 246.128906 779.523438 244.84375 782.878906 244.523438 C 785.738281 244.25 789.246094 244.378906 792.027344 243.707031 C 794.664062 243.070312 804.78125 237.054688 807.742188 235.292969 C 808.3125 234.953125 809.183594 234.765625 809.304688 233.976562 Z M 801.441406 242.886719 L 810.621094 242.886719 C 811.355469 242.886719 820.679688 235.050781 822.421875 234.234375 C 819.894531 233.855469 816.886719 233.5 814.535156 234.738281 L 801.449219 242.894531 Z M 783.871094 235.546875 C 780.390625 235.714844 776.871094 235.417969 773.382812 235.546875 L 755.8125 244.984375 L 770.234375 244.984375 C 771.175781 244.984375 782.523438 236.058594 785.183594 236.058594 L 784.910156 235.003906 C 784.429688 235.058594 784.03125 235.535156 783.871094 235.539062 Z M 739.816406 245.511719 C 742.496094 245.328125 745.480469 245.511719 748.207031 245.511719 C 753.199219 245.511719 758.96875 241.015625 763.328125 238.601562 C 764.753906 237.8125 766.28125 237.003906 767.871094 236.589844 C 767.679688 235.640625 765.226562 236.050781 764.445312 236.054688 C 761.648438 236.074219 757.171875 236.265625 754.496094 236.59375 C 752.410156 236.851562 740.539062 243.25 738.535156 244.761719 C 738.117188 245.074219 737.527344 245.488281 737.449219 246.03125 C 738.339844 246.398438 739.3125 245.546875 739.808594 245.511719 Z M 748.46875 237.117188 L 739.289062 237.117188 C 737.402344 237.117188 727.324219 244.976562 724.347656 245.515625 C 724.347656 246.421875 726.652344 246.09375 727.253906 246.054688 C 729.820312 245.910156 732.367188 245.273438 734.96875 245.378906 L 748.46875 237.113281 Z M 734.832031 237.644531 L 726.703125 237.644531 L 710.183594 246.558594 L 719.886719 246.558594 Z M 690.777344 247.609375 L 700.480469 247.609375 L 717.519531 238.6875 C 717.519531 237.78125 715.222656 238.109375 714.613281 238.148438 C 712.289062 238.277344 707.367188 238.449219 705.445312 238.945312 C 703.273438 239.5 693.800781 244.933594 691.453125 246.4375 C 690.929688 246.773438 690.523438 246.382812 690.777344 247.613281 Z M 701.265625 239.21875 L 688.941406 239.21875 C 688.128906 239.21875 675.386719 246.125 674.523438 246.832031 C 674.277344 247.03125 673.792969 247.460938 673.992188 247.601562 L 687.765625 246.957031 Z M 657.996094 247.609375 C 662.316406 247.414062 666.769531 247.609375 671.109375 247.609375 C 671.21875 247.609375 672.1875 246.421875 672.765625 246.117188 C 676.710938 244.074219 680.820312 241.5625 685 240.253906 L 680 239.710938 C 676.933594 240.597656 673.175781 239.765625 670.304688 240.507812 C 666.066406 241.597656 661.34375 246.527344 656.683594 247.085938 C 656.453125 249.101562 657.480469 247.625 657.996094 247.601562 Z M 639.902344 248.132812 L 652.226562 248.132812 C 654.0625 248.132812 664.132812 241.035156 667.167969 240.785156 C 667.3125 239.914062 665.898438 240.222656 665.316406 240.246094 C 661.503906 240.386719 657.410156 241.046875 653.507812 241.027344 L 639.902344 248.136719 Z M 648.816406 241.316406 L 639.640625 241.316406 C 638.300781 241.316406 628.46875 247.6875 626.082031 248.210938 C 623.867188 250.335938 626.191406 248.65625 626.527344 248.65625 L 635.96875 248.65625 Z M 900.832031 243.414062 C 897.515625 243.527344 894.179688 243.328125 890.867188 243.414062 L 860.707031 263.34375 L 870.9375 263.34375 L 901.613281 243.925781 L 901.613281 243.15625 C 901.527344 242.417969 900.960938 243.40625 900.832031 243.414062 Z M 885.621094 243.9375 C 881.792969 244.117188 877.917969 243.804688 874.082031 243.9375 L 846.023438 263.34375 L 857.824219 263.34375 L 886.386719 244.179688 C 887.773438 242.152344 885.84375 243.925781 885.621094 243.9375 Z M 869.363281 244.460938 C 865.355469 244.632812 861.3125 244.332031 857.300781 244.460938 L 830.289062 263.867188 L 842.613281 263.867188 C 851.195312 256.882812 862.097656 251.488281 870.652344 244.703125 C 872.484375 243.25 869.460938 244.457031 869.363281 244.460938 Z M 807.734375 244.460938 L 798.03125 244.460938 L 765.253906 263.867188 L 778.628906 263.867188 Z M 821.898438 244.460938 L 810.621094 244.460938 L 782.035156 263.867188 L 793.835938 263.867188 Z M 837.632812 244.460938 L 824.78125 244.460938 L 796.722656 263.867188 L 810.097656 263.867188 Z M 854.414062 244.460938 L 840.515625 244.460938 L 813.503906 263.867188 L 827.402344 263.867188 Z M 740.601562 264.390625 L 757.125 264.390625 C 758.8125 264.390625 782.679688 249.644531 786.398438 247.515625 C 787.160156 247.078125 787.972656 246.667969 788.855469 246.554688 C 788.703125 245.636719 786.121094 245.972656 785.425781 246.007812 C 781.613281 246.222656 773.472656 246.046875 770.488281 246.804688 C 766.695312 247.769531 749.152344 258.875 744.445312 261.675781 C 743.1875 262.425781 741.445312 263.21875 740.601562 264.386719 Z M 766.828125 246.558594 L 752.925781 246.558594 L 721.195312 264.917969 L 736.144531 264.917969 Z M 748.46875 247.089844 C 744.195312 248.097656 740.046875 247.058594 735.746094 247.214844 L 705.460938 265.4375 L 718.179688 264.789062 L 748.464844 247.089844 Z M 690.777344 265.441406 L 702.050781 265.441406 C 703.636719 265.441406 725.675781 251.144531 729.230469 249.085938 C 729.988281 248.652344 730.804688 248.242188 731.6875 248.128906 C 731.785156 247.234375 729.875 247.554688 729.304688 247.585938 C 726.761719 247.714844 721.375 247.914062 719.246094 248.546875 C 715.625 249.621094 703.664062 257.347656 699.535156 259.78125 C 696.578125 261.523438 693.5 263.351562 690.777344 265.445312 Z M 715.953125 248.132812 L 706.773438 248.132812 L 676.089844 265.441406 L 687.367188 265.441406 Z M 681.597656 249.183594 C 677.988281 249.429688 674.214844 249.003906 670.582031 249.183594 L 638.851562 266.488281 L 646.980469 266.488281 C 647.585938 266.488281 653.097656 265.855469 653.515625 265.683594 L 683.957031 248.664062 C 683.066406 248.296875 682.101562 249.144531 681.597656 249.183594 Z M 698.117188 248.65625 L 687.367188 248.65625 L 656.160156 265.960938 L 668.882812 265.316406 Z M 648.554688 249.707031 C 644.828125 250.164062 640.320312 249.371094 636.492188 249.707031 L 605.808594 267.007812 L 618.894531 266.203125 L 649.007812 250.15625 C 651.128906 248.085938 649.152344 249.636719 648.5625 249.710938 Z M 667.175781 249.183594 L 653.800781 249.183594 L 622.070312 265.976562 C 621.765625 268.089844 623.421875 266.488281 623.90625 266.488281 L 635.445312 266.488281 Z M 632.558594 250.230469 L 622.332031 250.230469 C 620.539062 250.230469 593.113281 264.695312 590.417969 266.570312 C 590.058594 266.816406 589.53125 267.035156 589.550781 267.535156 C 590.316406 267.859375 591.070312 267.015625 591.386719 267.015625 L 602.925781 267.015625 Z M 896.375 343.589844 L 896.375 258.097656 L 893.714844 259.898438 L 893.199219 341.78125 L 893.71875 343.359375 Z M 890.078125 343.0625 L 890.078125 262.292969 L 781.171875 333.019531 L 773.121094 333.625 L 773.121094 342.015625 Z M 789.117188 265.964844 C 785.664062 266.132812 782.09375 265.964844 778.628906 265.964844 C 777.011719 265.964844 754.609375 281.097656 751.34375 283.261719 L 743.769531 288.277344 C 742.378906 290.300781 744.359375 288.519531 744.535156 288.519531 L 757.648438 288.519531 L 790.429688 266.480469 L 790.15625 265.425781 C 789.671875 265.476562 789.273438 265.953125 789.117188 265.960938 Z M 807.210938 265.441406 L 794.363281 265.441406 L 760.53125 288.519531 L 772.332031 288.519531 C 774.242188 288.519531 774.144531 288.304688 775.8125 287.273438 C 786.574219 280.605469 796.90625 272.742188 807.210938 265.441406 Z M 823.996094 265.441406 L 810.621094 265.441406 L 776.792969 288.519531 L 790.691406 288.519531 Z M 839.730469 265.441406 L 826.878906 265.441406 L 793.574219 288.519531 L 805.898438 288.519531 Z M 854.414062 265.441406 L 842.613281 265.441406 L 808.785156 288.519531 L 820.0625 288.519531 Z M 867.527344 265.441406 L 857.300781 265.441406 C 855.253906 265.441406 827.898438 286.105469 823.203125 287.988281 L 828.988281 289.015625 L 832.539062 288.457031 Z M 753.714844 265.964844 L 741.390625 265.964844 C 739.097656 265.964844 735.929688 266.777344 733.773438 267.789062 C 723.660156 272.542969 709.511719 281.28125 699.851562 287.363281 C 699.382812 287.65625 698.683594 287.855469 698.636719 288.511719 L 716.734375 288.511719 L 753.710938 265.960938 Z M 775.21875 265.964844 L 760.792969 265.964844 L 723.824219 288 C 723.683594 288.859375 724.53125 288.488281 725.125 288.519531 C 730.316406 288.800781 735.46875 289.015625 740.585938 288.234375 L 775.222656 265.964844 Z M 665.601562 288.519531 L 677.925781 288.519531 L 714.378906 266.496094 C 710.445312 266.699219 706.808594 267.359375 702.835938 266.699219 Z M 732.734375 266.488281 L 718.3125 266.488281 L 681.859375 288.519531 L 695.234375 288.519531 Z M 663.242188 267.539062 C 659.757812 267.707031 656.238281 267.414062 652.75 267.539062 L 614.203125 288.519531 L 627.050781 288.519531 L 664.550781 268.058594 L 664.28125 267.003906 C 663.796875 267.054688 663.398438 267.535156 663.242188 267.539062 Z M 681.597656 267.539062 C 678.148438 267.707031 674.574219 267.539062 671.109375 267.539062 C 669.164062 267.539062 641.355469 284.117188 637.105469 286.507812 C 636.011719 287.125 634.859375 287.761719 633.609375 288.003906 L 633.609375 288.773438 C 633.691406 289.515625 634.269531 288.519531 634.394531 288.519531 L 646.980469 288.519531 L 682.910156 268.054688 L 682.636719 267 C 682.152344 267.050781 681.753906 267.527344 681.597656 267.535156 Z M 650.390625 288.519531 L 662.714844 288.519531 L 698.644531 267.019531 L 685.679688 267.949219 Z M 648.816406 267.542969 L 634.640625 268.308594 L 601.078125 286.671875 L 597.941406 289.042969 L 611.070312 288.277344 L 648.816406 267.550781 Z M 630.199219 268.585938 C 626.011719 268.730469 621.800781 268.484375 617.609375 268.585938 L 581.683594 289.039062 L 594.265625 288.824219 L 630.984375 269.101562 L 630.984375 268.324219 C 630.894531 267.585938 630.328125 268.578125 630.199219 268.582031 Z M 598.992188 268.585938 L 591.386719 268.585938 C 589.949219 268.585938 585.765625 269.097656 584.449219 269.515625 L 548.117188 289.039062 C 548.882812 289.363281 549.636719 288.519531 549.953125 288.519531 L 562.539062 288.519531 Z M 614.726562 268.585938 L 602.402344 268.585938 L 565.949219 288.519531 L 579.324219 288.519531 C 579.460938 288.519531 580.707031 286.929688 581.316406 286.839844 Z M 558.605469 290.617188 L 545.757812 290.617188 C 542.835938 290.617188 535.644531 294.925781 532.371094 296.636719 C 523.027344 301.519531 513.792969 306.796875 504.589844 311.863281 L 520.980469 311.46875 Z M 572.242188 311.59375 L 584.570312 311.59375 C 596.289062 303.921875 610.023438 298.515625 621.839844 291.191406 C 622.292969 290.910156 623.507812 291.105469 622.324219 290.085938 C 618.058594 291.6875 613.851562 289.117188 609.640625 291.035156 L 572.25 311.601562 Z M 610.53125 311.59375 L 623.378906 311.59375 C 624.464844 311.59375 639.398438 301.609375 641.835938 300.15625 C 647.179688 296.976562 652.613281 293.695312 658.253906 291.128906 L 657.984375 290.085938 C 653.804688 290.710938 649.261719 289.054688 645.3125 291.046875 Z M 626.789062 311.59375 L 639.640625 311.59375 C 639.75 311.59375 640.726562 310.410156 641.296875 310.105469 C 652.480469 304.175781 662.90625 296.925781 674.191406 291.175781 L 674.25 290.085938 C 670.183594 291.109375 664.886719 289.875 661.027344 291.023438 C 656.117188 292.484375 640.996094 302.648438 635.542969 305.925781 C 632.617188 307.683594 629.425781 309.449219 626.789062 311.59375 Z M 643.046875 311.59375 L 656.421875 311.59375 C 658.101562 311.59375 681.5 296.375 685.179688 294.199219 C 687.109375 293.054688 689.128906 291.808594 691.296875 291.136719 L 685.265625 290.097656 C 682.070312 290.085938 679.761719 289.652344 676.78125 291.046875 C 667.363281 295.460938 653.394531 304.644531 644.253906 310.441406 C 643.792969 310.734375 643.089844 310.929688 643.042969 311.59375 Z M 712.804688 290.089844 L 697.855469 290.089844 C 696.25 290.089844 693.5 291.375 692 292.101562 C 681.570312 297.152344 671.585938 305.328125 661.03125 310.414062 L 660.355469 311.589844 L 677.402344 311.589844 L 712.804688 290.085938 Z M 686.316406 311.070312 C 692.585938 310.589844 699.394531 311.425781 705.722656 311.070312 L 737.449219 290.355469 C 732.554688 290.679688 727.472656 289.605469 722.480469 290.070312 C 719.925781 290.3125 714.539062 293.800781 711.929688 295.253906 C 702.8125 300.308594 693.921875 305.960938 685.011719 311.34375 C 685.425781 312.214844 686.191406 311.085938 686.324219 311.082031 Z M 752.925781 290.617188 C 748.746094 290.808594 744.523438 290.472656 740.339844 290.617188 L 709.152344 310.828125 C 707.757812 312.855469 709.742188 311.070312 709.921875 311.070312 L 724.082031 311.070312 L 753.691406 290.855469 C 755.078125 288.832031 753.148438 290.605469 752.925781 290.617188 Z M 727.488281 311.070312 L 741.390625 311.070312 L 770.496094 290.878906 C 765.792969 291.097656 759.867188 289.140625 755.75 291.339844 L 727.496094 311.078125 Z M 574.867188 290.617188 L 562.015625 290.617188 L 523.992188 311.59375 L 537.363281 311.59375 Z M 590.601562 290.617188 L 578.273438 290.617188 L 540.773438 311.59375 L 554.148438 311.59375 C 554.296875 311.59375 555.296875 310.246094 555.804688 310.105469 Z M 606.859375 290.617188 L 594.535156 290.617188 L 557.035156 311.59375 L 568.835938 311.59375 Z M 642.523438 290.617188 L 629.148438 290.617188 L 592.171875 311.59375 L 607.121094 311.59375 Z M 787.28125 290.617188 L 773.382812 290.617188 L 744.273438 311.070312 L 757.648438 311.070312 Z M 802.492188 290.617188 L 790.164062 290.617188 L 760.53125 311.070312 L 772.332031 311.070312 Z M 816.652344 290.617188 L 805.375 290.617188 L 775.742188 311.070312 L 785.96875 311.070312 Z M 828.714844 290.617188 L 819.011719 290.617188 L 788.855469 311.070312 L 798.03125 311.070312 Z M 700.480469 313.167969 C 694.179688 313.476562 687.429688 313.167969 681.074219 313.167969 C 680.523438 313.167969 673.089844 318.230469 671.722656 319.027344 C 669.449219 320.347656 667.027344 321.703125 664.550781 322.613281 C 663.808594 323.375 664.597656 323.5625 665.328125 323.660156 C 670.097656 324.261719 676.257812 323.460938 681.058594 323.101562 C 682.664062 322.980469 684.339844 323.644531 685.792969 323.179688 C 690.601562 321.644531 696.636719 315.242188 701.789062 313.6875 L 701.519531 312.632812 C 701.035156 312.6875 700.636719 313.164062 700.480469 313.167969 Z M 720.148438 312.648438 L 705.980469 312.875 L 689.207031 323.652344 L 704.320312 323.300781 C 709.226562 320.433594 715.042969 317.324219 719.488281 313.839844 C 719.910156 313.503906 720.453125 313.855469 720.148438 312.644531 Z M 738.503906 312.648438 C 733.605469 313.375 728.160156 311.867188 723.269531 313.40625 C 721.40625 313.992188 711.707031 320.835938 709.289062 322.484375 C 708.820312 322.804688 708.320312 322.40625 708.609375 323.652344 C 713.460938 322.828125 718.578125 322.886719 723.445312 323.570312 L 738.5 312.644531 Z M 754.238281 313.175781 C 749.875 313.75 745.171875 311.601562 741.011719 313.316406 C 738.566406 314.324219 730.140625 320.515625 727.632812 322.457031 C 727.195312 322.792969 726.667969 322.445312 726.972656 323.660156 L 739.585938 323.429688 L 754.238281 313.179688 Z M 742.699219 323.660156 L 754.5 323.660156 C 754.632812 323.660156 755.859375 322.214844 756.378906 321.863281 C 760.558594 319.054688 764.910156 316.488281 768.917969 313.425781 L 760.261719 312.609375 C 759.59375 312.597656 758.9375 312.632812 758.289062 312.769531 C 756.597656 313.121094 745.785156 320.847656 743.382812 322.488281 C 742.910156 322.8125 742.421875 322.398438 742.699219 323.660156 Z M 783.085938 312.644531 L 773.382812 312.644531 C 772.410156 312.644531 759.316406 322.257812 757.386719 323.660156 L 767.089844 323.660156 C 768.058594 323.660156 781.09375 313.964844 783.085938 312.644531 Z M 516.648438 313.167969 L 507.992188 313.167969 C 507.308594 313.167969 502.261719 313.316406 501.960938 313.390625 C 499.324219 314.027344 486.042969 321.082031 483.066406 322.859375 C 482.492188 323.203125 481.625 323.390625 481.503906 324.183594 L 498.546875 324.183594 C 498.660156 324.183594 499.628906 322.992188 500.207031 322.695312 C 505.726562 319.835938 511.738281 316.914062 516.644531 313.167969 Z M 502.488281 323.660156 L 516.386719 323.660156 C 516.574219 323.660156 518.695312 321.878906 519.445312 321.472656 C 523.914062 319.023438 528.308594 316.414062 532.902344 314.207031 L 532.902344 313.167969 C 529.199219 314.492188 524.882812 312.066406 520.984375 313.578125 L 502.480469 323.660156 Z M 520.582031 323.660156 C 524.519531 323.464844 528.679688 323.660156 532.644531 323.660156 C 533.195312 323.660156 540.597656 318.617188 541.996094 317.800781 C 543.914062 316.675781 547.203125 315.417969 548.839844 314.261719 C 549.402344 313.867188 549.492188 313.425781 548.898438 313.164062 L 536.964844 313.820312 L 519.269531 323.140625 L 519.542969 324.195312 C 520.027344 324.140625 520.425781 323.664062 520.582031 323.660156 Z M 564.902344 313.167969 L 553.625 313.167969 L 535.53125 323.660156 L 548.378906 323.660156 C 548.527344 323.660156 549.894531 322.039062 550.5625 321.644531 C 555.332031 318.847656 560.480469 316.53125 564.902344 313.167969 Z M 580.636719 313.167969 L 568.835938 313.167969 C 567.933594 313.167969 555.25 321.03125 553.195312 322.195312 C 552.621094 322.519531 551.910156 322.597656 551.265625 322.613281 C 550.949219 324.488281 551.519531 323.132812 552.050781 323.132812 L 562.539062 323.132812 Z M 603.710938 313.167969 L 588.765625 313.167969 L 570.667969 323.132812 L 587.714844 323.132812 Z M 620.496094 313.167969 L 607.644531 313.167969 L 591.125 323.132812 L 605.546875 323.132812 Z M 636.230469 313.167969 L 624.429688 313.167969 L 608.433594 323.132812 L 620.234375 323.132812 Z M 653.011719 313.167969 L 639.640625 313.167969 L 623.640625 323.132812 L 637.015625 323.132812 Z M 673.992188 313.167969 L 656.421875 313.167969 C 654.890625 313.167969 642.960938 322.375 639.90625 322.613281 C 639.765625 323.476562 640.613281 323.101562 641.207031 323.132812 C 646.160156 323.402344 651.273438 323.644531 656.175781 323.410156 Z M 794.625 313.167969 L 784.921875 313.167969 L 769.972656 323.660156 L 779.152344 323.660156 Z M 778.3125 326.859375 L 478.136719 327.320312 C 477.441406 327.410156 477.753906 329.796875 478.703125 329.875 C 561.890625 330.367188 645.109375 329.484375 728.308594 329.921875 C 736.441406 329.960938 744.742188 330.429688 752.910156 330.492188 C 761.832031 330.5625 770.761719 330.394531 779.679688 330.472656 L 779.9375 329.429688 C 778.429688 329.515625 778.601562 328.011719 778.324219 326.851562 Z M 496.191406 333.097656 L 494.089844 333.402344 L 494.0625 525.265625 L 495.953125 526 Z M 668.222656 333.097656 L 668.222656 340.703125 C 668.222656 340.8125 667.4375 341.300781 667.699219 341.484375 L 670.847656 341.484375 C 670.847656 341.484375 670.847656 333.09375 670.847656 333.09375 L 668.21875 333.09375 Z M 764.152344 333.679688 L 675.304688 333.097656 L 674.066406 333.960938 L 673.992188 340.972656 L 764.734375 342.019531 Z M 769.972656 333.625 L 767.351562 333.625 L 767.351562 579.605469 L 769.972656 580.128906 Z M 726.441406 344.644531 L 674.523438 343.582031 L 674.234375 345.195312 C 672.71875 345.25 671.050781 344.964844 669.566406 345.1875 C 650.386719 348.097656 630.3125 348.367188 610.804688 349.359375 L 604.765625 350.398438 L 634.421875 350.421875 C 664.472656 348.394531 694.535156 346.273438 724.617188 345.15625 C 725.25 345.136719 726.566406 345.550781 726.441406 344.636719 Z M 662.453125 344.644531 C 657.3125 344.867188 652.132812 344.921875 646.992188 345.167969 C 627.839844 346.089844 608.480469 347.675781 589.316406 348.332031 C 584.953125 348.476562 580.539062 348.132812 576.175781 348.308594 C 575.535156 348.335938 574.226562 347.914062 574.351562 348.828125 L 589.320312 349.378906 L 655.378906 345.679688 L 662.464844 344.644531 Z M 764.203125 344.644531 L 650.394531 351.457031 C 654.503906 351.507812 658.625 351.414062 662.738281 351.433594 C 675.578125 351.503906 688.121094 350.171875 701.007812 349.367188 C 721.640625 348.078125 742.285156 347.054688 762.902344 345.691406 C 763.953125 345.625 764.417969 346.105469 764.203125 344.644531 Z M 818.75 345.691406 C 809.554688 346.121094 800.386719 344.800781 791.195312 345.140625 C 785.195312 345.363281 779.167969 346.703125 773.121094 346.210938 L 773.121094 348.839844 C 773.121094 348.839844 809.566406 346.734375 809.566406 346.734375 L 818.75 345.699219 Z M 874.871094 346.214844 L 835.25 346.191406 C 814.574219 348.074219 793.820312 349.027344 773.121094 350.40625 L 773.121094 354.601562 C 773.121094 354.601562 874.871094 346.214844 874.871094 346.214844 Z M 764.734375 346.734375 L 684.488281 352.5 C 693.15625 352.089844 701.796875 353.386719 710.46875 353.050781 C 713.566406 352.929688 717.304688 352.160156 720.421875 351.984375 C 735.199219 351.15625 749.964844 350.21875 764.734375 349.359375 L 764.734375 346.730469 Z M 927.84375 347.265625 L 890.84375 347.238281 C 854.734375 349.742188 818.429688 351.863281 782.308594 354.609375 C 781.601562 354.660156 779.128906 354.863281 778.894531 355.648438 C 788.472656 355.617188 797.921875 356.035156 807.5 356.15625 C 821.132812 356.324219 833.304688 354.628906 846.820312 353.558594 C 873.207031 351.476562 899.609375 349.597656 926.015625 347.785156 Z M 826.09375 370.863281 L 826.09375 361.683594 C 826.09375 361.558594 825.683594 361.367188 825.703125 361.148438 L 828.976562 359.847656 C 870.738281 358.097656 912.5625 352.335938 954.308594 350.910156 C 957.015625 350.816406 959.757812 351.019531 962.464844 350.929688 L 962.488281 358.765625 L 970.855469 358.273438 L 970.074219 347.265625 L 816.652344 358.792969 L 817.175781 371.386719 L 826.097656 370.863281 Z M 764.734375 363 L 764.660156 358.609375 L 763.421875 357.75 L 535.003906 350.40625 L 535.535156 355.65625 L 764.734375 362.996094 Z M 764.734375 350.929688 C 752.390625 351.617188 740.089844 352.519531 727.753906 353.03125 C 727.113281 353.054688 725.800781 352.636719 725.925781 353.546875 L 763.972656 354.996094 L 764.660156 354.273438 L 764.738281 350.929688 Z M 960.367188 353.554688 L 828.714844 362.46875 L 828.714844 367.195312 C 828.714844 367.195312 960.367188 358.28125 960.367188 358.28125 Z M 544.449219 358.273438 L 539.726562 358.273438 L 539.175781 503.234375 L 545.230469 504.617188 L 544.457031 358.273438 Z M 558.613281 358.800781 L 546.023438 358.273438 C 546.125 367.453125 545.886719 376.652344 546 385.835938 C 546.015625 387.332031 546.554688 388.621094 546.570312 389.984375 C 546.957031 428.089844 546.691406 466.160156 547.050781 504.257812 L 558.867188 506.714844 L 558.617188 358.800781 Z M 812.976562 358.792969 L 773.113281 358.269531 L 773.113281 364.042969 C 773.113281 364.042969 813.503906 364.566406 813.503906 364.566406 Z M 560.703125 358.800781 L 560.703125 507.226562 L 573.292969 509.324219 C 573.152344 481.800781 573.476562 454.21875 573.320312 426.714844 C 573.199219 405.308594 572.074219 383.652344 572.742188 362.183594 C 572.773438 361.175781 573.152344 360.300781 573.292969 359.328125 Z M 586.929688 359.847656 L 575.652344 359.847656 C 575.480469 359.847656 574.535156 358.804688 574.335938 359.585938 L 574.828125 509.523438 C 574.992188 510.132812 585.878906 511.863281 587.179688 511.953125 C 588.820312 512.070312 587.449219 511.386719 587.449219 511.15625 L 587.449219 459.496094 L 589.019531 459.496094 L 589.019531 512.46875 L 601.355469 514.550781 C 602.640625 513.753906 601.609375 513.449219 601.609375 513.253906 L 601.609375 465.527344 C 601.609375 465.0625 602.621094 461.695312 603.175781 462.117188 C 603.019531 462.652344 603.707031 463.246094 603.707031 463.429688 L 603.707031 515.089844 L 615.246094 516.664062 L 615.246094 464.214844 L 616.820312 464.214844 L 616.820312 517.1875 L 629.40625 519.285156 L 629.40625 466.835938 L 630.980469 466.835938 L 630.980469 519.808594 L 644.09375 521.90625 L 643.542969 513.226562 C 645.796875 498.96875 642.402344 482.164062 644.066406 468.121094 C 644.179688 467.128906 644.3125 466.140625 645.664062 466.3125 L 645.664062 522.171875 L 646.542969 522.867188 L 658.253906 524.53125 L 658.253906 468.410156 C 659.40625 468.820312 659.707031 469.644531 659.851562 470.746094 C 661.113281 479.976562 659.515625 494.140625 659.5 503.902344 C 659.492188 510.820312 660.476562 517.871094 659.265625 524.738281 L 673.464844 527.675781 L 673.464844 469.460938 L 675.035156 469.460938 L 675.035156 526.890625 C 675.035156 527.019531 674.605469 527.203125 674.628906 527.414062 L 675.382812 528.117188 L 688.152344 530.292969 L 688.152344 472.601562 L 689.726562 472.601562 L 689.726562 530.820312 C 693.882812 530.59375 699.503906 533.195312 703.332031 533.238281 C 703.957031 533.242188 704.019531 533.179688 704.414062 532.65625 L 704.414062 474.4375 L 705.199219 473.660156 L 705.988281 474.4375 L 705.988281 533.179688 L 719.617188 536.0625 C 719.398438 523.25 719.78125 510.40625 719.949219 497.601562 C 720.011719 492.761719 719.816406 488.859375 720.140625 483.871094 C 720.261719 482.003906 719.917969 479.871094 720.140625 478.097656 C 720.238281 477.375 720.53125 476.457031 721.191406 477.320312 L 721.191406 536.582031 C 721.191406 536.582031 735.351562 539.207031 735.351562 539.207031 L 735.882812 365.078125 L 721.714844 364.558594 L 721.714844 439.820312 C 721.714844 440.019531 721.042969 440.625 721.179688 441.132812 C 720.5 441.726562 719.617188 440.289062 719.617188 439.820312 L 719.617188 365.34375 C 719.617188 365.234375 720.40625 364.75 720.140625 364.5625 L 705.457031 364.035156 L 705.457031 439.296875 L 703.882812 440.082031 L 703.882812 364.035156 L 689.71875 363.503906 L 690.121094 437.742188 L 688.148438 438.511719 L 688.148438 363.507812 L 675.035156 362.984375 L 675.035156 435.625 C 675.035156 435.808594 674.34375 436.402344 674.507812 436.9375 C 674.308594 437.089844 673.464844 436.25 673.464844 436.148438 L 673.464844 362.984375 L 659.5625 362.460938 C 658.832031 362.550781 659.828125 363.132812 659.828125 363.246094 L 659.828125 388.421875 C 659.828125 388.652344 659.246094 390.085938 658.527344 389.726562 C 656.785156 388.863281 658.253906 385.191406 658.296875 383.691406 C 658.398438 379.871094 657.816406 375.875 657.832031 372.164062 C 657.839844 370.71875 658.804688 363.003906 658.257812 362.460938 L 645.664062 361.941406 L 645.664062 376.625 C 642.441406 377.082031 644.078125 373.40625 644.117188 371.664062 C 644.195312 368.421875 643.792969 365.132812 644.097656 361.945312 L 630.984375 361.417969 L 630.984375 391.050781 L 629.679688 391.832031 L 628.886719 391.050781 L 628.886719 361.417969 L 616.824219 360.890625 L 616.824219 431.433594 L 615.25 432.222656 L 615.25 360.890625 L 603.984375 360.367188 C 602.789062 361.082031 603.710938 361.480469 603.710938 361.679688 L 603.710938 429.335938 L 602.40625 430.117188 L 601.613281 429.335938 L 601.613281 361.679688 C 601.613281 361.515625 602.332031 360.933594 602.140625 360.367188 L 589.8125 360.367188 C 589.65625 360.367188 589.410156 359.699219 589.027344 359.84375 L 589.027344 427.5 C 588.417969 427.710938 586.929688 427.269531 586.929688 426.714844 L 586.929688 359.84375 Z M 957.21875 524.535156 L 961.4375 523.773438 L 961.964844 522.207031 L 961.691406 361.398438 C 960.535156 359.980469 953.390625 361.6875 951.445312 361.71875 L 951.453125 367.714844 L 956.730469 368.566406 L 957.222656 524.535156 Z M 948.558594 361.945312 C 945.695312 362.28125 942.3125 361.703125 939.382812 361.945312 L 940.433594 368.765625 L 949.867188 368.238281 L 949.867188 361.421875 C 949.277344 361.222656 948.785156 361.917969 948.558594 361.945312 Z M 967.703125 361.421875 L 963.503906 361.421875 C 963.617188 367.972656 963.367188 374.554688 963.480469 381.117188 C 964.269531 427.039062 965.3125 474.726562 964.058594 520.632812 C 964.03125 521.523438 963.902344 522.175781 963.503906 522.957031 L 968.105469 521.652344 C 968.089844 521.410156 967.699219 521.246094 967.699219 521.125 L 967.699219 361.421875 Z M 938.335938 362.46875 L 929.414062 362.996094 L 929.941406 369.292969 L 938.335938 368.769531 Z M 925.480469 363.519531 C 922.824219 363.792969 919.800781 363.320312 917.089844 363.519531 C 916.179688 363.519531 916.9375 369.324219 917.097656 370.34375 L 927.84375 369.285156 L 927.316406 362.996094 C 926.550781 362.695312 925.847656 363.476562 925.488281 363.519531 Z M 914.730469 364.042969 L 907.386719 364.042969 L 906.863281 370.855469 L 914.730469 370.335938 Z M 904.769531 364.566406 L 900.042969 364.566406 C 900.042969 364.566406 899.53125 536.597656 899.53125 536.597656 L 904.792969 535.25 L 904.777344 364.5625 Z M 737.457031 365.09375 L 737.457031 539.746094 L 752.136719 542.367188 C 752.273438 529.34375 751.976562 516.300781 752.121094 503.273438 C 752.136719 501.902344 752.675781 500.617188 752.691406 499.125 C 753.117188 454.632812 752.320312 410.105469 752.671875 365.617188 L 737.457031 365.097656 Z M 893.75 365.09375 L 893.75 537.648438 L 897.445312 536.882812 L 897.972656 535.3125 L 897.925781 403.664062 L 898.496094 399.996094 L 898.476562 365.09375 Z M 764.199219 365.613281 C 760.988281 366.996094 757.539062 365.570312 754.238281 365.613281 C 754.054688 403.464844 754.476562 441.332031 754.265625 479.1875 C 754.253906 480.804688 753.699219 482.246094 753.6875 483.855469 C 753.566406 503.53125 753.828125 523.21875 753.710938 542.886719 L 763.941406 544.464844 L 764.199219 365.605469 Z M 892.175781 365.617188 L 882.210938 366.140625 L 882.210938 540.269531 L 892.175781 538.171875 Z M 880.640625 366.140625 L 868.574219 367.191406 L 868.574219 543.417969 L 880.640625 540.792969 Z M 773.121094 366.667969 L 773.121094 545.253906 L 786.230469 548.132812 L 786.230469 367.183594 C 786.230469 367.183594 773.121094 366.667969 773.121094 366.667969 Z M 787.804688 367.191406 L 787.804688 548.660156 L 803.535156 551.808594 L 803.507812 475.476562 C 803.613281 444.351562 803.53125 412.707031 803.507812 381.640625 C 803.507812 377.078125 803.140625 372.078125 804.058594 367.71875 L 787.800781 367.191406 Z M 867.003906 367.191406 L 857.5625 367.714844 L 857.5625 545.515625 L 867.53125 543.410156 C 867.746094 543.207031 867.003906 542.738281 867.003906 542.628906 Z M 814.03125 367.714844 L 805.636719 367.714844 L 806.15625 552.859375 C 807.78125 552.363281 817.21875 554.273438 812.96875 556.257812 C 810.609375 557.359375 808.621094 555.804688 806.730469 555.683594 C 805.046875 555.574219 806.167969 556.964844 806.171875 557.828125 C 806.1875 560.117188 806.136719 562.398438 806.136719 564.683594 C 806.136719 566.484375 807.351562 567.484375 805.636719 569.117188 C 808.9375 568.324219 813.074219 571.058594 815.902344 571.1875 C 819.027344 571.328125 824.214844 568.644531 827.660156 569.117188 C 826.957031 567.890625 825.085938 568.058594 825.5625 565.980469 C 867.851562 556.628906 910.0625 546.773438 952.644531 538.710938 C 953.316406 538.417969 952.777344 537.273438 953.882812 536.691406 C 955.507812 535.832031 963.605469 534.988281 964.339844 534.003906 C 964.027344 531.816406 964.445312 529.671875 965.390625 527.65625 L 968.496094 528.195312 C 969.464844 529.644531 969.535156 531.207031 968.871094 532.800781 C 968.785156 533.011719 966.988281 536.011719 966.832031 536.125 C 965.34375 537.179688 961.070312 536.792969 959.832031 538.695312 L 971.375 536.074219 C 970.316406 532.582031 971.226562 529.015625 970.308594 525.328125 C 970.140625 524.640625 970.730469 524.4375 969.566406 524.5625 C 951.648438 528.753906 933.816406 533.722656 915.78125 537.394531 C 908.839844 538.808594 901.648438 539.515625 894.699219 540.96875 C 868.996094 546.324219 843.40625 552.160156 817.726562 557.609375 L 817.628906 569.3125 C 817.230469 570.523438 815.570312 570.148438 814.554688 570.171875 L 814.554688 374.800781 C 814.554688 374.292969 810.320312 373.574219 812.28125 371.382812 L 814.03125 371.390625 Z M 855.988281 546.039062 L 855.988281 367.714844 L 844.972656 368.765625 L 844.972656 547.875 C 844.972656 547.972656 843.667969 548.957031 845.222656 548.644531 C 848.671875 547.964844 852.332031 546.242188 855.988281 546.039062 Z M 843.402344 368.765625 L 833.414062 370.113281 C 833.15625 430.308594 834.058594 490.664062 832.910156 550.757812 L 843.402344 548.398438 Z M 831.335938 369.8125 L 828.714844 369.8125 C 828.714844 369.8125 829.78125 372.195312 829.78125 372.195312 L 829.261719 373.773438 L 825.5625 374.003906 C 825.257812 425.488281 825.96875 477 825.589844 528.488281 C 825.578125 529.988281 825.027344 531.273438 825.019531 532.636719 C 824.960938 539.414062 825.164062 546.105469 825.570312 552.851562 L 831.332031 551.804688 L 831.332031 369.808594 Z M 954.066406 524.273438 C 953.910156 473.050781 954.066406 421.820312 954.066406 370.601562 C 954.066406 370.179688 952.808594 369.617188 952.257812 369.785156 L 907.382812 372.953125 C 907.796875 427.375 906.449219 481.699219 907.382812 536.074219 L 953.699219 525.480469 L 954.460938 524.804688 C 954.445312 524.554688 954.054688 524.394531 954.054688 524.273438 Z M 817.699219 375.84375 C 817.386719 435.367188 817.9375 494.914062 817.699219 554.429688 L 823.476562 553.375 C 822.65625 548.445312 822.820312 542.949219 822.925781 537.882812 C 822.957031 536.261719 823.46875 534.832031 823.5 533.214844 C 824.394531 480.351562 822.785156 427.394531 823.480469 374.535156 L 817.957031 374.691406 C 816.71875 375.15625 817.710938 375.730469 817.710938 375.851562 Z M 764.734375 557.582031 L 764.535156 548.390625 L 763.859375 547.722656 L 539.199219 506.703125 L 539.535156 513.550781 Z M 551.265625 519.289062 L 536.578125 516.667969 L 537.128906 525.5625 L 551.265625 528.207031 Z M 553.886719 519.816406 L 553.886719 528.730469 C 558.984375 529.015625 558.863281 524.675781 560.710938 521.132812 L 558.167969 520.949219 L 554.941406 527.152344 L 557.035156 520.339844 L 553.886719 519.808594 Z M 563.851562 521.394531 L 561.835938 521.476562 L 559.136719 527.675781 C 562.8125 527.796875 562.386719 523.902344 563.851562 521.386719 Z M 565.949219 521.917969 C 564.832031 520.804688 562.460938 526.804688 562.808594 527.15625 L 565.9375 526.621094 C 566.207031 524.945312 565.015625 523.476562 565.949219 521.921875 Z M 506.160156 528.210938 C 504.410156 528.386719 502.339844 527.226562 500.726562 527.332031 C 499.109375 527.4375 497.503906 528.808594 495.4375 528.753906 C 493.371094 528.695312 490.542969 527.316406 488.335938 527.164062 C 488.09375 528.578125 488.59375 528.070312 489.476562 528.355469 C 494.421875 529.9375 497.378906 530.644531 502.496094 529.527344 C 503.453125 529.320312 505.703125 529.082031 506.160156 528.21875 Z M 495.144531 532.402344 L 482.558594 529.253906 L 482.558594 539.222656 L 495.144531 541.84375 Z M 512.453125 530.304688 L 498.292969 532.925781 L 498.292969 542.367188 L 512.453125 539.746094 Z M 978.191406 537.648438 L 962.457031 540.792969 L 962.457031 552.332031 C 967.671875 551.070312 973.304688 550.296875 978.191406 548.398438 Z M 949.875 550.230469 C 951.0625 550.429688 952.277344 551.324219 953.296875 550.25 C 953.648438 549.878906 957.535156 541.1875 957.207031 540.792969 C 952.15625 541.375 952.273438 546.699219 949.871094 550.230469 Z M 959.835938 540.792969 C 958.875 540.605469 958.800781 541.046875 958.386719 541.707031 C 957.828125 542.605469 954 550.496094 954.054688 551.011719 L 959.835938 552.339844 Z M 949.339844 550.242188 L 952.492188 541.84375 C 948.386719 542.269531 947.546875 546.328125 946.730469 549.707031 L 949.347656 550.242188 Z M 773.121094 549.1875 L 773.121094 559.675781 L 803.535156 565.445312 C 803.699219 562.230469 803.109375 558.910156 804.007812 555.785156 L 773.121094 549.191406 Z M 797.769531 569.640625 L 797.769531 581.964844 L 800.914062 583.28125 L 805.660156 572.03125 L 803.058594 571.25 L 798.300781 580.660156 L 801.964844 570.699219 L 797.769531 569.644531 Z M 833.960938 571.214844 L 818.226562 573.835938 L 818.226562 586.425781 L 833.960938 583.277344 Z M 810.359375 572.792969 C 809.0625 572.550781 808.085938 571.722656 806.945312 572.78125 C 806.179688 573.492188 801.519531 583.386719 801.960938 583.800781 L 805.359375 583.828125 L 810.351562 572.796875 Z M 814.03125 573.316406 C 813.167969 573.292969 812.355469 573.128906 811.667969 573.835938 C 809.644531 575.914062 807.960938 581.746094 806.167969 584.328125 L 809.601562 585.226562 L 810.097656 584.894531 L 814.03125 573.324219 Z M 815.601562 586.425781 L 815.601562 573.835938 L 810.882812 585.371094 Z M 781.515625 580.660156 L 774.175781 579.085938 L 774.148438 582.207031 C 772.636719 582.082031 771.128906 582.976562 769.722656 583.011719 C 767.765625 583.050781 763.113281 582.203125 764.203125 579.605469 L 757.90625 580.921875 C 757.882812 581.558594 769.210938 583.871094 770.230469 583.847656 C 772.691406 583.796875 778.011719 582.324219 780.726562 581.703125 C 781.542969 581.519531 781.636719 582.050781 781.511719 580.664062 Z M 768.398438 586.425781 L 752.664062 583.277344 C 753.414062 585.3125 752.6875 593.183594 753.703125 594.035156 C 755.3125 595.382812 765.761719 597.070312 768.398438 597.433594 L 768.398438 586.417969 Z M 787.804688 583.277344 L 771.917969 586.414062 C 771.621094 586.585938 771.023438 588.050781 771.023438 588.261719 L 771.023438 597.175781 L 772.101562 597.761719 L 787.804688 593.503906 Z M 787.804688 583.277344 " fill-opacity="1" fill-rule="nonzero"/><path fill="#ffc700" d="M 643.058594 417.015625 L 644.375 416.507812 L 654.324219 406.019531 L 656.445312 409.164062 L 643.300781 421.773438 C 642.550781 421.851562 642.425781 421.234375 642.066406 420.882812 C 639.871094 418.699219 635.050781 412.097656 633.175781 409.324219 C 632.085938 407.703125 630.261719 405.671875 630.460938 403.699219 C 630.601562 402.292969 636.113281 396.519531 637.53125 394.988281 C 638.679688 393.75 645.628906 386.574219 646.460938 386.574219 C 647.667969 386.574219 648.648438 388.695312 648.046875 389.734375 L 633.660156 404.25 L 643.054688 417.023438 Z M 643.058594 417.015625 " fill-opacity="1" fill-rule="nonzero"/><path fill="#ffc700" d="M 652.480469 398.664062 L 651.398438 398.996094 L 643.0625 408.382812 C 641.355469 409.34375 640.027344 406.9375 640.671875 405.492188 C 640.972656 404.832031 649.824219 396.042969 650.894531 395.222656 C 651.3125 394.898438 651.570312 394.441406 652.230469 394.441406 L 664.796875 407.597656 C 666.9375 411.007812 665.1875 413.15625 663 415.714844 C 661.496094 417.476562 649.128906 430.265625 648.105469 430.097656 C 647.082031 429.929688 646.226562 427.921875 646.988281 426.992188 C 652.058594 421.421875 658.300781 416.769531 662.480469 410.460938 C 662.492188 408.902344 652.886719 401.566406 652.484375 398.664062 Z M 652.480469 398.664062 " fill-opacity="1" fill-rule="nonzero"/><path fill="#ffc700" d="M 648.292969 439.832031 L 649.609375 439.023438 C 651.855469 439.023438 654.480469 448.882812 656.421875 450.574219 L 661.960938 440.640625 L 663.78125 441.132812 C 664.34375 441.941406 664.34375 459.015625 664.039062 460.816406 C 663.738281 462.589844 661.933594 461.746094 661.933594 461.597656 L 661.933594 446.386719 C 660.582031 447 657.578125 454.679688 656.433594 454.25 C 654.691406 453.59375 652.382812 445.664062 650.394531 444.289062 L 650.394531 459.761719 L 649.609375 460.539062 C 649.363281 460.203125 648.296875 459.398438 648.296875 459.238281 L 648.296875 439.832031 Z M 648.292969 439.832031 " fill-opacity="1" fill-rule="nonzero"/><path fill="#ffc700" d="M 682.390625 450.058594 C 689.964844 444.238281 695.601562 457.761719 690.597656 462.992188 C 688.363281 465.328125 685.199219 465.183594 683.171875 462.664062 L 681.597656 464.210938 C 681.164062 463.78125 680.585938 463.421875 680.398438 462.796875 C 679.847656 460.984375 680.117188 451.246094 680.265625 448.726562 C 680.382812 446.753906 681.167969 444.808594 680.816406 442.722656 C 683.863281 442.648438 681.667969 449.074219 682.390625 450.058594 Z M 685.398438 451.191406 C 681.410156 451.914062 681.660156 462.933594 687.339844 462.136719 C 691.882812 461.496094 691.007812 450.179688 685.398438 451.191406 Z M 685.398438 451.191406 " fill-opacity="1" fill-rule="nonzero"/><path fill="#ffc700" d="M 628.347656 443.75 L 628.625 442.695312 L 630.335938 443.480469 C 628.726562 449.035156 633.488281 465.316406 622.574219 461.886719 C 620.640625 461.277344 618.9375 457.980469 621.371094 458.878906 C 626.324219 460.714844 627.429688 460.414062 628.367188 454.785156 C 626.972656 454.769531 626.410156 456.257812 624.921875 456.347656 C 616.589844 456.855469 617.65625 435.84375 628.351562 443.75 Z M 623.492188 444.375 C 620.269531 445.347656 620.847656 454.410156 625.445312 453.746094 C 629.679688 453.132812 628.335938 442.90625 623.492188 444.375 Z M 623.492188 444.375 " fill-opacity="1" fill-rule="nonzero"/><path fill="#ffc700" d="M 722.773438 465.269531 C 725.234375 462.117188 726.394531 457.316406 727.96875 453.515625 L 729.582031 453.207031 C 729.71875 454.265625 729.488281 455.242188 729.226562 456.257812 C 728.480469 459.117188 724.449219 469.066406 722.871094 471.40625 C 719.949219 475.730469 715.53125 474.328125 717.484375 471.878906 C 717.996094 471.230469 721.855469 472.117188 721.699219 468.207031 C 721.5625 464.828125 717.675781 458.183594 717.117188 454.390625 C 716.949219 453.269531 716.679688 452.414062 717.789062 451.644531 C 719.039062 451.683594 722.371094 463.3125 722.773438 465.269531 Z M 722.773438 465.269531 " fill-opacity="1" fill-rule="nonzero"/><path fill="#ffc700" d="M 670.167969 447.550781 C 681.035156 445.066406 680.953125 465.429688 671.359375 462.933594 C 664.757812 461.214844 664.378906 448.875 670.167969 447.550781 Z M 671.238281 449.617188 C 666.722656 450.476562 667.160156 461.3125 673.164062 460.539062 C 678.632812 459.828125 676.652344 448.585938 671.238281 449.617188 Z M 671.238281 449.617188 " fill-opacity="1" fill-rule="nonzero"/><path fill="#ffc700" d="M 642 458.1875 C 641.792969 458.914062 640.597656 459.113281 639.902344 458.976562 L 639.902344 457.394531 C 636.539062 459.882812 631.382812 458.011719 631.675781 453.535156 C 632.003906 448.585938 639.769531 450.105469 639.878906 448.753906 C 638.90625 444.902344 636.304688 445.910156 633.082031 445.859375 C 633.183594 441.78125 639.246094 442.863281 640.878906 445.667969 C 641.082031 446.019531 641.996094 448.558594 641.996094 448.746094 C 641.996094 450.867188 642.417969 456.679688 641.996094 458.1875 Z M 634.261719 455.703125 C 636.625 458.019531 641.492188 455.09375 639.65625 451.601562 C 639.292969 450.972656 634.207031 451.46875 633.691406 453.578125 C 633.585938 454.238281 633.808594 455.246094 634.269531 455.695312 Z M 634.261719 455.703125 " fill-opacity="1" fill-rule="nonzero"/><path fill="#ffc700" d="M 584.683594 433.386719 C 587.070312 432.859375 590.355469 433.652344 591.140625 436.160156 L 590.339844 437.460938 L 586.15625 435.359375 C 579.417969 438.855469 590.339844 441.300781 591.40625 444.789062 C 593.773438 452.503906 586.242188 455.671875 581.679688 449.785156 L 582.46875 448.480469 C 583.371094 448.296875 588.941406 453.566406 589.84375 447.980469 C 590.488281 444.007812 585.652344 443.230469 583.746094 441.425781 C 581.304688 439.113281 580.84375 434.21875 584.671875 433.378906 Z M 584.683594 433.386719 " fill-opacity="1" fill-rule="nonzero"/><path fill="#ffc700" d="M 596.007812 453.042969 C 592.09375 449.507812 593.28125 438.34375 600.175781 439.679688 C 607.257812 441.054688 607.339844 455.386719 598.765625 454.21875 C 598.042969 454.117188 596.539062 453.515625 596.007812 453.039062 Z M 598.851562 441.75 C 594.355469 442.425781 594.84375 452.933594 600.277344 452.167969 C 604.921875 451.515625 603.816406 441 598.851562 441.75 Z M 598.851562 441.75 " fill-opacity="1" fill-rule="nonzero"/><path fill="#ffc700" d="M 607.382812 440.617188 C 609.355469 440 609.230469 441.992188 609.492188 442.191406 C 609.78125 442.410156 612.984375 438.792969 616.074219 442.148438 C 616.382812 442.484375 617.34375 444.269531 617.34375 444.550781 L 617.34375 455.566406 L 616.550781 456.347656 L 615.246094 455.566406 L 615.246094 445.078125 C 615.246094 442.101562 609.476562 443.289062 609.476562 445.078125 L 609.476562 455.042969 L 608.683594 455.824219 L 607.378906 455.042969 L 607.378906 440.617188 Z M 607.382812 440.617188 " fill-opacity="1" fill-rule="nonzero"/><path fill="#ffc700" d="M 712.28125 464.746094 L 715.390625 465.304688 L 715.425781 467.363281 C 707.207031 468.789062 711.019531 458.15625 710.183594 453.199219 L 708.074219 453.199219 C 708.074219 453.199219 708.074219 451.109375 708.074219 451.109375 L 710.183594 451.109375 C 709.671875 444.789062 713.097656 446.109375 712.273438 451.632812 C 716.863281 451.417969 717.523438 454.929688 712.273438 453.730469 L 712.273438 464.746094 Z M 712.28125 464.746094 " fill-opacity="1" fill-rule="nonzero"/><path fill="#ffc700" d="M 701.265625 444.8125 L 701.265625 465.53125 L 700.472656 466.316406 L 699.167969 465.53125 L 699.167969 444.8125 Z M 701.265625 444.8125 " fill-opacity="1" fill-rule="nonzero"/><path fill="#ffc700" d="M 628.886719 433.800781 L 628.886719 417.539062 L 630.492188 417.773438 C 630.996094 418.203125 630.949219 418.761719 631.011719 419.351562 C 631.285156 421.707031 631.375 430.332031 630.984375 432.488281 C 630.75 433.789062 630.144531 433.941406 628.886719 433.800781 Z M 628.886719 433.800781 " fill-opacity="1" fill-rule="nonzero"/><path fill="#ffc700" d="M 703.886719 451.371094 L 704.6875 450.589844 L 705.988281 451.371094 L 705.988281 466.054688 L 705.195312 466.84375 L 703.886719 466.054688 Z M 703.886719 451.371094 " fill-opacity="1" fill-rule="nonzero"/><path fill="#ffc700" d="M 694.449219 450.320312 L 695.246094 449.539062 L 696.546875 450.320312 L 696.546875 465.007812 L 695.753906 465.792969 L 694.449219 465.007812 Z M 694.449219 450.320312 " fill-opacity="1" fill-rule="nonzero"/><path fill="#ffc700" d="M 823.644531 559.367188 L 823.382812 565.664062 C 818.90625 569.222656 818.109375 563.304688 819.699219 559.886719 L 823.648438 559.371094 Z M 823.644531 559.367188 " fill-opacity="1" fill-rule="nonzero"/><path fill="#ffc700" d="M 908.605469 534.195312 L 908.078125 374.222656 L 951.804688 371.675781 L 952.433594 372.09375 C 952.785156 400.289062 952.734375 428.632812 952.691406 456.855469 C 952.671875 470.464844 952.714844 484.21875 952.6875 497.71875 C 952.671875 506.09375 952.585938 514.4375 952.550781 522.800781 L 951.886719 524.230469 L 908.609375 534.195312 Z M 910.703125 376.320312 L 910.703125 451.585938 C 910.703125 451.785156 909.726562 452.34375 911.027344 452.832031 L 916.476562 452.890625 L 916.476562 455 C 918.117188 455.722656 923.824219 453.226562 923.824219 455.78125 C 923.824219 457.882812 917.832031 457.652344 916.472656 457.613281 C 916.761719 463.15625 917.183594 465.496094 910.796875 465.566406 L 910.234375 467.355469 L 910.707031 531.5625 L 950.042969 522.117188 C 948.800781 519.941406 950.070312 517.871094 950.066406 515.59375 L 950.042969 374.21875 Z M 910.960938 456.058594 C 909.894531 456.144531 910.761719 458.578125 910.761719 459.453125 C 910.761719 460.46875 910.417969 461.371094 910.410156 462.351562 C 911 463.195312 914.359375 463.308594 914.160156 461.792969 L 913.792969 457.417969 C 913.722656 456.851562 911.191406 456.042969 910.960938 456.058594 Z M 910.960938 456.058594 " fill-opacity="1" fill-rule="nonzero"/><path fill="#ffc700" d="M 818.976562 368.921875 C 815.703125 358.582031 825.234375 357.414062 824.089844 368.117188 C 823.617188 369.5625 820.28125 368.902344 818.976562 368.921875 Z M 818.976562 368.921875 " fill-opacity="1" fill-rule="nonzero"/><path fill="#ffc700" d="M 968.3125 349.664062 C 969.703125 351.859375 969.15625 353.921875 968.871094 356.34375 C 963.84375 358.121094 963.277344 353.804688 964.132812 349.894531 L 968.304688 349.664062 Z M 968.3125 349.664062 " fill-opacity="1" fill-rule="nonzero"/></svg>