<svg xmlns="http://www.w3.org/2000/svg" xmlns:xlink="http://www.w3.org/1999/xlink" width="1920" zoomAndPan="magnify" viewBox="0 0 1440 809.999993" height="1080" preserveAspectRatio="xMidYMid meet" version="1.0"><path fill="#ffc700" d="M 888.136719 442.214844 C 888.066406 442.214844 888 442.214844 887.929688 442.214844 C 881.890625 442.34375 876.960938 445.039062 873.277344 450.214844 C 864.960938 461.898438 865.265625 483.503906 868.648438 493.96875 C 871.386719 502.433594 876.375 507.941406 881.988281 508.707031 C 882.414062 508.765625 882.859375 508.796875 883.328125 508.796875 C 886.640625 508.796875 891.105469 507.136719 895.546875 500.402344 C 903.847656 487.820312 905.125 461.992188 898.074219 449.222656 C 895.539062 444.636719 892.109375 442.214844 888.140625 442.214844 Z M 870.886719 493.246094 C 868.203125 484.949219 867.71875 469.683594 871.6875 458.535156 C 871.742188 458.460938 871.789062 458.378906 871.828125 458.289062 C 873.867188 453.296875 879.226562 449.878906 883.785156 450.671875 C 889.492188 451.660156 893.066406 458.960938 893.59375 470.707031 C 894.988281 501.703125 885.132812 505.691406 880.832031 505.964844 C 880.785156 505.964844 880.746094 505.976562 880.703125 505.984375 C 876.6875 504.550781 873.019531 499.851562 870.882812 493.25 Z M 893.585938 499.109375 C 892.261719 501.113281 890.886719 502.714844 889.464844 503.910156 C 893.546875 499.152344 896.796875 489.546875 895.945312 470.605469 C 895.148438 452.882812 888.238281 449.058594 884.1875 448.355469 C 881.574219 447.90625 878.976562 448.507812 876.683594 449.734375 C 879.703125 446.40625 883.492188 444.667969 887.976562 444.574219 C 888.03125 444.574219 888.085938 444.574219 888.132812 444.574219 C 891.238281 444.574219 893.882812 446.519531 896.007812 450.363281 C 902.589844 462.285156 901.34375 487.34375 893.582031 499.113281 Z M 893.585938 499.109375 " fill-opacity="1" fill-rule="nonzero"/><path fill="#ffc700" d="M 886.519531 478.851562 C 886.519531 472.332031 883.574219 467.222656 879.8125 467.222656 C 876.046875 467.222656 873.101562 472.332031 873.101562 478.851562 C 873.101562 485.375 876.046875 490.484375 879.8125 490.484375 C 883.574219 490.484375 886.519531 485.375 886.519531 478.851562 Z M 875.449219 478.851562 C 875.449219 473.390625 877.746094 469.574219 879.804688 469.574219 C 881.867188 469.574219 884.164062 473.382812 884.164062 478.851562 C 884.164062 484.320312 881.863281 488.128906 879.804688 488.128906 C 877.75 488.128906 875.449219 484.320312 875.449219 478.851562 Z M 875.449219 478.851562 " fill-opacity="1" fill-rule="nonzero"/><path fill="#ffc700" d="M 963.671875 317.660156 C 963.449219 316.046875 962.101562 314.875 960.464844 314.828125 C 960.464844 314.828125 960.460938 314.828125 960.457031 314.828125 L 871.234375 308.441406 L 871.183594 308.441406 C 871.183594 308.441406 786.992188 309.535156 786.992188 309.535156 C 786.296875 301.507812 783.21875 288.152344 777.363281 283.867188 C 771.453125 279.542969 756.195312 277.710938 746.089844 276.496094 C 744.445312 276.296875 742.941406 276.121094 741.65625 275.949219 C 739.78125 275.703125 738.285156 274.351562 737.847656 272.519531 C 736.195312 265.617188 732.472656 253.621094 726.117188 250.753906 C 717.277344 246.765625 655.347656 247.234375 641.988281 252.578125 C 631.421875 256.804688 628.558594 262.972656 628.441406 263.234375 C 628.441406 263.242188 628.441406 263.246094 628.433594 263.253906 C 628.15625 263.738281 627.929688 264.261719 627.769531 264.820312 C 625.53125 272.574219 624.28125 284.300781 624.054688 288.460938 C 624.050781 288.539062 624.015625 288.589844 623.980469 288.617188 C 623.949219 288.648438 623.902344 288.679688 623.816406 288.671875 C 623.429688 288.644531 622.972656 288.601562 622.457031 288.558594 C 615.34375 287.941406 596.441406 286.300781 589.402344 296.558594 C 581.113281 308.636719 581.613281 344.390625 581.660156 346.957031 C 580.863281 346.402344 579.890625 345.777344 578.835938 345.09375 C 576.8125 343.78125 573.097656 341.378906 572.496094 340.449219 C 572.578125 340.042969 572.976562 339.1875 573.277344 338.550781 C 574.230469 336.515625 575.414062 333.984375 573.957031 332.234375 C 572.230469 330.160156 563.527344 322.714844 558.886719 321.398438 C 554.570312 320.175781 540.089844 320.824219 537.125 323.261719 C 536.367188 323.890625 535.46875 325.164062 534.558594 326.757812 C 533.816406 319.691406 531.992188 312.601562 529.1875 310.617188 C 526.753906 308.890625 524.980469 308.105469 522.050781 306.804688 C 520.429688 306.082031 518.414062 305.183594 515.699219 303.871094 C 515.234375 303.644531 515.027344 303.46875 514.929688 302.871094 C 514.675781 301.335938 514.078125 297.742188 511.214844 297.511719 C 508.601562 297.300781 507.8125 299.507812 507.386719 300.691406 C 507.3125 300.886719 507.222656 301.144531 507.140625 301.332031 C 506.359375 301.128906 504.773438 300.449219 503.472656 299.890625 C 498.851562 297.90625 496.6875 297.128906 495.425781 297.996094 C 494.144531 298.875 493.394531 301.105469 493.746094 302.96875 C 494.011719 304.367188 494.878906 305.339844 496.128906 305.625 C 496.710938 305.757812 499.058594 306.738281 500.949219 307.519531 C 503.597656 308.621094 505.394531 309.359375 506.355469 309.648438 C 506.363281 309.851562 506.363281 310.128906 506.359375 310.335938 C 506.34375 311.671875 506.308594 314.445312 509.304688 315.039062 C 512.875 315.746094 513.875 313.179688 514.359375 311.953125 C 514.445312 311.730469 514.554688 311.542969 514.648438 311.410156 C 516.546875 312.605469 518.425781 313.574219 520.09375 314.4375 C 523.300781 316.097656 525.832031 317.40625 526.328125 319.117188 C 527.417969 322.84375 528.828125 332.5 529.09375 339.84375 C 529.097656 339.960938 529.121094 340.070312 529.160156 340.175781 C 529.109375 340.4375 529.078125 340.671875 529.058594 340.878906 C 528.796875 344.011719 531.890625 347.042969 533.570312 348.441406 C 528.980469 351.351562 525.355469 356.242188 523.882812 362.28125 C 523.40625 364.242188 523.1875 366.199219 523.203125 368.109375 L 519.023438 368.277344 C 517.679688 368.277344 516.398438 368.914062 515.582031 369.984375 L 499.589844 387.660156 L 499.515625 387.75 C 498.773438 388.746094 498.371094 389.976562 498.371094 391.214844 L 498.371094 403.035156 C 498.371094 403.945312 498.121094 404.832031 497.644531 405.605469 L 494.765625 410.238281 C 494.210938 411.140625 493.917969 412.171875 493.917969 413.226562 L 493.917969 416.125 C 493.917969 417.398438 494.472656 418.605469 495.441406 419.433594 C 496.367188 420.230469 497.582031 420.59375 498.792969 420.453125 L 508.949219 421.324219 L 510.230469 429.363281 L 509.335938 430.859375 C 509.003906 431.414062 509.179688 432.136719 509.742188 432.472656 C 509.933594 432.585938 510.140625 432.640625 510.34375 432.640625 C 510.480469 432.640625 510.613281 432.613281 510.742188 432.570312 L 512.054688 440.792969 C 512.058594 440.832031 512.070312 440.863281 512.078125 440.902344 C 503.542969 443.722656 494.890625 449.191406 491.144531 451.558594 L 490.304688 452.089844 C 490.269531 452.113281 487.035156 454.523438 487.445312 457.054688 C 487.59375 457.96875 488.269531 459.191406 490.652344 459.765625 C 491.441406 459.957031 492.414062 460.25 493.527344 460.59375 C 489.601562 464.265625 480.75 474.359375 477.015625 493.445312 C 472.476562 516.617188 479.042969 538.660156 493.34375 548.292969 C 501.230469 553.605469 511.027344 554.980469 519.085938 554.980469 C 527.445312 554.980469 533.933594 553.496094 534.449219 553.371094 C 534.691406 553.3125 534.894531 553.191406 535.046875 553.019531 C 546.191406 550.273438 557.660156 544.019531 566.03125 524.460938 L 591.324219 529.390625 L 591.246094 527.890625 C 591.152344 525.929688 590.425781 512.359375 588.542969 504.070312 C 600.632812 506.171875 622.777344 510.117188 625.210938 510.925781 C 628.523438 512.03125 642.726562 512.0625 644.332031 512.0625 L 644.433594 512.0625 L 670.304688 507.644531 C 671.46875 511.71875 677.554688 528.707031 698.261719 529.125 C 698.625 529.132812 698.980469 529.136719 699.339844 529.136719 C 722.527344 529.136719 731.6875 513.648438 736.570312 501.910156 C 737.890625 498.730469 738.375 496.992188 738.503906 495.992188 L 779.386719 489.011719 C 789.15625 490.332031 789.320312 490.378906 793.113281 491.519531 C 794.617188 491.972656 796.671875 492.585938 800.070312 493.511719 C 802.363281 494.132812 804.8125 494.394531 807.3125 494.394531 C 818.222656 494.394531 830.09375 489.390625 834.054688 487.574219 C 836.636719 486.382812 838.15625 486.640625 838.746094 486.835938 C 839.304688 497.9375 842.667969 506.75 848.941406 514.253906 C 855.273438 521.835938 864.304688 525.652344 875.851562 525.652344 C 877.367188 525.652344 878.925781 525.582031 880.523438 525.449219 C 881.832031 525.417969 883.066406 525.289062 884.1875 525.113281 C 896.382812 523.125 905.117188 513.332031 909.445312 496.785156 C 913.476562 481.375 914.3125 459.351562 905.523438 441.332031 C 907.621094 441.03125 913.160156 440.394531 917.144531 439.949219 C 917.402344 439.949219 917.660156 439.925781 917.914062 439.867188 C 917.929688 439.867188 917.949219 439.867188 917.964844 439.863281 C 918.144531 439.84375 918.308594 439.78125 918.453125 439.691406 C 918.804688 439.542969 919.132812 439.332031 919.425781 439.058594 L 923.304688 435.4375 L 923.464844 435.253906 C 924.261719 434.125 924.183594 432.613281 923.28125 431.574219 C 921.457031 429.472656 917.871094 425.382812 914.347656 421.554688 C 914.296875 421.5 914.226562 421.425781 914.136719 421.328125 L 960.792969 417.582031 C 962.765625 417.425781 964.3125 415.753906 964.3125 413.792969 L 964.601562 398.964844 C 964.761719 398.066406 964.878906 397.019531 965 395.785156 C 965.101562 394.789062 965.214844 393.664062 965.375 392.363281 C 966.492188 383.425781 965.257812 328.976562 963.6875 317.675781 Z M 871.113281 310.789062 L 934.433594 315.320312 C 892.539062 316.109375 814.722656 317.484375 792.191406 317.289062 C 789.40625 317.261719 787.183594 315.066406 787.144531 312.28125 C 787.144531 312.152344 787.132812 312.015625 787.128906 311.882812 L 871.109375 310.789062 Z M 642.859375 254.753906 C 655.613281 249.648438 716.949219 249.183594 725.148438 252.890625 C 729.125 254.679688 732.917969 262.035156 735.554688 273.0625 C 736.222656 275.855469 738.5 277.902344 741.34375 278.28125 C 742.640625 278.453125 744.152344 278.636719 745.808594 278.832031 C 755.066406 279.945312 770.5625 281.808594 775.96875 285.765625 C 781.160156 289.5625 784.660156 304.03125 784.789062 312.320312 C 784.855469 316.390625 788.097656 319.613281 792.171875 319.644531 C 821.714844 319.894531 946.15625 317.460938 960.367188 317.179688 C 960.367188 317.179688 960.382812 317.179688 960.386719 317.179688 C 960.859375 317.167969 961.265625 317.519531 961.332031 317.992188 C 962.84375 328.828125 964.089844 383.519531 963.023438 392.070312 C 962.855469 393.386719 962.738281 394.539062 962.640625 395.550781 C 962.5625 396.320312 962.496094 397 962.421875 397.597656 C 962.3125 397.769531 962.25 397.96875 962.246094 398.1875 L 962.234375 398.8125 C 961.628906 401.902344 960.234375 402.207031 953.769531 403.554688 L 780.875 418.722656 C 781.15625 379.34375 781.183594 320.023438 779.054688 303.527344 C 776.71875 285.421875 763.597656 285.234375 749.699219 285.042969 C 745.3125 284.980469 740.773438 284.917969 736.449219 284.273438 C 735.371094 284.113281 734.6875 283.984375 734.355469 283.507812 C 732.609375 281.019531 731.199219 275.890625 729.835938 270.933594 C 728.238281 265.128906 726.855469 260.113281 724.800781 258.148438 C 719.785156 253.355469 693.238281 254.210938 671.84375 255.777344 C 667.953125 256.0625 663.597656 256.160156 659.386719 256.253906 C 650.683594 256.453125 642.261719 256.644531 636.25 258.28125 C 637.957031 257.078125 640.121094 255.851562 642.851562 254.761719 Z M 801.511719 430.988281 C 803.171875 438.964844 804.71875 447.265625 805.8125 454.097656 C 796.667969 454.878906 783.417969 455.757812 781.253906 455.21875 C 781.03125 455.164062 780.78125 455.117188 780.507812 455.074219 C 780.523438 454.011719 780.640625 445.4375 780.761719 432.800781 L 801.511719 430.992188 Z M 784.214844 473.066406 L 792.296875 457.429688 C 795.308594 457.261719 798.421875 457.039062 801.042969 456.84375 L 793.546875 471.445312 C 790.75 471.9375 787.617188 472.480469 784.21875 473.066406 Z M 637.710938 493.710938 C 637.183594 493.710938 635.230469 493.65625 632.355469 493.566406 L 650.765625 469.480469 C 651.554688 471.695312 652.40625 474.019531 653.265625 476.332031 L 639.53125 493.746094 C 638.746094 493.722656 638.121094 493.710938 637.710938 493.710938 Z M 588.363281 491.878906 C 589.542969 490.210938 591.40625 487.457031 594.488281 482.890625 C 598.441406 477.039062 603.910156 468.882812 610.738281 458.652344 C 621.476562 442.550781 632.277344 426.261719 633.957031 423.734375 L 641.046875 423.777344 L 594.277344 492.148438 C 592.097656 492.050781 590.09375 491.964844 588.359375 491.882812 Z M 581.679688 491.460938 C 581.679688 491.460938 581.65625 491.460938 581.648438 491.457031 C 581.273438 490.882812 580.890625 490.289062 580.496094 489.675781 L 623.753906 423.671875 L 631.148438 423.71875 C 614.074219 449.46875 589.585938 486.214844 585.5625 491.742188 C 583.433594 491.628906 582.042969 491.53125 581.679688 491.464844 Z M 532.792969 511.109375 C 533.78125 511.8125 535.429688 512.652344 537.699219 512.652344 C 539.332031 512.652344 541.289062 512.214844 543.550781 510.988281 C 544.441406 510.503906 545.222656 509.839844 545.863281 509.050781 C 542.496094 519.226562 536 519.660156 533.207031 519.847656 C 529.859375 520.066406 525.414062 519.101562 522.914062 515.710938 C 520.515625 512.457031 520.464844 507.585938 522.753906 501.617188 C 525.652344 494.058594 530.632812 492.792969 532.875 492.628906 C 530.425781 498.984375 529.238281 502.207031 529.148438 502.726562 C 528.636719 505.707031 530.167969 509.234375 532.792969 511.113281 Z M 533.785156 490.261719 C 531.757812 490.230469 524.375 490.824219 520.558594 500.769531 C 517.28125 509.304688 519.003906 514.367188 521.023438 517.105469 C 523.824219 520.902344 528.503906 522.230469 532.3125 522.230469 C 532.675781 522.230469 533.023438 522.214844 533.367188 522.195312 C 537.011719 521.949219 548.078125 521.210938 550.027344 499.851562 C 551.71875 495.707031 553.414062 491.53125 555.066406 487.453125 C 557.984375 496.765625 558.988281 509.714844 550.4375 523.152344 C 544.648438 532.25 533.039062 536.480469 522.832031 533.21875 C 513.277344 530.167969 507.933594 521.375 508.539062 509.707031 C 509.457031 492.058594 517.355469 483.675781 523.820312 479.746094 C 529.921875 476.035156 536.046875 475.511719 539.238281 476.304688 C 537.046875 481.886719 535.242188 486.519531 533.789062 490.261719 Z M 554.214844 483.277344 C 554.058594 483.46875 553.964844 483.699219 553.945312 483.945312 C 551.019531 491.1875 547.917969 498.816406 544.90625 506.132812 C 544.414062 507.328125 543.53125 508.316406 542.429688 508.917969 C 538.371094 511.125 535.695312 510.289062 534.167969 509.191406 C 532.007812 507.644531 531.164062 504.90625 531.464844 503.140625 C 531.78125 501.773438 538.890625 483.496094 552.59375 448.816406 L 554.066406 445.089844 C 554.164062 444.847656 554.402344 444.6875 554.671875 444.6875 C 554.699219 444.6875 554.722656 444.6875 554.75 444.691406 C 560.808594 445.390625 565.355469 447.375 567.53125 448.492188 C 567.816406 448.644531 567.941406 448.984375 567.820312 449.285156 C 565.820312 454.332031 560.441406 467.882812 554.222656 483.273438 Z M 542.960938 442.019531 L 559.574219 420.164062 L 560.496094 420.066406 L 559.179688 423.757812 C 558.875 423.992188 558.695312 424.375 558.730469 424.785156 C 558.734375 424.835938 558.746094 424.886719 558.761719 424.933594 L 557.410156 428.714844 C 556.914062 428.890625 556.578125 429.378906 556.628906 429.925781 C 556.644531 430.113281 556.707031 430.28125 556.796875 430.433594 L 555.402344 434.34375 C 555.328125 434.46875 555.277344 434.609375 555.253906 434.761719 L 553.726562 439.042969 C 553.320312 439.0625 553.066406 439.082031 553.003906 439.085938 L 552.496094 439.132812 L 548.753906 443.949219 C 547.089844 443.210938 545.105469 442.574219 542.957031 442.019531 Z M 554.988281 350.019531 C 559.722656 352.101562 564.34375 356.179688 564.734375 364.1875 C 565.054688 370.75 561.695312 375.492188 557.566406 378.816406 C 559.058594 376.566406 560.175781 374.023438 560.84375 371.28125 C 562.847656 363.0625 560.324219 354.902344 554.988281 350.019531 Z M 571.308594 366.535156 C 571.785156 366.535156 572.335938 366.320312 572.933594 365.949219 L 567.015625 386.082031 C 565.71875 386.035156 564.269531 385.964844 562.71875 385.894531 C 559.035156 385.722656 554.882812 385.53125 550.808594 385.515625 C 557.433594 382.597656 566.664062 376.613281 567.085938 365.839844 C 568.175781 366.183594 569.679688 366.535156 571.304688 366.535156 Z M 624.792969 311.378906 C 617.574219 310.972656 607.546875 310.753906 602.164062 312.164062 C 598.289062 313.179688 594.082031 319.476562 590.457031 326.578125 C 591.128906 317.617188 592.898438 303.699219 596.511719 300.214844 C 601.335938 295.566406 618.789062 296.535156 624.882812 297.273438 C 625.628906 298.617188 625.449219 305.367188 624.792969 311.375 Z M 602.757812 314.441406 C 609.542969 312.667969 625.003906 313.695312 630.070312 314.097656 C 630.171875 314.132812 630.28125 314.15625 630.386719 314.160156 C 630.484375 314.160156 630.574219 314.152344 630.664062 314.136719 C 632.160156 314.152344 633.574219 313.402344 634.402344 312.109375 C 634.484375 311.984375 634.5625 311.851562 634.644531 311.71875 C 635.285156 310.671875 635.839844 309.761719 638.171875 309.917969 C 640.238281 310.0625 640.429688 310.796875 640.714844 311.90625 C 640.949219 312.816406 641.339844 314.339844 643.253906 314.453125 C 643.90625 314.496094 645.066406 314.542969 646.527344 314.605469 C 651.21875 314.800781 663.683594 315.316406 665.1875 316.160156 C 665.71875 316.480469 665.980469 317.234375 665.796875 317.921875 C 665.5625 318.792969 664.703125 319.308594 663.441406 319.328125 C 662.167969 319.355469 656.675781 318.992188 651.824219 318.675781 C 647.316406 318.378906 643.054688 318.097656 641.867188 318.097656 C 640.039062 318.097656 639.558594 319.617188 639.269531 320.523438 C 638.871094 321.785156 638.554688 322.785156 635.871094 322.785156 C 633.363281 322.785156 633.175781 321.898438 632.867188 320.425781 C 632.796875 320.085938 632.726562 319.753906 632.632812 319.445312 C 632.195312 318.027344 630.890625 317.023438 629.375 316.949219 C 621.902344 316.589844 604.171875 316.15625 600.945312 319.796875 C 595.105469 326.382812 588.019531 346.585938 586.074219 352.355469 C 585.265625 351.933594 584.316406 351.675781 583.488281 351.523438 C 583.78125 350.65625 583.984375 349.648438 583.675781 348.835938 C 586.980469 339.355469 596.324219 316.132812 602.765625 314.441406 Z M 632.832031 279.675781 C 632.964844 279.613281 633.09375 279.527344 633.199219 279.410156 L 644.574219 266.960938 C 644.660156 266.863281 644.722656 266.753906 644.773438 266.644531 C 645.234375 266.597656 645.707031 266.554688 646.207031 266.515625 C 647.367188 266.421875 648.839844 266.316406 650.558594 266.195312 L 632.589844 285.859375 C 632.675781 283.582031 632.757812 281.484375 632.832031 279.671875 Z M 632.976562 276.167969 C 633.054688 274.28125 633.113281 273.085938 633.140625 272.859375 C 633.5 269.820312 634.90625 268.070312 641.285156 267.070312 Z M 632.453125 289.496094 L 653.335938 266.648438 C 653.511719 266.457031 653.605469 266.230469 653.636719 265.992188 C 655.472656 265.871094 657.503906 265.746094 659.664062 265.617188 L 632.246094 295.1875 C 632.316406 293.242188 632.386719 291.335938 632.457031 289.496094 Z M 632.113281 298.789062 C 632.113281 298.789062 632.113281 298.789062 632.117188 298.789062 L 663.054688 265.425781 C 664.6875 265.328125 666.382812 265.238281 668.113281 265.140625 L 631.894531 304.871094 C 631.964844 302.867188 632.039062 300.824219 632.113281 298.789062 Z M 691.84375 264.070312 L 653.539062 312.472656 C 653.515625 312.5 653.5 312.535156 653.476562 312.566406 C 651.714844 312.476562 649.789062 312.382812 647.703125 312.296875 L 687.691406 264.226562 C 689.097656 264.171875 690.484375 264.121094 691.84375 264.074219 Z M 707.011719 263.789062 L 668.015625 316.226562 C 667.742188 315.363281 667.183594 314.613281 666.394531 314.140625 C 665.945312 313.871094 665.085938 313.640625 663.828125 313.4375 L 702.417969 263.804688 C 704.074219 263.785156 705.617188 263.777344 707.011719 263.785156 Z M 723.023438 279.253906 C 723.023438 279.347656 723.023438 279.476562 723.023438 279.640625 L 684.851562 334.664062 C 684.8125 334.726562 684.777344 334.789062 684.75 334.851562 C 683.0625 334.839844 681.367188 334.828125 679.683594 334.816406 L 722.523438 273.320312 C 722.945312 275.292969 723.0625 277.351562 723.015625 279.253906 Z M 723.164062 283.5625 C 723.207031 284.652344 723.265625 285.910156 723.328125 287.324219 C 723.386719 288.625 723.453125 290.160156 723.527344 291.863281 L 692.402344 334.640625 C 692.34375 334.71875 692.300781 334.800781 692.265625 334.890625 C 690.714844 334.886719 689.148438 334.875 687.570312 334.867188 L 723.160156 283.558594 Z M 723.691406 295.640625 C 723.777344 297.804688 723.867188 300.128906 723.957031 302.527344 L 700.804688 334.90625 C 698.964844 334.90625 697.0625 334.90625 695.125 334.902344 Z M 724.082031 306.386719 C 724.160156 308.769531 724.226562 311.171875 724.273438 313.523438 C 724.253906 313.546875 724.234375 313.566406 724.214844 313.589844 L 709 334.800781 C 708.984375 334.824219 708.976562 334.847656 708.960938 334.871094 C 707.296875 334.886719 705.53125 334.894531 703.699219 334.902344 Z M 724.34375 317.445312 C 724.382812 320.277344 724.390625 322.945312 724.359375 325.304688 L 716.289062 334.71875 C 716.289062 334.71875 716.265625 334.753906 716.253906 334.769531 C 714.925781 334.796875 713.457031 334.824219 711.867188 334.839844 L 724.347656 317.441406 Z M 724.25 329.046875 C 724.125 331.722656 723.910156 333.640625 723.5625 334.390625 C 722.925781 334.511719 721.488281 334.605469 719.421875 334.683594 Z M 676.835938 334.789062 C 675.304688 334.777344 673.785156 334.761719 672.28125 334.742188 L 720.222656 267.953125 C 720.800781 268.726562 721.269531 269.574219 721.648438 270.472656 L 676.835938 334.792969 Z M 669.410156 334.710938 C 668 334.695312 666.609375 334.675781 665.253906 334.65625 L 716.390625 264.882812 C 717.207031 265.253906 717.929688 265.707031 718.570312 266.226562 L 669.414062 334.710938 Z M 662.363281 334.617188 C 660.613281 334.589844 658.929688 334.566406 657.324219 334.535156 L 709.824219 263.941406 C 709.847656 263.910156 709.867188 263.867188 709.890625 263.835938 C 711.714844 263.886719 713.128906 263.988281 714.023438 264.136719 L 662.367188 334.617188 Z M 648.28125 334.363281 L 657.269531 321.5625 C 657.3125 321.503906 657.339844 321.445312 657.371094 321.382812 C 660.257812 321.5625 662.613281 321.6875 663.476562 321.679688 C 663.648438 321.679688 663.816406 321.664062 663.976562 321.648438 L 654.425781 334.488281 C 652.136719 334.445312 650.066406 334.402344 648.277344 334.363281 Z M 631.445312 323.308594 C 631.894531 323.960938 632.585938 324.539062 633.691406 324.859375 L 631.691406 327.460938 C 631.53125 326.296875 631.460938 324.925781 631.445312 323.308594 Z M 636.457031 325.117188 C 640.335938 324.90625 641.0625 322.625 641.507812 321.234375 C 641.59375 320.953125 641.730469 320.523438 641.859375 320.449219 C 642.597656 320.449219 644.789062 320.578125 647.429688 320.746094 L 637.476562 333.695312 C 634.839844 333.191406 633.304688 332.246094 632.441406 330.347656 L 636.457031 325.121094 Z M 650.253906 320.921875 C 650.722656 320.953125 651.195312 320.984375 651.664062 321.015625 C 652.660156 321.082031 653.664062 321.144531 654.640625 321.210938 L 645.457031 334.289062 C 645.125 334.28125 644.804688 334.265625 644.507812 334.257812 C 642.871094 334.203125 641.4375 334.140625 640.175781 334.035156 L 650.25 320.921875 Z M 661.113281 313.101562 C 659.753906 312.964844 658.15625 312.84375 656.335938 312.734375 L 694.921875 263.976562 C 696.46875 263.929688 697.964844 263.894531 699.394531 263.863281 L 661.117188 313.105469 Z M 644.746094 312.167969 C 644.183594 312.144531 643.722656 312.121094 643.390625 312.101562 C 643.285156 312.09375 643.246094 312.082031 643.246094 312.082031 C 643.164062 311.984375 643.054688 311.582031 642.988281 311.3125 C 642.785156 310.535156 642.503906 309.441406 641.507812 308.632812 L 680.378906 264.527344 C 681.765625 264.464844 683.152344 264.402344 684.53125 264.347656 L 644.75 312.171875 Z M 639.214844 307.675781 C 638.941406 307.625 638.648438 307.59375 638.328125 307.566406 C 634.570312 307.3125 633.359375 309.300781 632.632812 310.492188 C 632.5625 310.609375 632.492188 310.722656 632.425781 310.832031 C 632.226562 311.140625 631.960938 311.382812 631.65625 311.546875 C 631.691406 310.554688 631.726562 309.539062 631.765625 308.5 L 671.324219 265.113281 C 671.363281 265.066406 671.402344 265.011719 671.433594 264.964844 C 673.304688 264.867188 675.207031 264.773438 677.113281 264.679688 L 639.222656 307.675781 Z M 624.667969 319.128906 C 624.441406 325.476562 623.699219 332.539062 622.832031 333.640625 C 621.039062 334.390625 608.09375 334.085938 595.925781 333.332031 C 598.152344 328.351562 600.542969 323.789062 602.699219 321.359375 C 604.179688 319.691406 612.953125 318.835938 624.667969 319.128906 Z M 636.960938 353.535156 C 634.914062 353.777344 616.367188 353.726562 600.460938 353.632812 L 600.460938 343.867188 C 600.460938 343.710938 600.585938 343.585938 600.742188 343.585938 L 768.523438 343.585938 C 769.144531 343.585938 769.648438 344.09375 769.648438 344.714844 L 769.648438 352.21875 C 769.648438 352.828125 769.15625 353.324219 768.550781 353.324219 L 637.316406 353.53125 C 637.1875 353.527344 637.066406 353.527344 636.960938 353.539062 Z M 637.148438 355.878906 L 637.53125 355.878906 C 639.695312 356.132812 647.125 360.402344 653.316406 364.3125 C 653.421875 364.410156 653.542969 364.488281 653.679688 364.542969 C 657.800781 367.152344 661.300781 369.558594 662.230469 370.445312 C 663.390625 372.960938 660.484375 395.445312 659.953125 397.382812 C 659.449219 398.585938 652.507812 405.394531 650.296875 406.671875 C 648.914062 407.226562 636.140625 408.105469 625.886719 408.8125 C 602.804688 410.394531 600.09375 410.777344 599.34375 411.597656 L 598.808594 412.222656 L 599.109375 412.921875 C 599.613281 414.085938 599.765625 414.4375 641 414.785156 C 643.277344 414.804688 645.527344 414.824219 647.632812 414.84375 L 647.867188 421.464844 L 615.242188 421.265625 C 614.929688 421.125 614.582031 421.128906 614.28125 421.261719 L 606.671875 421.21875 C 606.671875 421.21875 606.636719 421.183594 606.617188 421.171875 C 606.183594 420.867188 605.617188 420.902344 605.21875 421.207031 L 597.191406 421.160156 C 597.128906 421.085938 597.058594 421.019531 596.972656 420.960938 C 596.480469 420.617188 595.820312 420.710938 595.429688 421.148438 L 582.351562 421.066406 L 586.207031 411.996094 C 586.265625 411.933594 586.316406 411.863281 586.359375 411.785156 C 586.449219 411.628906 586.492188 411.460938 586.503906 411.296875 L 586.996094 410.140625 C 588.050781 411.761719 588.75 413.214844 589.316406 414.390625 C 590.167969 416.167969 590.734375 417.347656 591.902344 417.648438 C 592.066406 417.691406 592.230469 417.710938 592.398438 417.710938 C 592.886719 417.710938 593.398438 417.527344 593.910156 417.164062 C 594.296875 416.890625 595.480469 416.050781 595.511719 411.109375 C 595.539062 407.332031 594.792969 400.773438 592.691406 399.246094 L 592.027344 398.757812 C 587.476562 395.402344 583.644531 392.753906 580.472656 390.78125 L 582.347656 382.574219 L 594.878906 396.636719 C 596.011719 397.90625 597.617188 398.617188 599.289062 398.617188 C 599.550781 398.617188 599.816406 398.601562 600.082031 398.5625 L 646.621094 392.292969 C 648.695312 392.015625 650.257812 390.226562 650.257812 388.136719 L 650.257812 377.699219 C 650.257812 375.46875 649.042969 373.417969 647.082031 372.351562 L 635.929688 366.265625 C 635.019531 365.765625 633.984375 365.53125 632.949219 365.507812 L 586.234375 365.589844 L 587.191406 361.414062 C 588.679688 361.351562 589.921875 361.183594 590.5625 360.875 C 591.5625 360.394531 591.828125 359.726562 591.878906 359.246094 C 592.007812 357.984375 590.816406 357.078125 589.558594 356.121094 C 589.46875 356.050781 589.363281 355.976562 589.257812 355.886719 C 599.167969 355.96875 633.601562 356.214844 637.144531 355.867188 Z M 700.953125 412.734375 C 699.382812 410.914062 696.414062 406.664062 697.167969 403.671875 C 697.527344 402.242188 698.71875 401.203125 700.804688 400.492188 C 704.238281 399.324219 710.914062 398.699219 720.101562 398.6875 C 720.140625 398.6875 720.183594 398.679688 720.226562 398.675781 C 720.113281 405.203125 721.40625 410.53125 722.039062 412.730469 L 700.953125 412.730469 Z M 697.328125 486.882812 L 669.539062 485.453125 C 665.277344 473.371094 659.640625 457.199219 659.140625 455.109375 C 658.625 452.945312 660.039062 435.375 661.09375 424.273438 C 661.242188 424.140625 661.351562 423.96875 661.417969 423.773438 C 661.691406 423.457031 661.84375 423.0625 661.84375 422.644531 C 661.84375 422.515625 661.851562 422.359375 661.863281 422.1875 C 666.523438 422.253906 684.488281 422.507812 700.40625 422.65625 C 699.386719 428.097656 695.558594 448.8125 695.558594 452.285156 C 695.558594 455.757812 696.976562 480.746094 697.328125 486.875 Z M 659.453125 415.078125 C 660.355469 415.222656 659.863281 419.121094 659.699219 420.402344 C 659.617188 421.074219 659.539062 421.671875 659.507812 422.183594 L 650.222656 421.558594 L 649.984375 414.871094 C 655.074219 414.925781 658.886719 414.988281 659.453125 415.082031 Z M 659.714844 412.734375 C 658.4375 412.585938 652.320312 412.527344 641.023438 412.433594 C 632.902344 412.363281 621.675781 412.265625 613.113281 412.078125 C 617.234375 411.761719 621.84375 411.445312 626.046875 411.15625 C 644.375 409.894531 650.265625 409.394531 651.417969 408.738281 C 653.292969 407.65625 659.921875 401.652344 661.757812 398.914062 L 698.71875 398.808594 C 696.648438 399.800781 695.359375 401.234375 694.890625 403.097656 C 694.027344 406.511719 696.296875 410.433594 697.972656 412.734375 Z M 724.5 412.734375 C 723.875 410.71875 720.574219 398.894531 724.464844 387.265625 C 725.398438 387.355469 726.390625 387.433594 727.390625 387.488281 C 726.390625 391.058594 723.96875 401.9375 727.90625 412.457031 C 727.179688 412.554688 726.464844 412.648438 725.769531 412.734375 Z M 763.246094 400.808594 C 759.480469 400.066406 747.945312 397.835938 742.328125 397.179688 C 742.285156 397.179688 738.132812 396.855469 732.441406 396.613281 C 732.695312 391.769531 733.632812 388.101562 733.875 387.21875 C 734.503906 387.09375 735.066406 386.933594 735.539062 386.722656 C 737.433594 385.878906 738.191406 384.613281 738.800781 383.597656 C 739.535156 382.371094 739.9375 381.699219 742.238281 381.699219 C 743.761719 381.699219 746.5 382 749.398438 382.320312 C 756.207031 383.066406 760.921875 383.503906 763.328125 382.855469 C 763.3125 388.507812 763.285156 394.863281 763.246094 400.808594 Z M 762.980469 375.398438 C 762.914062 377.011719 762.839844 378.828125 762.878906 380.558594 C 761.253906 381.257812 753.753906 380.429688 749.652344 379.984375 C 746.558594 379.640625 743.886719 379.351562 742.230469 379.351562 C 738.597656 379.351562 737.589844 381.035156 736.777344 382.394531 C 736.25 383.277344 735.792969 384.035156 734.578125 384.574219 C 732.945312 385.300781 729.09375 385.402344 724 384.855469 C 723.667969 384.816406 723.519531 384.578125 723.46875 384.480469 C 723.421875 384.378906 723.328125 384.121094 723.503906 383.835938 L 726.828125 378.539062 C 731.320312 371.367188 734.265625 371.253906 742.136719 370.9375 L 742.269531 370.9375 C 743.625 370.878906 745.097656 370.8125 746.617188 370.75 C 751.179688 370.554688 757.46875 370.285156 760.863281 370.285156 C 761.8125 370.285156 762.539062 370.308594 762.933594 370.355469 C 763.148438 371.179688 763.046875 373.59375 762.972656 375.402344 Z M 730.300781 412.144531 C 726.113281 401.5625 729.082031 390.058594 729.820312 387.550781 C 730.347656 387.550781 730.863281 387.539062 731.367188 387.507812 C 730.5 391.019531 728.425781 401.6875 732.132812 411.898438 C 731.515625 411.980469 730.90625 412.058594 730.300781 412.136719 Z M 734.527344 411.585938 C 732.890625 407.320312 732.378906 402.882812 732.378906 398.96875 C 737.996094 399.210938 742.085938 399.523438 742.097656 399.523438 C 747.753906 400.183594 760.066406 402.578125 763.230469 403.207031 C 763.222656 404.726562 763.210938 406.21875 763.203125 407.644531 C 759.734375 408.21875 746.527344 410 734.527344 411.585938 Z M 746.53125 368.398438 C 745.011719 368.464844 743.539062 368.527344 742.1875 368.582031 L 742.054688 368.582031 C 734.023438 368.902344 729.996094 369.066406 724.84375 377.285156 L 721.519531 382.589844 C 720.964844 383.476562 720.90625 384.566406 721.363281 385.503906 C 721.566406 385.929688 721.863281 386.28125 722.214844 386.558594 C 721.101562 389.902344 720.535156 393.234375 720.320312 396.359375 C 720.25 396.347656 720.175781 396.339844 720.097656 396.339844 C 717.78125 396.339844 715.632812 396.382812 713.648438 396.457031 C 713.550781 396.429688 713.445312 396.414062 713.335938 396.414062 L 662.460938 396.5625 C 663.355469 390.902344 666.234375 371.109375 663.960938 368.832031 C 663.496094 368.367188 661.171875 366.691406 658.046875 364.613281 C 698.746094 364.519531 756.507812 364.855469 763.253906 366.171875 C 763.269531 366.613281 763.28125 367.253906 763.292969 368.054688 C 761.417969 367.824219 756.671875 367.964844 746.539062 368.402344 Z M 567.1875 468.253906 C 567.0625 468.042969 566.878906 467.886719 566.671875 467.796875 C 566.515625 467.464844 566.359375 467.15625 566.214844 466.867188 C 567.773438 464.824219 573.570312 456.730469 596.640625 423.511719 L 603.503906 423.554688 L 569.421875 471.914062 C 568.082031 469.730469 567.222656 468.3125 567.1875 468.253906 Z M 568.601562 446.40625 C 566.289062 445.214844 561.453125 443.105469 555.039062 442.359375 L 555.398438 441.347656 C 558.609375 441.332031 564.792969 441.683594 569.96875 444.21875 L 568.945312 446.617188 C 568.839844 446.539062 568.722656 446.46875 568.601562 446.40625 Z M 537.015625 420.171875 L 539.6875 404.023438 C 545.949219 403.71875 551.605469 403.101562 552.453125 402.871094 C 552.976562 402.726562 553.675781 402.460938 554.570312 402.121094 C 557.683594 400.945312 562.90625 398.964844 566.417969 400.113281 C 566.792969 400.234375 567.152344 400.335938 567.5 400.417969 L 563.394531 411.925781 C 563.035156 412.15625 562.804688 412.570312 562.84375 413.023438 C 562.851562 413.117188 562.875 413.210938 562.90625 413.296875 L 561.371094 417.601562 L 537.019531 420.167969 Z M 533.105469 404.203125 C 534.472656 404.203125 535.878906 404.171875 537.285156 404.125 L 537.058594 405.472656 C 530.28125 403.027344 522.765625 404.960938 521.949219 405.179688 L 522.339844 402.890625 C 524.140625 403.871094 528.367188 404.195312 533.101562 404.195312 Z M 532.433594 431.484375 C 532.183594 431.835938 532.15625 432.269531 532.3125 432.636719 C 525.78125 430.28125 518.574219 431.988281 517.328125 432.316406 L 517.972656 428.519531 C 518.121094 428.539062 518.28125 428.527344 518.4375 428.480469 C 518.515625 428.460938 526.542969 426.246094 533.015625 429.035156 C 533.058594 429.054688 533.105469 429.0625 533.15625 429.078125 L 532.855469 430.898438 Z M 518.851562 423.371094 C 519.085938 423.464844 519.351562 423.492188 519.613281 423.417969 C 519.691406 423.394531 527.570312 421.222656 534.015625 423.898438 L 533.550781 426.714844 C 527.390625 424.246094 520.449219 425.582031 518.394531 426.070312 Z M 536.617188 422.582031 L 539 422.332031 L 535.957031 426.578125 Z M 521.585938 407.320312 C 521.863281 407.492188 522.199219 407.558594 522.535156 407.460938 C 522.613281 407.441406 530.28125 405.328125 536.675781 407.835938 L 536.125 411.148438 C 530.21875 408.675781 523.515625 409.785156 521.078125 410.328125 Z M 520.644531 412.84375 C 520.691406 412.835938 520.734375 412.832031 520.777344 412.820312 C 520.855469 412.796875 528.886719 410.582031 535.355469 413.371094 C 535.480469 413.425781 535.609375 413.449219 535.742188 413.457031 L 535.207031 416.691406 C 529.140625 414.238281 522.285156 415.496094 520.105469 416.003906 L 520.644531 412.839844 Z M 520.054688 418.445312 C 520.136719 418.425781 528.164062 416.210938 534.632812 418.996094 C 534.691406 419.023438 534.753906 419.039062 534.816406 419.054688 L 534.585938 420.429688 L 534.390625 420.449219 C 533.945312 420.496094 533.582031 420.792969 533.425781 421.1875 C 528.164062 419.53125 522.625 420.355469 520.207031 420.859375 C 520.152344 420.421875 519.851562 420.054688 519.4375 419.90625 L 519.679688 418.488281 C 519.800781 418.492188 519.921875 418.488281 520.046875 418.449219 Z M 516.949219 434.546875 C 517.203125 434.671875 517.5 434.714844 517.792969 434.632812 C 517.871094 434.609375 525.722656 432.445312 532.164062 435.101562 L 531.613281 438.421875 C 531.519531 438.34375 531.421875 438.273438 531.304688 438.222656 C 525.652344 435.789062 519.222656 436.6875 516.488281 437.253906 Z M 535.089844 431.824219 L 542.128906 422 L 547.492188 421.4375 L 533.875 439.164062 Z M 578.023438 360.753906 C 579.613281 361.117188 582.273438 361.386719 584.78125 361.445312 L 578.359375 389.515625 C 574.921875 387.53125 572.421875 386.515625 570.757812 386.414062 C 570.34375 386.335938 569.90625 386.269531 569.433594 386.21875 L 576.285156 362.890625 C 576.867188 362.226562 577.453125 361.507812 578.023438 360.757812 Z M 585.699219 367.953125 L 632.953125 367.871094 L 632.960938 367.871094 C 633.601562 367.871094 634.238281 368.03125 634.804688 368.339844 L 645.960938 374.425781 C 647.164062 375.082031 647.910156 376.34375 647.910156 377.714844 L 647.910156 388.148438 C 647.910156 389.066406 647.222656 389.847656 646.3125 389.972656 L 599.769531 396.242188 C 598.601562 396.40625 597.425781 395.96875 596.636719 395.085938 L 582.996094 379.769531 L 585.695312 367.957031 Z M 576.757812 391.320312 C 579.820312 393.066406 584.238281 395.941406 590.636719 400.652344 L 591.3125 401.152344 C 591.789062 401.492188 592.65625 403.871094 593.019531 407.882812 C 593.425781 412.304688 592.898438 414.871094 592.554688 415.242188 C 592.523438 415.261719 592.496094 415.285156 592.472656 415.296875 C 592.203125 414.96875 591.785156 414.09375 591.433594 413.371094 C 590.839844 412.128906 590.023438 410.4375 588.777344 408.566406 C 588.492188 408.132812 588.121094 407.707031 587.679688 407.285156 C 587.5625 407.089844 587.390625 406.925781 587.171875 406.824219 C 583.820312 403.953125 577.480469 401.359375 573.019531 399.765625 C 574.734375 398.664062 575.6875 396.761719 576.328125 395.082031 C 576.828125 393.757812 576.972656 392.476562 576.75 391.316406 Z M 584.691406 409.554688 C 578.191406 406.414062 570.53125 406.414062 567.816406 406.527344 L 569.742188 401.132812 C 574.296875 402.644531 581.6875 405.476562 585.238281 408.265625 Z M 565.136719 414.042969 C 567.855469 413.949219 575.460938 414.015625 581.449219 417.183594 L 579.964844 420.667969 C 574.128906 417.761719 567.273438 417.441406 563.90625 417.488281 L 565.132812 414.039062 Z M 582.371094 415.015625 C 576.464844 411.953125 569.421875 411.617188 565.988281 411.664062 L 566.964844 408.929688 C 566.984375 408.929688 567.003906 408.929688 567.023438 408.929688 C 567.125 408.921875 576.46875 408.152344 583.769531 411.722656 Z M 563.0625 419.871094 C 565.722656 419.78125 573.113281 419.835938 579.050781 422.839844 L 577.535156 426.40625 C 571.742188 423.65625 565.0625 423.367188 561.796875 423.421875 L 563.0625 419.867188 Z M 560.945312 425.800781 C 563.484375 425.707031 570.6875 425.734375 576.613281 428.578125 L 575.363281 431.515625 C 569.742188 428.863281 563.308594 428.523438 559.964844 428.558594 Z M 559.117188 430.929688 C 561.855469 430.847656 568.722656 430.964844 574.445312 433.683594 L 573.320312 436.335938 C 567.597656 433.847656 561.207031 433.617188 558.136719 433.679688 Z M 557.285156 436.066406 C 559.566406 435.972656 566.480469 435.929688 572.398438 438.503906 L 570.886719 442.054688 C 565.714844 439.550781 559.804688 439.042969 556.242188 438.996094 Z M 575.929688 436.207031 L 576.726562 434.332031 C 576.9375 434.234375 577.121094 434.070312 577.242188 433.851562 C 577.40625 433.550781 577.425781 433.210938 577.328125 432.914062 L 578.929688 429.140625 C 579.09375 429.042969 579.242188 428.898438 579.339844 428.714844 C 579.484375 428.453125 579.519531 428.164062 579.460938 427.890625 L 581.359375 423.421875 L 584.039062 423.4375 L 575.929688 436.210938 Z M 582.515625 353.746094 C 584.050781 353.980469 585.371094 354.488281 585.507812 354.835938 C 585.507812 354.859375 585.519531 354.882812 585.523438 354.910156 C 585.523438 354.921875 585.523438 354.933594 585.527344 354.941406 C 585.726562 356.167969 586.949219 357.101562 588.136719 358.003906 C 588.457031 358.25 588.917969 358.597656 589.230469 358.882812 C 587.359375 359.445312 582.238281 359.003906 579.546875 358.640625 C 580.734375 356.910156 581.78125 355.171875 582.511719 353.742188 Z M 540.324219 388.457031 C 546.792969 387.507812 555.566406 387.917969 562.613281 388.246094 C 564.546875 388.339844 566.328125 388.421875 567.859375 388.46875 C 568.46875 388.484375 569.042969 388.53125 569.574219 388.601562 C 569.792969 388.734375 570.058594 388.804688 570.335938 388.765625 C 570.390625 388.757812 570.449219 388.757812 570.519531 388.753906 C 572.207031 389.101562 573.398438 389.753906 574.019531 390.683594 C 574.800781 391.847656 574.515625 393.269531 574.140625 394.25 C 573.199219 396.730469 572.101562 398.285156 569.878906 398.359375 C 569.785156 398.285156 569.675781 398.21875 569.554688 398.175781 C 569.222656 398.054688 568.878906 398.101562 568.59375 398.257812 C 568.476562 398.238281 568.355469 398.214844 568.234375 398.1875 C 567.890625 398.113281 567.535156 398.015625 567.152344 397.890625 C 562.855469 396.488281 557.148438 398.644531 553.738281 399.9375 C 552.941406 400.238281 552.253906 400.5 551.839844 400.613281 C 550.554688 400.964844 545.132812 401.4375 539.363281 401.683594 C 539.230469 401.601562 539.082031 401.539062 538.917969 401.507812 C 538.585938 401.453125 538.265625 401.546875 538.019531 401.734375 C 531.324219 401.96875 524.550781 401.855469 523.472656 400.855469 C 523.144531 400.496094 522.769531 400.222656 522.359375 400.015625 C 522.1875 399.835938 521.96875 399.707031 521.707031 399.667969 C 521.597656 399.648438 521.488281 399.648438 521.378906 399.667969 C 520.785156 399.519531 520.148438 399.46875 519.480469 399.46875 C 518.53125 399.46875 517.53125 399.574219 516.542969 399.683594 C 514.246094 399.933594 511.875 400.1875 510.574219 399.105469 C 510.441406 399 510.265625 398.792969 510.222656 398.289062 C 510.027344 396.035156 512.605469 391.832031 514.410156 389.699219 C 515.359375 388.574219 522.191406 388.707031 527.183594 388.808594 C 531.875 388.898438 536.71875 388.996094 540.320312 388.46875 Z M 513.976562 437.984375 L 512.679688 429.828125 L 516.4375 423.535156 L 513.976562 437.980469 Z M 516.0625 439.765625 C 517.3125 439.453125 522.890625 438.246094 528.160156 439.632812 C 523.695312 439.222656 520.050781 439.140625 518.742188 439.308594 C 517.863281 439.417969 516.960938 439.582031 516.050781 439.78125 L 516.050781 439.765625 Z M 550.71875 421.097656 L 556.363281 420.503906 L 540.453125 441.4375 C 538.921875 441.109375 537.34375 440.820312 535.761719 440.574219 Z M 552.183594 443.375 L 551.871094 444.25 L 551.410156 445.414062 C 551.242188 445.292969 551.0625 445.175781 550.875 445.054688 L 552.183594 443.371094 Z M 570 450.164062 L 570.425781 449.15625 C 570.515625 449.082031 570.59375 448.996094 570.660156 448.890625 L 586.816406 423.445312 L 593.792969 423.488281 C 583.164062 438.777344 568.742188 459.453125 564.996094 464.609375 C 564.820312 464.316406 564.71875 464.15625 564.707031 464.136719 C 564.652344 464.058594 564.589844 463.988281 564.523438 463.925781 C 567.019531 457.671875 568.96875 452.773438 570.003906 450.15625 Z M 606.371094 423.566406 L 612.460938 423.601562 L 574.132812 479.550781 C 572.917969 477.59375 571.769531 475.726562 570.761719 474.09375 Z M 615.300781 423.621094 L 620.953125 423.652344 L 579.113281 487.496094 C 577.921875 485.621094 576.6875 483.65625 575.488281 481.734375 L 615.304688 423.621094 Z M 643.886719 423.792969 L 648.15625 423.820312 C 648.074219 424.863281 647.957031 426.828125 647.828125 429.296875 L 602.328125 492.148438 C 602.25 492.246094 602.207031 492.359375 602.167969 492.464844 C 600.410156 492.394531 598.695312 492.324219 597.054688 492.257812 L 643.886719 423.789062 Z M 647.597656 433.617188 C 647.4375 436.804688 647.269531 440.335938 647.125 443.640625 L 610.648438 492.796875 C 608.734375 492.726562 606.8125 492.652344 604.917969 492.578125 Z M 646.945312 447.835938 C 646.789062 451.652344 646.679688 454.714844 646.679688 455.847656 C 646.679688 456.21875 646.773438 456.792969 646.9375 457.523438 L 620.574219 492.957031 C 620.523438 493.023438 620.488281 493.089844 620.453125 493.160156 C 618.21875 493.082031 615.878906 492.992188 613.5 492.90625 Z M 647.71875 460.410156 C 648.261719 462.226562 648.992188 464.425781 649.824219 466.832031 L 629.460938 493.476562 C 627.605469 493.414062 625.515625 493.34375 623.28125 493.261719 L 647.71875 460.414062 Z M 654.226562 478.90625 C 654.972656 480.875 655.703125 482.796875 656.394531 484.601562 L 648.957031 494 C 646.578125 493.953125 644.292969 493.886719 642.457031 493.832031 L 654.226562 478.910156 Z M 657.382812 487.148438 C 658.503906 490.035156 659.449219 492.445312 660.058594 493.984375 C 657.886719 494.089844 654.945312 494.09375 651.921875 494.050781 Z M 662.699219 493.730469 C 662.640625 493.746094 662.566406 493.753906 662.5 493.765625 C 656.960938 479.804688 649.035156 458.773438 649.035156 455.84375 C 649.035156 454.324219 649.214844 449.648438 649.457031 444.300781 C 649.5 444.140625 649.507812 443.976562 649.476562 443.8125 C 649.6875 439.132812 649.9375 434.003906 650.148438 430.054688 C 650.285156 429.769531 650.296875 429.449219 650.195312 429.164062 C 650.320312 426.851562 650.425781 425.03125 650.492188 424.09375 C 651.28125 424.066406 652.734375 424.234375 653.859375 424.34375 C 655.847656 424.546875 657.453125 424.695312 658.695312 424.65625 C 658.117188 430.851562 656.136719 452.628906 656.855469 455.648438 C 657.425781 458.058594 663.917969 476.566406 667.429688 486.539062 C 667.417969 486.84375 667.53125 487.125 667.71875 487.34375 C 668.628906 489.925781 669.300781 491.824219 669.554688 492.539062 C 665.652344 493.199219 663.222656 493.621094 662.699219 493.71875 Z M 671.894531 492.15625 C 671.886719 492.117188 671.878906 492.078125 671.867188 492.039062 C 671.414062 490.765625 670.917969 489.359375 670.390625 487.859375 L 691.015625 488.917969 C 683.339844 490.21875 676.773438 491.328125 671.894531 492.15625 Z M 699.71875 487.441406 C 699.460938 482.980469 697.910156 455.78125 697.910156 452.292969 C 697.910156 449.417969 701.015625 432.152344 702.792969 422.6875 C 709.222656 422.742188 715.171875 422.78125 719.585938 422.78125 C 723.527344 422.78125 726.246094 422.75 726.984375 422.671875 C 728.179688 422.550781 733.367188 421.648438 740.046875 420.445312 L 741.464844 480.367188 C 726.96875 482.828125 712.230469 485.320312 699.71875 487.4375 Z M 778.53125 418.824219 L 748.984375 418.824219 C 761.417969 416.546875 775.089844 413.988281 778.566406 413.335938 C 778.554688 415.203125 778.542969 417.035156 778.53125 418.824219 Z M 778.160156 454.859375 C 775.164062 454.726562 771.277344 454.929688 768.777344 455.09375 C 768.699219 455.09375 768.625 455.050781 768.609375 454.964844 C 764.746094 431.804688 763.960938 431.335938 763.335938 430.960938 C 763.007812 430.765625 762.011719 430.167969 742.652344 431.136719 L 742.414062 421.175781 L 778.507812 421.175781 C 778.371094 439.316406 778.1875 452.738281 778.160156 454.859375 Z M 743.808594 479.972656 L 742.710938 433.492188 C 749.71875 433.140625 759.695312 432.789062 761.957031 433.007812 C 762.65625 434.980469 764.347656 443.691406 766.292969 455.355469 C 766.507812 456.632812 767.667969 457.539062 768.941406 457.445312 C 774.621094 457.058594 779.011719 457.078125 780.6875 457.496094 C 781.292969 457.652344 782.472656 457.714844 784.003906 457.722656 L 775.703125 474.53125 C 766.070312 476.183594 755.054688 478.0625 743.808594 479.96875 Z M 786.644531 457.683594 C 787.566406 457.660156 788.554688 457.621094 789.574219 457.570312 L 781.304688 473.566406 C 780.410156 473.71875 779.496094 473.878906 778.570312 474.035156 L 786.644531 457.679688 Z M 803.792969 456.625 C 804.746094 456.546875 805.5625 456.480469 806.179688 456.425781 C 807.144531 462.796875 807.636719 467.542969 807.308594 468.953125 C 806.085938 469.222656 802.191406 469.929688 796.445312 470.9375 L 803.792969 456.621094 Z M 591.335938 297.878906 C 597.601562 288.75 615.507812 290.304688 622.246094 290.890625 C 622.773438 290.9375 623.238281 290.980469 623.628906 291.007812 C 624.328125 291.0625 625 290.835938 625.523438 290.378906 C 626.046875 289.917969 626.359375 289.277344 626.394531 288.582031 C 626.621094 284.5 627.839844 273.019531 630.023438 265.464844 C 631.828125 259.226562 645.863281 258.90625 659.441406 258.597656 C 663.679688 258.503906 668.066406 258.402344 672.015625 258.113281 C 700.726562 256.011719 719.847656 256.65625 723.175781 259.839844 C 724.761719 261.351562 726.1875 266.535156 727.566406 271.546875 C 728.984375 276.703125 730.449219 282.023438 732.433594 284.847656 C 733.371094 286.183594 734.886719 286.410156 736.117188 286.59375 C 740.585938 287.257812 745.203125 287.324219 749.671875 287.386719 C 763.078125 287.578125 774.652344 287.738281 776.730469 303.820312 C 778.707031 319.15625 778.804688 372 778.574219 410.945312 C 774.328125 411.742188 730.375 419.964844 726.738281 420.335938 C 723.777344 420.640625 683.941406 420.160156 662.132812 419.847656 C 662.316406 418.292969 662.460938 416.496094 662.113281 415.09375 L 725.910156 415.09375 L 725.984375 415.085938 C 737.304688 413.609375 763.746094 410.121094 764.792969 409.710938 L 765.53125 409.421875 L 765.539062 408.628906 C 765.570312 404.425781 765.835938 367.480469 765.527344 365.210938 C 765.355469 363.960938 765.285156 363.449219 747.039062 362.945312 C 737.871094 362.691406 725.117188 362.507812 709.125 362.394531 C 683.515625 362.210938 657.636719 362.273438 654.433594 362.28125 C 650.847656 359.996094 646.839844 357.589844 643.496094 355.878906 L 768.542969 355.679688 C 770.441406 355.679688 771.992188 354.128906 771.992188 352.222656 L 771.992188 344.71875 C 771.992188 342.796875 770.429688 341.238281 768.507812 341.238281 L 600.730469 341.238281 C 599.277344 341.238281 598.09375 342.421875 598.09375 343.871094 L 598.09375 353.617188 C 594.507812 353.59375 591.117188 353.570312 588.140625 353.542969 C 589.074219 350.773438 591.75 343.035156 594.910156 335.632812 C 600.820312 336.007812 608.816406 336.433594 615.011719 336.433594 C 619.789062 336.433594 623.492188 336.179688 624.328125 335.460938 C 626.261719 333.800781 626.84375 324.15625 627.015625 319.207031 C 627.710938 319.230469 628.417969 319.257812 629.128906 319.292969 C 628.789062 333.894531 630.933594 336.183594 644.429688 336.617188 C 646.09375 336.667969 649.640625 336.75 654.355469 336.832031 C 654.53125 336.925781 654.726562 336.976562 654.917969 336.976562 C 655.109375 336.976562 655.277344 336.933594 655.445312 336.851562 C 666.929688 337.050781 684.578125 337.273438 699.195312 337.273438 C 712.464844 337.273438 723.238281 337.089844 724.628906 336.53125 C 726.785156 335.667969 727.496094 328.066406 725.671875 287.222656 C 725.496094 283.203125 725.347656 280.023438 725.371094 279.316406 C 725.59375 269.839844 721.929688 263.671875 715.050781 261.957031 C 713.3125 261.519531 708.667969 261.398438 702.554688 261.472656 C 702.167969 261.246094 701.699219 261.261719 701.332031 261.492188 C 697.351562 261.550781 692.816406 261.691406 688.085938 261.871094 C 687.625 261.507812 686.976562 261.539062 686.558594 261.929688 C 678.59375 262.25 670.199219 262.679688 663.058594 263.085938 C 662.730469 262.949219 662.355469 262.972656 662.042969 263.144531 C 654.398438 263.585938 648.328125 263.992188 646.015625 264.175781 C 636.492188 264.9375 631.519531 266.449219 630.800781 272.589844 C 630.71875 273.277344 630.433594 280.542969 630.125 288.746094 C 630.070312 288.933594 630.0625 289.128906 630.105469 289.320312 C 629.777344 298.144531 629.429688 307.894531 629.296875 311.679688 C 628.640625 311.628906 627.914062 311.578125 627.144531 311.523438 C 628.933594 295.417969 626.289062 295.082031 625.402344 294.972656 C 625.167969 294.945312 601.59375 292.054688 594.878906 298.527344 C 588.96875 304.21875 587.90625 328.820312 587.808594 331.605469 C 587.804688 331.738281 587.824219 331.863281 587.863281 331.984375 C 586.394531 335.226562 585.085938 338.402344 584.023438 341.113281 C 584.195312 330.101562 585.285156 306.695312 591.335938 297.882812 Z M 528.585938 318.449219 C 527.808594 315.769531 524.878906 314.253906 521.171875 312.339844 C 519.417969 311.429688 517.429688 310.40625 515.480469 309.140625 C 515.0625 308.867188 514.554688 308.808594 514.066406 308.960938 C 513.164062 309.25 512.492188 310.246094 512.164062 311.082031 C 511.566406 312.605469 511.171875 313.003906 509.757812 312.71875 C 508.871094 312.546875 508.683594 312.121094 508.707031 310.351562 C 508.722656 309.375 508.742188 307.738281 507.222656 307.4375 C 506.601562 307.3125 503.855469 306.171875 501.847656 305.339844 C 499.09375 304.195312 497.371094 303.488281 496.65625 303.324219 C 496.527344 303.292969 496.1875 303.214844 496.054688 302.523438 C 495.871094 301.546875 496.285156 300.359375 496.679688 299.980469 C 497.617188 299.910156 500.796875 301.289062 502.539062 302.039062 C 504.832031 303.023438 506.289062 303.632812 507.207031 303.714844 C 508.730469 303.867188 509.269531 302.367188 509.59375 301.476562 C 510.097656 300.066406 510.339844 299.789062 511.019531 299.84375 C 512.054688 299.929688 512.464844 302.421875 512.613281 303.324219 C 512.882812 304.9375 513.910156 305.609375 514.664062 305.972656 C 517.414062 307.308594 519.449219 308.214844 521.085938 308.941406 C 523.976562 310.226562 525.570312 310.933594 527.820312 312.523438 C 529.648438 313.820312 531.902344 320.441406 532.472656 330.171875 C 532.480469 330.324219 532.519531 330.46875 532.578125 330.601562 C 532.039062 331.769531 531.527344 332.972656 531.070312 334.136719 C 530.5 327.890625 529.441406 321.394531 528.582031 318.445312 Z M 531.398438 341.066406 C 531.671875 337.839844 536.378906 326.914062 538.617188 325.074219 C 540.621094 323.425781 554.007812 322.457031 558.242188 323.65625 C 562.132812 324.761719 570.554688 331.824219 572.144531 333.730469 C 572.648438 334.332031 571.707031 336.34375 571.144531 337.542969 C 570.601562 338.707031 570.132812 339.707031 570.132812 340.5625 C 570.132812 342.097656 572.28125 343.640625 577.558594 347.058594 C 579.195312 348.117188 580.746094 349.121094 581.472656 349.734375 C 581.5 350.351562 580.761719 352.640625 578.117188 356.597656 C 577.605469 357.359375 577.101562 358.066406 576.613281 358.726562 C 576.605469 358.734375 576.597656 358.742188 576.59375 358.75 L 576.316406 359.128906 C 575.632812 360.023438 574.984375 360.8125 574.390625 361.484375 C 574.355469 361.519531 574.328125 361.550781 574.296875 361.589844 C 572.855469 363.203125 571.746094 364.113281 571.308594 364.183594 C 569.542969 364.183594 567.886719 363.65625 567.035156 363.328125 C 565.59375 345.328125 544.597656 345.503906 544.414062 345.515625 C 541.441406 345.339844 538.507812 345.949219 535.8125 347.207031 C 534.492188 346.230469 531.21875 343.296875 531.40625 341.066406 Z M 526.164062 362.835938 C 528.328125 353.941406 535.648438 347.835938 543.394531 347.835938 C 544.550781 347.835938 545.714844 347.972656 546.871094 348.253906 C 555.800781 350.433594 561.042969 360.511719 558.550781 370.730469 C 557.339844 375.703125 554.5 379.960938 550.554688 382.71875 C 549.871094 383.191406 549.175781 383.605469 548.464844 383.96875 C 545.710938 385.066406 543.699219 385.539062 543.632812 385.554688 C 543.632812 385.554688 543.632812 385.554688 543.628906 385.554688 C 541.707031 385.847656 539.757812 385.777344 537.84375 385.308594 C 528.914062 383.132812 523.675781 373.054688 526.164062 362.835938 Z M 498.714844 418.074219 L 498.578125 418.097656 C 497.996094 418.1875 497.410156 418.019531 496.960938 417.636719 C 496.519531 417.253906 496.261719 416.699219 496.261719 416.113281 L 496.261719 413.214844 C 496.261719 412.59375 496.433594 411.988281 496.757812 411.464844 L 499.632812 406.832031 C 500.34375 405.6875 500.722656 404.371094 500.722656 403.023438 L 500.722656 391.203125 C 500.722656 390.480469 500.953125 389.765625 501.371094 389.175781 L 517.359375 371.511719 L 517.433594 371.417969 C 517.804688 370.917969 518.398438 370.617188 519.070312 370.617188 L 523.335938 370.449219 C 524.109375 377.558594 528.15625 383.71875 534.1875 386.5 C 531.960938 386.535156 529.578125 386.488281 527.234375 386.441406 C 518.96875 386.28125 514.210938 386.28125 512.617188 388.167969 C 511.199219 389.84375 507.574219 394.972656 507.882812 398.480469 C 507.96875 399.488281 508.378906 400.320312 509.074219 400.898438 C 511.136719 402.621094 514.148438 402.292969 516.800781 402.007812 C 517.980469 401.878906 519.183594 401.75 520.144531 401.832031 L 517.105469 419.65625 L 498.722656 418.082031 Z M 511.355469 421.523438 L 514.730469 421.816406 L 512.101562 426.207031 Z M 489.753906 456.675781 C 489.617188 455.980469 490.980469 454.476562 491.539062 454.074219 L 492.394531 453.535156 C 496.15625 451.152344 505.003906 445.5625 513.429688 442.917969 C 513.601562 443.203125 513.886719 443.414062 514.238281 443.476562 C 514.304688 443.488281 514.371094 443.492188 514.4375 443.492188 C 515.003906 443.492188 515.496094 443.085938 515.597656 442.515625 L 515.632812 442.292969 C 516.792969 442.003906 517.933594 441.777344 519.039062 441.640625 C 520.738281 441.425781 525.714844 441.660156 531.289062 442.347656 C 531.460938 442.613281 531.742188 442.808594 532.078125 442.863281 C 532.144531 442.875 532.207031 442.878906 532.273438 442.878906 C 532.566406 442.878906 532.839844 442.769531 533.050781 442.582031 C 538.636719 443.351562 544.527344 444.578125 548.15625 446.257812 C 548.203125 446.320312 548.265625 446.375 548.328125 446.425781 C 548.519531 446.578125 548.75 446.65625 548.976562 446.667969 C 549.582031 446.996094 550.101562 447.335938 550.519531 447.695312 L 550.417969 447.957031 C 549.292969 450.804688 548.21875 453.527344 547.1875 456.132812 C 545.351562 455.542969 537.226562 453.25 527.546875 455.390625 C 527.367188 455.375 527.179688 455.390625 527.007812 455.464844 C 527 455.464844 526.882812 455.515625 526.683594 455.59375 C 524.21875 456.199219 521.664062 457.101562 519.09375 458.398438 C 518.246094 458.824219 517.417969 459.289062 516.605469 459.785156 C 515.191406 460.398438 513.835938 461 512.710938 461.527344 C 509.59375 462.996094 502.398438 460.902344 497.089844 459.238281 C 497.085938 459.234375 497.082031 459.226562 497.078125 459.21875 C 496.761719 458.785156 496.207031 458.632812 495.726562 458.808594 C 493.945312 458.25 492.402344 457.761719 491.203125 457.472656 C 490.210938 457.230469 489.808594 456.902344 489.765625 456.679688 Z M 479.3125 493.886719 C 483.285156 473.597656 493.433594 463.726562 496.136719 461.40625 C 500.667969 462.828125 505.816406 464.367188 509.816406 464.367188 C 510.066406 464.367188 510.308594 464.359375 510.550781 464.347656 C 503.917969 470.492188 498.8125 479.421875 495.320312 491.015625 C 486.761719 519.394531 495.921875 535.566406 502.140625 542.683594 C 506.308594 547.457031 511.097656 550.632812 515.71875 552.484375 C 508.75 552.132812 500.957031 550.585938 494.636719 546.328125 C 483.378906 538.742188 474.273438 519.589844 479.308594 493.882812 Z M 528.082031 551.988281 C 521.875 552.980469 511.664062 550.007812 503.910156 541.140625 C 498.011719 534.390625 489.34375 518.992188 497.570312 491.695312 C 501.867188 477.445312 508.625 467.429688 517.679688 461.875 C 521.496094 460.222656 525.765625 458.496094 527.285156 457.882812 C 536.4375 455.675781 544.382812 457.75 546.308594 458.332031 C 543.984375 464.214844 541.921875 469.464844 540.101562 474.101562 C 536.082031 472.972656 529.074219 473.804688 522.601562 477.738281 C 515.648438 481.960938 507.160156 490.914062 506.191406 509.585938 C 505.523438 522.390625 511.476562 532.066406 522.113281 535.464844 C 524.65625 536.277344 527.277344 536.667969 529.886719 536.667969 C 538.777344 536.667969 547.511719 532.140625 552.421875 524.421875 C 562.285156 508.917969 560.105469 494.042969 556.410156 484.132812 C 558.953125 477.835938 561.351562 471.855469 563.445312 466.632812 C 566.078125 471.394531 574.894531 490.046875 567.113281 514.675781 C 566.277344 517.316406 565.394531 519.761719 564.46875 522.027344 C 564.167969 522.1875 563.929688 522.472656 563.859375 522.839844 C 563.820312 523.035156 563.839844 523.222656 563.890625 523.402344 C 553.34375 547.953125 537.769531 550.449219 528.082031 551.996094 Z M 566.929688 522.230469 C 567.773438 520.097656 568.582031 517.816406 569.351562 515.378906 C 574.160156 500.164062 572.84375 487.121094 570.402344 478.003906 C 575.371094 486.050781 582.382812 497.234375 584.550781 499.796875 C 586.707031 502.351562 588.253906 516.917969 588.804688 526.492188 Z M 644.21875 509.699219 C 639.875 509.699219 628.421875 509.507812 625.9375 508.679688 C 622.664062 507.589844 589.519531 501.84375 588.105469 501.597656 C 588.027344 501.585938 587.953125 501.582031 587.878906 501.582031 C 587.425781 500.105469 586.917969 498.953125 586.347656 498.28125 C 585.71875 497.535156 584.628906 495.980469 583.28125 493.953125 C 583.785156 493.984375 584.359375 494.023438 585.007812 494.058594 C 585.222656 494.285156 585.523438 494.429688 585.859375 494.429688 C 586.097656 494.429688 586.273438 494.429688 586.585938 494.148438 C 588.605469 494.25 591.074219 494.367188 593.828125 494.484375 C 593.882812 494.535156 593.941406 494.585938 594.003906 494.632812 C 594.207031 494.769531 594.4375 494.839844 594.667969 494.839844 C 594.945312 494.839844 595.21875 494.742188 595.433594 494.554688 C 612.117188 495.253906 637.378906 496.066406 637.707031 496.066406 C 638.074219 496.066406 638.640625 496.082031 639.347656 496.097656 C 639.539062 496.214844 639.75 496.269531 639.960938 496.269531 C 640.15625 496.269531 640.339844 496.21875 640.515625 496.125 C 641.027344 496.140625 641.585938 496.15625 642.179688 496.175781 C 646.816406 496.3125 651.46875 496.433594 655.300781 496.433594 C 658.8125 496.433594 661.640625 496.332031 663.132812 496.046875 C 664.441406 495.796875 678.105469 493.488281 697.019531 490.289062 C 737.402344 483.457031 774.960938 477.089844 794.46875 473.675781 C 794.476562 473.675781 794.480469 473.675781 794.484375 473.675781 C 802.828125 472.214844 807.867188 471.292969 808.402344 471.105469 C 809.628906 470.683594 811.011719 470.203125 807.40625 449.414062 C 806.039062 441.523438 804.445312 433.628906 803.859375 430.789062 L 809.679688 430.28125 C 809.839844 431.257812 810.300781 434.097656 810.875 437.773438 C 810.628906 438.234375 810.714844 438.804688 811.097656 439.175781 C 812.324219 447.035156 813.941406 457.828125 814.429688 463.035156 C 814.46875 463.503906 814.523438 464.023438 814.578125 464.585938 C 814.9375 468.222656 815.542969 474.308594 814.753906 476.335938 C 813.269531 480.160156 810 481.339844 804.410156 482.363281 C 804.035156 482.1875 803.578125 482.214844 803.222656 482.476562 L 803.046875 482.605469 C 802.199219 482.75 801.3125 482.894531 800.371094 483.046875 L 799.207031 483.238281 L 644.214844 509.714844 Z M 842.785156 451.816406 C 842.742188 451.617188 842.65625 451.425781 842.507812 451.269531 C 842.390625 451.136719 842.242188 451.039062 842.085938 450.976562 L 850.300781 426.8125 C 850.308594 426.789062 850.3125 426.761719 850.316406 426.734375 L 856.070312 426.234375 C 853.980469 431.039062 851.003906 439.042969 846.707031 452.382812 C 845.472656 452.234375 844.144531 452.050781 842.78125 451.816406 Z M 817.496094 472.257812 C 817.460938 470.132812 817.25 467.636719 816.996094 465.03125 L 844.664062 436.09375 L 839.292969 451.878906 C 839.210938 452.121094 839.214844 452.367188 839.28125 452.59375 L 817.496094 472.25 Z M 846.441406 430.847656 C 846.402344 430.878906 846.355469 430.914062 846.320312 430.957031 L 816.695312 461.945312 C 816.519531 460.269531 816.257812 458.160156 815.941406 455.828125 L 840.746094 427.566406 L 847.761719 426.957031 L 846.4375 430.847656 Z M 815.519531 452.746094 C 815.207031 450.539062 814.867188 448.222656 814.527344 445.941406 L 829.765625 428.523438 L 837.359375 427.859375 Z M 814.0625 442.894531 C 813.820312 441.324219 813.585938 439.804688 813.367188 438.390625 L 820.582031 429.324219 L 826.382812 428.816406 Z M 812.871094 435.238281 C 812.484375 432.796875 812.183594 430.9375 812.042969 430.066406 L 817.351562 429.601562 L 812.867188 435.238281 Z M 721.554688 498.878906 C 720.496094 502.183594 717.4375 509.257812 710.394531 510.3125 C 707.957031 510.675781 705.914062 510.230469 704.339844 508.980469 C 702.039062 507.160156 701.160156 504.042969 700.84375 502.414062 L 721.554688 498.871094 Z M 734.386719 500.996094 C 729.695312 512.277344 720.863281 527.207031 698.296875 526.765625 C 679.253906 526.378906 673.742188 511.265625 672.609375 507.238281 L 698.519531 502.8125 C 698.886719 504.761719 699.945312 508.496094 702.863281 510.8125 C 704.515625 512.128906 706.503906 512.789062 708.78125 512.789062 C 709.414062 512.789062 710.066406 512.738281 710.746094 512.636719 C 720.160156 511.226562 723.386719 501.363281 724.140625 498.433594 L 736.019531 496.402344 C 735.820312 497.210938 735.378906 498.617188 734.386719 500.992188 Z M 787.015625 487.695312 L 798.855469 485.675781 L 794.003906 489.230469 C 793.976562 489.25 793.953125 489.28125 793.925781 489.300781 C 793.878906 489.289062 793.828125 489.273438 793.78125 489.257812 C 791.21875 488.492188 790.238281 488.195312 787.015625 487.699219 Z M 796.753906 490.128906 L 804 484.816406 C 810.566406 483.660156 814.972656 482.296875 816.960938 477.175781 C 817.132812 476.730469 817.257812 476.183594 817.34375 475.558594 L 841.296875 453.945312 C 841.808594 454.042969 842.382812 454.140625 842.988281 454.242188 C 842.164062 457.445312 841.460938 460.515625 840.871094 463.460938 L 807.667969 491.949219 C 807.636719 491.976562 807.605469 492.011719 807.578125 492.042969 C 805.1875 492.058594 802.855469 491.820312 800.6875 491.230469 C 799.109375 490.804688 797.828125 490.441406 796.753906 490.128906 Z M 838.957031 476.515625 L 824.90625 488.035156 C 824.660156 488.234375 824.519531 488.515625 824.480469 488.808594 C 820.621094 490.097656 816.035156 491.316406 811.4375 491.8125 L 840.1875 467.144531 C 839.621094 470.421875 839.210938 473.542969 838.957031 476.515625 Z M 833.0625 485.425781 C 832.386719 485.738281 831.464844 486.144531 830.359375 486.605469 L 838.738281 479.742188 C 838.660156 481.339844 838.636719 482.886719 838.660156 484.398438 C 837.445312 484.191406 835.578125 484.269531 833.0625 485.425781 Z M 850.738281 512.734375 C 843.230469 503.75 840.121094 492.707031 841.226562 477.691406 C 841.640625 477.285156 841.699219 476.636719 841.355469 476.164062 C 841.941406 469.738281 843.265625 462.59375 845.328125 454.59375 C 847.230469 454.851562 849.273438 455.050781 851.042969 455.050781 C 852.933594 455.050781 854.507812 454.824219 855.285156 454.203125 C 856.382812 453.324219 857.976562 449.78125 861.347656 441.902344 C 863.558594 436.734375 866.585938 429.65625 867.648438 428.773438 C 868.324219 428.238281 871.480469 427.476562 875.597656 426.714844 C 867.792969 431.945312 856.699219 444.171875 854.863281 471.804688 C 853.265625 495.828125 856.925781 512.070312 865.742188 520.085938 C 866.972656 521.207031 868.25 522.113281 869.546875 522.839844 C 861.703125 521.6875 855.40625 518.316406 850.742188 512.730469 Z M 907.15625 496.179688 C 903.042969 511.921875 895.222656 520.859375 883.921875 522.753906 C 883.625 522.746094 883.21875 522.796875 882.464844 522.882812 C 881.753906 522.96875 881.050781 523.035156 880.355469 523.089844 C 876.320312 523.164062 871.519531 522.171875 867.320312 518.347656 C 859.0625 510.839844 855.660156 495.230469 857.207031 471.960938 C 859.4375 438.414062 876.429688 427.179688 883.40625 425.441406 C 883.617188 425.515625 883.851562 425.53125 884.089844 425.472656 C 884.167969 425.453125 892.242188 423.644531 900.9375 437.859375 C 915.257812 461.261719 908.632812 490.546875 907.15625 496.179688 Z M 902.945312 436.632812 C 898.613281 429.550781 894.3125 426.105469 890.859375 424.460938 C 895.46875 423.941406 899.304688 423.6875 900.640625 423.945312 C 902.261719 424.265625 905.632812 428.425781 908.335938 431.765625 C 910.148438 434 912.007812 436.296875 913.6875 437.953125 C 910.125 438.363281 905.683594 438.882812 904.382812 439.121094 C 903.925781 438.277344 903.449219 437.449219 902.945312 436.628906 Z M 921.492188 433.105469 C 921.664062 433.300781 921.691406 433.578125 921.578125 433.808594 L 917.808594 437.328125 C 917.695312 437.433594 917.566406 437.503906 917.429688 437.542969 C 917.320312 437.554688 917.199219 437.570312 917.070312 437.585938 C 916.886719 437.570312 916.707031 437.503906 916.546875 437.382812 C 914.75 435.960938 912.417969 433.078125 910.160156 430.296875 C 906.050781 425.21875 903.386719 422.101562 901.085938 421.648438 C 898.960938 421.230469 891.296875 421.921875 883.660156 423.011719 C 883.582031 423.011719 883.5 423.011719 883.417969 423.035156 C 883.402344 423.035156 883.347656 423.050781 883.25 423.070312 C 875.335938 424.21875 867.566406 425.78125 866.140625 426.972656 C 864.746094 428.132812 862.578125 433.042969 859.179688 440.980469 C 857.253906 445.472656 854.625 451.625 853.8125 452.367188 C 853.34375 452.726562 851.5625 452.792969 849.105469 452.613281 C 853.757812 438.253906 859.359375 423.136719 861.171875 421.359375 C 865.527344 421.164062 901.324219 417.292969 904.996094 416.769531 C 906.066406 417.230469 910.171875 420.492188 912.601562 423.136719 C 916.101562 426.945312 919.675781 431.023438 921.488281 433.109375 Z M 960.59375 415.226562 L 911.871094 419.136719 C 909.511719 416.960938 906.160156 414.183594 904.8125 414.414062 C 902.917969 414.746094 863.480469 419.003906 860.902344 419.003906 C 860.410156 419.003906 859.488281 419.003906 857.1875 423.777344 C 857.164062 423.777344 857.140625 423.777344 857.109375 423.777344 L 780.785156 430.433594 C 780.8125 427.496094 780.839844 424.363281 780.867188 421.070312 L 954.054688 405.878906 L 954.191406 405.855469 C 958.226562 405.015625 960.644531 404.351562 962.15625 403.347656 L 961.953125 413.757812 C 961.953125 414.515625 961.359375 415.160156 960.597656 415.222656 Z M 960.59375 415.226562 " fill-opacity="1" fill-rule="nonzero"/><path fill="#ffc700" d="M 788.171875 451.449219 L 800.3125 451.449219 C 801.832031 451.449219 803.089844 450.214844 803.117188 448.699219 C 803.179688 445 802.820312 438.339844 799.652344 435.28125 C 798.445312 434.121094 796.972656 433.570312 795.257812 433.664062 C 788.105469 434.042969 786.234375 444.351562 785.761719 448.765625 C 785.691406 449.449219 785.910156 450.132812 786.367188 450.644531 C 786.828125 451.152344 787.488281 451.449219 788.175781 451.449219 Z M 795.378906 436.011719 C 795.457031 436.011719 795.53125 436.007812 795.613281 436.007812 C 796.558594 436.007812 797.347656 436.328125 798.019531 436.976562 C 799.835938 438.730469 800.863281 443.101562 800.765625 448.660156 C 800.765625 448.898438 800.558594 449.09375 800.3125 449.09375 L 788.171875 449.09375 L 788.097656 449.015625 C 788.417969 446.039062 789.886719 436.300781 795.378906 436.011719 Z M 795.378906 436.011719 " fill-opacity="1" fill-rule="nonzero"/><path fill="#ffc700" d="M 730.9375 335.972656 C 732.414062 336.296875 752.476562 336.492188 769.042969 336.59375 L 769.074219 336.59375 C 770.269531 336.59375 771.386719 336.125 772.226562 335.273438 C 773.074219 334.421875 773.519531 333.289062 773.5 332.085938 C 773.476562 330.789062 773.46875 329.1875 773.464844 327.382812 C 773.417969 313.519531 773.046875 299.625 769.140625 295.296875 C 763.160156 288.675781 734.707031 291.078125 734.421875 291.101562 C 731.933594 291.320312 729.980469 293.367188 729.878906 295.867188 C 729.628906 302.25 729.449219 307.609375 729.332031 312.109375 C 729.230469 312.292969 729.171875 312.5 729.179688 312.722656 C 729.183594 312.902344 729.234375 313.070312 729.308594 313.21875 C 728.773438 335.492188 729.871094 335.738281 730.941406 335.976562 Z M 770.550781 333.625 C 770.152344 334.027344 769.667969 334.253906 769.0625 334.242188 C 748.726562 334.113281 734.878906 333.917969 731.945312 333.722656 C 731.519531 331.757812 731.429688 324.539062 731.660156 313.828125 L 770.769531 312.667969 C 771.078125 317.925781 771.09375 323.398438 771.109375 327.390625 C 771.113281 329.210938 771.125 330.828125 771.148438 332.132812 C 771.160156 332.699219 770.949219 333.226562 770.554688 333.628906 Z M 734.621094 293.441406 C 743.597656 292.660156 763.414062 292.46875 767.390625 296.875 C 769.21875 298.898438 770.140625 304.285156 770.609375 310.3125 L 731.710938 311.46875 C 731.828125 306.832031 731.996094 301.621094 732.222656 295.957031 C 732.277344 294.636719 733.308594 293.558594 734.621094 293.441406 Z M 734.621094 293.441406 " fill-opacity="1" fill-rule="nonzero"/><path fill="#ffc700" d="M 793.878906 355.570312 C 793.925781 355.570312 793.976562 355.570312 794.027344 355.570312 L 839.324219 353.753906 C 841.28125 353.675781 842.8125 352.082031 842.8125 350.125 L 842.8125 332.015625 C 842.8125 331.027344 842.421875 330.105469 841.71875 329.417969 C 841.011719 328.726562 840.070312 328.347656 839.09375 328.382812 L 793.796875 329.417969 C 791.839844 329.460938 790.246094 331.089844 790.246094 333.050781 L 790.246094 351.941406 C 790.246094 352.941406 790.644531 353.871094 791.363281 354.566406 C 792.046875 355.21875 792.933594 355.578125 793.878906 355.578125 Z M 792.597656 333.039062 C 792.597656 332.347656 793.164062 331.773438 793.851562 331.757812 L 839.148438 330.722656 L 839.179688 330.722656 C 839.515625 330.722656 839.832031 330.851562 840.074219 331.089844 C 840.324219 331.332031 840.460938 331.65625 840.460938 332.003906 L 840.460938 350.117188 C 840.460938 350.808594 839.921875 351.371094 839.226562 351.398438 L 793.929688 353.210938 C 793.558594 353.230469 793.246094 353.101562 792.988281 352.855469 C 792.734375 352.609375 792.59375 352.28125 792.59375 351.929688 L 792.59375 333.039062 Z M 792.597656 333.039062 " fill-opacity="1" fill-rule="nonzero"/><path fill="#ffc700" d="M 850.507812 352.339844 C 850.582031 352.339844 850.65625 352.339844 850.730469 352.335938 L 898.457031 349.871094 C 900.644531 349.761719 902.355469 347.953125 902.355469 345.769531 L 902.355469 329.976562 C 902.355469 328.859375 901.917969 327.816406 901.117188 327.035156 C 900.316406 326.253906 899.265625 325.832031 898.144531 325.863281 L 850.421875 327.019531 C 848.171875 327.070312 846.410156 328.878906 846.410156 331.125 L 846.410156 348.230469 C 846.410156 349.367188 846.867188 350.429688 847.6875 351.210938 C 848.460938 351.945312 849.457031 352.339844 850.507812 352.339844 Z M 848.757812 331.128906 C 848.757812 330.167969 849.511719 329.394531 850.476562 329.371094 L 898.199219 328.21875 C 898.199219 328.21875 898.230469 328.21875 898.242188 328.21875 C 898.703125 328.21875 899.136719 328.394531 899.46875 328.71875 C 899.808594 329.050781 900 329.5 900 329.976562 L 900 345.769531 C 900 346.707031 899.265625 347.476562 898.332031 347.523438 L 850.605469 349.988281 C 850.125 350.015625 849.65625 349.84375 849.300781 349.507812 C 848.949219 349.171875 848.753906 348.71875 848.753906 348.234375 L 848.753906 331.128906 Z M 848.757812 331.128906 " fill-opacity="1" fill-rule="nonzero"/><path fill="#ffc700" d="M 908.714844 348.347656 C 908.785156 348.347656 908.859375 348.347656 908.929688 348.339844 L 948.273438 345.863281 C 950.101562 345.746094 951.539062 344.222656 951.539062 342.382812 L 951.539062 327.589844 C 951.539062 326.632812 951.15625 325.742188 950.46875 325.078125 C 949.777344 324.414062 948.882812 324.074219 947.910156 324.105469 L 908.570312 325.699219 C 906.691406 325.773438 905.222656 327.304688 905.222656 329.183594 L 905.222656 344.859375 C 905.222656 345.816406 905.625 346.742188 906.324219 347.398438 C 906.972656 348.003906 907.828125 348.34375 908.714844 348.34375 Z M 907.578125 329.1875 C 907.578125 328.578125 908.054688 328.082031 908.664062 328.054688 L 948.007812 326.460938 C 948.007812 326.460938 948.039062 326.460938 948.050781 326.460938 C 948.347656 326.460938 948.625 326.574219 948.835938 326.777344 C 949.058594 326.992188 949.183594 327.285156 949.183594 327.59375 L 949.183594 342.386719 C 949.183594 342.984375 948.714844 343.480469 948.121094 343.519531 L 908.78125 345.996094 C 908.453125 346.011719 908.160156 345.910156 907.933594 345.691406 C 907.703125 345.472656 907.578125 345.179688 907.578125 344.863281 Z M 907.578125 329.1875 " fill-opacity="1" fill-rule="nonzero"/><path fill="#ffc700" d="M 950.488281 353.320312 C 938.878906 352.097656 797.953125 362.019531 791.957031 362.445312 C 791.3125 362.488281 790.828125 363.046875 790.863281 363.6875 C 790.019531 371.484375 790.613281 404.988281 793.492188 408.207031 C 793.808594 408.5625 794.222656 408.757812 794.652344 408.757812 C 795.3125 408.757812 838.539062 405.699219 879.363281 402.671875 C 879.503906 402.726562 879.65625 402.761719 879.8125 402.761719 C 879.964844 402.761719 880.117188 402.734375 880.265625 402.667969 C 880.316406 402.644531 880.363281 402.617188 880.402344 402.589844 C 916.070312 399.945312 949.609375 397.339844 950.925781 396.84375 C 951.804688 396.515625 953.121094 396.023438 953.285156 380.054688 C 953.371094 371.476562 953.019531 362.230469 952.425781 357.574219 C 952.074219 354.796875 951.691406 353.453125 950.484375 353.324219 Z M 917.59375 356.832031 L 933.03125 396.222656 C 930.492188 396.429688 927.726562 396.648438 924.769531 396.882812 L 908.039062 357.261719 C 911.332031 357.074219 914.515625 356.902344 917.5625 356.734375 C 917.574219 356.765625 917.578125 356.796875 917.589844 356.824219 Z M 891.054688 399.457031 L 875.457031 359.226562 C 885.816406 358.578125 896.078125 357.953125 905.546875 357.410156 L 922.300781 397.082031 C 913.132812 397.800781 902.375 398.617188 891.054688 399.457031 Z M 880.515625 400.238281 L 863.464844 359.988281 C 866.628906 359.785156 869.816406 359.582031 872.992188 359.382812 L 888.601562 399.640625 C 885.929688 399.839844 883.230469 400.039062 880.515625 400.242188 Z M 848.253906 402.601562 L 832.082031 362.050781 C 841.046875 361.449219 850.902344 360.796875 860.996094 360.144531 C 861.007812 360.191406 861.019531 360.242188 861.035156 360.285156 L 878.039062 400.421875 C 868.011719 401.160156 857.855469 401.902344 848.253906 402.601562 Z M 837.476562 403.378906 L 820.152344 362.859375 C 823.152344 362.65625 826.324219 362.441406 829.628906 362.21875 C 829.644531 362.277344 829.65625 362.335938 829.679688 362.390625 L 845.789062 402.78125 C 842.957031 402.984375 840.183594 403.1875 837.476562 403.382812 Z M 793.125 364.722656 C 796.066406 364.515625 805.191406 363.875 817.667969 363.027344 L 834.996094 403.558594 C 814.125 405.058594 797.976562 406.191406 795.101562 406.378906 C 793.449219 402.652344 792.15625 375.457031 793.125 364.722656 Z M 949.871094 394.675781 C 948.40625 394.90625 943.179688 395.382812 935.480469 396.019531 L 920.03125 356.605469 C 934.914062 355.824219 946.113281 355.394531 949.714844 355.617188 C 951.21875 360.09375 951.355469 391.011719 949.871094 394.675781 Z M 949.871094 394.675781 " fill-opacity="1" fill-rule="nonzero"/></svg>