<svg xmlns="http://www.w3.org/2000/svg" xmlns:xlink="http://www.w3.org/1999/xlink" width="1920" zoomAndPan="magnify" viewBox="0 0 1440 809.999993" height="1080" preserveAspectRatio="xMidYMid meet" version="1.0"><path fill="#ffc700" d="M 774.425781 353.75 C 776.265625 353.710938 783.589844 350.371094 785.84375 349.457031 C 791.734375 347.070312 797.699219 344.601562 803.527344 342.066406 C 813.054688 337.921875 823.308594 332.105469 832.84375 328.527344 C 835.054688 327.699219 837.582031 327.175781 839.945312 327.449219 C 842.078125 327.695312 849.933594 330.980469 851.554688 332.347656 C 852.59375 333.222656 852.511719 334.363281 853.304688 335.308594 C 861.203125 332.78125 867.363281 327.601562 875.679688 325.972656 C 908.664062 319.5 946.160156 334.695312 948.40625 371.992188 C 950.9375 414.066406 924.558594 441.273438 890.195312 459.804688 C 866.214844 472.738281 839.753906 479.148438 820.773438 499.886719 C 809.707031 511.972656 801.625 523.503906 787.863281 533.316406 C 752.003906 558.894531 713.007812 553.152344 676.441406 532.792969 C 656.429688 521.652344 631.851562 500.867188 607.933594 502.59375 C 584.476562 504.285156 575.125 526.792969 596.683594 540.484375 C 607.621094 547.429688 618.183594 548.304688 630.445312 550.527344 C 631.773438 550.765625 632.691406 551.347656 632.527344 552.859375 C 632.226562 555.671875 627.78125 554.507812 625.753906 554.269531 C 610.683594 552.496094 586.921875 544.96875 581.335938 529.171875 C 576.765625 516.238281 586.007812 504.230469 598.082031 500.359375 C 627.417969 490.953125 657.386719 518.070312 681.730469 530.996094 C 720.449219 551.554688 759.257812 553.511719 793.484375 523.378906 C 811.445312 507.5625 819.433594 490.507812 841.726562 478.304688 C 868.21875 463.804688 895.929688 456.148438 918.722656 434.683594 C 942.445312 412.34375 956.511719 366.089844 929.035156 341.210938 C 915.171875 328.660156 886.386719 325.507812 869.453125 332.4375 C 864.070312 334.640625 858.96875 338.3125 853.160156 339.160156 L 853.460938 340.601562 C 854.300781 340.898438 855.191406 340.78125 856.035156 340.601562 C 860.152344 339.730469 867.632812 333.519531 872.210938 332.3125 C 872.929688 332.121094 873.480469 332.417969 874.054688 332.285156 C 877.222656 331.554688 882.242188 329.980469 885.382812 330.269531 C 889.507812 330.652344 901.125 335.566406 905.707031 337.25 C 910 338.828125 915.09375 340.371094 919.1875 342.179688 C 920.617188 342.8125 922.316406 343.558594 922.390625 345.355469 C 922.417969 346.074219 922.050781 346.792969 922.035156 347.558594 C 921.730469 365.136719 921.820312 382.6875 921.402344 400.234375 C 921.339844 402.832031 921.902344 410.566406 921.171875 412.382812 C 920.554688 413.921875 918.019531 414.421875 916.742188 415.246094 C 916.433594 415.445312 916.175781 415.214844 916.335938 415.953125 C 916.878906 415.933594 917.382812 416.46875 917.832031 416.53125 C 919.4375 416.746094 925.636719 412.808594 927.757812 412.460938 L 922.070312 409.898438 L 922.363281 407.386719 C 924.148438 408.257812 930.960938 410.375 931.4375 412.136719 C 931.820312 413.546875 929.613281 414.253906 928.609375 414.746094 C 926.765625 415.636719 920.914062 418.433594 919.269531 418.738281 C 916.863281 419.1875 915.867188 417.457031 913.691406 416.984375 C 859.167969 446.589844 805.21875 477.238281 750.808594 507.066406 C 749.984375 507.773438 750.21875 509.144531 749.738281 510.121094 C 749.175781 511.261719 745.296875 513.15625 743.960938 513.867188 C 741.191406 515.339844 737.277344 517.921875 734.207031 516.625 C 707.378906 497.96875 680.625 479.03125 654.289062 459.742188 C 653.789062 459.070312 653.488281 458.070312 654.113281 457.371094 C 655.105469 456.265625 662.53125 454.753906 662.953125 453.519531 L 662.988281 422.132812 C 663.152344 420.902344 664.617188 419.917969 665.542969 419.132812 L 665.542969 454.042969 C 689.988281 470.730469 714.429688 487.460938 739.160156 503.734375 C 740.207031 504.425781 742.503906 506.492188 743.324219 506.871094 C 744.515625 507.429688 746.421875 506.6875 746.515625 505.3125 C 746.582031 484.039062 746.363281 462.761719 746.480469 441.488281 C 746.511719 436.394531 747.027344 431.269531 746.601562 426.164062 C 746.484375 424.78125 745.929688 423.410156 744.886719 422.484375 C 718.96875 407.597656 692.183594 394.164062 666.335938 379.148438 L 665.535156 381.199219 L 665.535156 408.492188 C 665.507812 409.082031 663.324219 411.234375 663.007812 410.878906 L 663.328125 380.574219 C 663.632812 377.566406 665.328125 376.425781 667.921875 375.328125 C 676.976562 371.488281 688.636719 368.757812 698.175781 365.585938 C 748.742188 348.773438 799.269531 331.65625 850.03125 315.523438 L 876.015625 324.242188 L 873.878906 325.113281 L 871.804688 325.113281 C 865.34375 323.523438 857.574219 319.304688 851.273438 318.03125 C 850.597656 317.894531 849.953125 317.769531 849.269531 317.964844 C 796.945312 334.875 744.933594 352.773438 692.695312 369.941406 C 684.640625 372.589844 676.496094 375.027344 668.40625 377.554688 C 669.433594 378.65625 671.007812 379.402344 672.320312 380.144531 C 695.367188 393.230469 719.351562 404.824219 742.265625 418.117188 C 744.25 419.265625 746.230469 420.421875 747.90625 421.988281 C 771.4375 411.628906 794.621094 400.503906 818.023438 389.875 C 849.625 375.519531 881.285156 361.261719 912.941406 347.035156 C 914.722656 346.234375 916.671875 345.371094 918.554688 344.863281 L 918.109375 344.203125 L 884.988281 332.570312 C 883.761719 332.382812 876.667969 333.375 875.699219 333.917969 C 875.554688 334 875.300781 334.28125 875.382812 334.390625 L 898.582031 343.414062 C 899.339844 344.390625 898.597656 345.230469 897.71875 345.773438 C 847.632812 366.921875 797.980469 389.070312 747.925781 410.261719 L 746.269531 409.992188 C 726.414062 398.886719 706.355469 388.132812 686.0625 377.839844 C 685.421875 377.492188 685.433594 376.664062 685.605469 376.019531 L 700.476562 371.339844 L 760.820312 402.480469 L 765.546875 400.71875 L 765.023438 400.140625 L 708.085938 370.742188 C 706.820312 370.003906 705.484375 369.667969 707.597656 368.65625 C 709.949219 367.535156 717.675781 364.8125 720.140625 364.363281 C 720.703125 364.265625 721.191406 364.089844 721.753906 364.363281 L 746.1875 376.757812 C 746.742188 377.191406 746.625 379.023438 746.015625 379.144531 L 720.863281 366.820312 L 712.347656 369.597656 L 711.902344 370.257812 C 731.101562 379.183594 749.46875 389.816406 768.511719 399.066406 C 771.222656 397.667969 774.488281 396.714844 777.164062 395.359375 C 777.5 395.1875 777.761719 395.519531 777.613281 394.699219 L 762.691406 388.027344 C 763.410156 387.050781 764.953125 386.210938 766.179688 386.589844 L 780.390625 393.367188 C 781.949219 393.671875 783.957031 391.972656 785.550781 391.683594 L 766.195312 382.472656 C 765.511719 381.898438 765.828125 380.667969 766.507812 380.234375 L 787.699219 390.195312 C 788.472656 390.382812 793.984375 388.058594 795.070312 387.539062 C 795.441406 387.359375 795.847656 387.589844 795.710938 386.925781 L 768.445312 373.871094 C 766.660156 372.832031 767.761719 371.753906 769.394531 371.6875 L 799.039062 385.679688 L 803.007812 384.21875 L 802.683594 383.757812 L 773.808594 369.9375 C 773.980469 369.546875 775.382812 368.886719 775.707031 368.808594 C 776.054688 368.722656 776.371094 368.605469 776.738281 368.730469 L 806.078125 382.566406 L 814.441406 379.144531 L 784.976562 365.308594 L 785.074219 364.542969 C 780.167969 366.535156 774.882812 368.296875 770.101562 370.523438 C 768.242188 371.386719 765.640625 372.433594 764.761719 374.386719 C 763.441406 377.292969 766.65625 384.5 763.558594 386.195312 C 762.433594 386.808594 759.730469 387.582031 758.488281 387.332031 L 747.980469 382.039062 C 747.230469 380.820312 747.808594 379.496094 747.808594 378.351562 C 747.808594 374.332031 747.164062 370.761719 749.203125 367.082031 C 753.796875 358.78125 766.957031 358.074219 774.449219 353.765625 C 773.96875 353.777344 773.648438 353.742188 773.183594 353.613281 C 772.445312 353.410156 765.757812 350.210938 765.246094 349.792969 C 764.871094 349.480469 764.847656 349.484375 765.238281 349.160156 L 777.789062 344.867188 L 784.574219 347.773438 C 785.242188 348.816406 782.726562 349.367188 781.925781 349.3125 C 780.636719 349.226562 778.476562 347.445312 777.199219 347.511719 C 775.515625 347.601562 772.519531 349.449219 770.640625 349.644531 L 776.351562 352.5 L 774.449219 353.765625 Z M 844.578125 331.539062 C 841.996094 331.097656 839.53125 329.683594 836.835938 329.984375 C 826.503906 333.550781 816.734375 338.902344 806.703125 343.335938 C 797.429688 347.4375 787.984375 351.476562 778.546875 355.179688 C 772.082031 357.714844 756.050781 362.050781 752.210938 366.933594 C 748.964844 371.058594 749.632812 375.402344 749.71875 380.359375 L 757.910156 384.21875 C 758.546875 383.765625 758.089844 376.296875 758.234375 374.863281 C 758.609375 371.152344 761.609375 368.277344 764.414062 366.125 C 787.140625 357.503906 809.179688 347.382812 831.347656 337.515625 C 835.253906 335.777344 840.1875 334.21875 843.84375 332.238281 C 844.140625 332.082031 844.542969 331.925781 844.574219 331.546875 Z M 849.664062 347.085938 C 850.097656 347.171875 850.425781 346.980469 850.558594 346.558594 C 850.832031 345.683594 850.738281 339.320312 850.625 338.03125 C 850.425781 335.714844 849.664062 333.597656 846.960938 333.730469 C 831.726562 339.472656 817.046875 346.855469 802.035156 353.261719 C 790.753906 358.074219 777.902344 362.242188 767.011719 367.441406 C 764.203125 368.78125 760.140625 372.824219 760.140625 376.121094 L 760.140625 384.210938 L 762.058594 383.683594 C 762.203125 377.785156 760.609375 372.65625 766.582031 369.230469 C 793.175781 358.511719 819.507812 347.203125 845.523438 335.171875 C 847.222656 334.292969 849.660156 336.003906 849.660156 337.71875 L 849.660156 347.078125 Z M 894.738281 344.234375 L 871.328125 335.398438 L 865.851562 337.890625 L 888.628906 346.71875 C 889.871094 346.933594 893.613281 345.113281 894.738281 344.238281 Z M 847.4375 347.722656 L 847.4375 338.363281 C 847.4375 338.050781 846.578125 337.542969 846.085938 337.609375 C 845.707031 337.664062 839.433594 340.609375 839.179688 340.894531 L 839.054688 344.902344 L 847.433594 347.722656 Z M 885.847656 348.042969 L 863.757812 339.792969 C 861.789062 339.558594 858.289062 342.589844 856.644531 343.75 L 877.171875 352.085938 L 885.847656 348.039062 Z M 836.644531 342.328125 L 821.089844 349.308594 C 822.425781 349.234375 823.730469 349.871094 824.980469 350.339844 C 834.539062 353.949219 843.882812 358.210938 853.398438 361.949219 L 857.914062 360.105469 C 850.609375 357.355469 843.5625 353.972656 836.328125 351.058594 C 834 350.121094 830.785156 349.390625 828.695312 348.210938 C 828.351562 348.015625 827.652344 347.785156 827.761719 347.253906 C 829.246094 345.183594 831.613281 346.777344 833.550781 347.480469 C 842.835938 350.863281 851.773438 355.199219 860.960938 358.820312 L 866.167969 356.765625 C 865.847656 356.082031 854.804688 352.222656 853.039062 351.164062 C 852.832031 351.039062 852.078125 350.441406 852.203125 350.261719 C 854.21875 349.003906 854.664062 349.308594 856.730469 350.011719 C 860.96875 351.460938 865.082031 353.628906 869.253906 355.273438 L 874.105469 353.742188 L 854.746094 345.652344 C 853.609375 344.714844 855.515625 343.382812 855.378906 343.273438 L 853.636719 342.949219 C 853.152344 344.574219 854.003906 346.878906 852.742188 348.253906 C 852.148438 348.902344 849.097656 350.5 848.199219 350.5625 C 846.894531 350.652344 841.273438 348.1875 839.445312 347.617188 C 838.058594 347.1875 836.964844 347.871094 836.671875 345.945312 C 836.496094 344.808594 836.75 343.488281 836.648438 342.320312 Z M 748.714844 445.78125 C 771.367188 434.683594 793.867188 423.257812 816.53125 412.183594 C 848.390625 396.621094 880.726562 381.964844 912.523438 366.289062 C 914.320312 365.40625 918.117188 363.847656 919.5 362.773438 C 919.878906 362.480469 920.136719 361.972656 920.136719 361.523438 L 920.136719 346.132812 L 748.671875 424.355469 C 748.34375 424.738281 748.71875 424.890625 748.71875 424.996094 L 748.71875 445.785156 Z M 820.457031 349.628906 L 804.671875 356.214844 L 804.265625 356.921875 C 805.605469 356.914062 806.851562 357.546875 808.066406 358.046875 C 817.308594 361.820312 826.386719 366.007812 835.558594 369.933594 L 839.816406 368.035156 L 809.984375 354.863281 C 810.949219 353.851562 812.125 353.078125 813.460938 353.917969 L 842.28125 366.710938 L 850.292969 363.585938 L 819.820312 350.886719 Z M 801.671875 357.609375 L 786.804688 363.589844 L 817.453125 377.542969 L 822.039062 375.957031 L 800.984375 366.066406 L 792.835938 362.945312 C 793.859375 360.125 795.40625 361.128906 797.496094 361.941406 C 806.804688 365.5625 815.539062 370.679688 824.886719 374.25 L 832.199219 371.515625 C 832.167969 371.066406 831.714844 371.023438 831.414062 370.871094 C 822.125 366.078125 811.425781 362.871094 802.113281 358.28125 C 801.714844 358.085938 801.707031 357.617188 801.667969 357.601562 Z M 748.714844 448.320312 L 748.714844 461.648438 L 754.050781 450.953125 C 754.742188 449.320312 756.832031 448.910156 756.191406 451.183594 L 750.285156 463.21875 L 748.398438 462.601562 C 748.867188 464.535156 748.835938 466.566406 748.449219 468.527344 C 748.363281 468.953125 748.386719 469.089844 748.867188 468.941406 L 919.3125 381.960938 C 920.292969 381.199219 919.652344 379.339844 919.816406 378.1875 L 918.066406 379.453125 L 917.273438 378.664062 C 918.292969 376.5625 920.140625 374.703125 919.816406 372.152344 L 914.4375 381.527344 L 913.152344 381.988281 C 913.152344 381.726562 913.125 381.457031 913.144531 381.191406 C 913.238281 379.945312 916.390625 374.398438 917.222656 372.886719 C 918.828125 369.980469 920.324219 369.433594 919.816406 365.640625 C 919.757812 365.199219 919.992188 365.089844 919.34375 365.175781 L 748.710938 448.316406 Z M 757.601562 403.578125 L 700.464844 374.207031 L 699.117188 374.128906 L 690.304688 377.082031 L 747.683594 407.96875 L 757.605469 403.582031 Z M 748.394531 474.972656 L 919.335938 386.121094 L 919.492188 384.21875 L 749.441406 471.109375 C 747.59375 471.84375 749.320312 473.597656 748.390625 474.976562 Z M 748.714844 480.691406 L 919.449219 390.355469 L 919.492188 388.664062 L 749.21875 477.234375 C 748.25 477.984375 748.867188 479.585938 748.714844 480.691406 Z M 748.714844 505.441406 C 749.550781 504.871094 750.585938 504.667969 751.46875 504.230469 C 762.726562 498.601562 774.355469 491.65625 785.433594 485.503906 C 829.800781 460.867188 873.859375 435.636719 918.675781 411.789062 C 918.976562 411.585938 919.5 410.644531 919.5 410.394531 L 919.5 393.101562 L 748.714844 482.910156 Z M 745.855469 509.570312 L 743.863281 509.496094 C 721.5625 495.007812 699.40625 480.152344 677.375 465.207031 C 674.097656 462.984375 668.488281 458.140625 665.242188 456.714844 C 664.605469 456.433594 664.359375 456.167969 663.5625 456.300781 C 661.617188 456.625 658.832031 458.570312 656.65625 458.792969 C 656.496094 459.53125 656.75 459.296875 657.0625 459.496094 C 665.808594 465.109375 673.9375 471.324219 682.390625 477.332031 C 699.832031 489.730469 717.519531 501.796875 734.824219 514.398438 C 735.148438 514.570312 735.5 514.648438 735.863281 514.664062 C 737.632812 514.734375 744.191406 510.867188 745.855469 509.570312 Z M 745.855469 509.570312 " fill-opacity="1" fill-rule="nonzero"/><path fill="#ffc700" d="M 689.667969 358.828125 L 687.417969 357.09375 L 687.597656 317.261719 C 686.878906 316.425781 686.148438 315.742188 685.128906 315.289062 C 681.957031 313.890625 677.988281 312.800781 674.664062 311.472656 C 649.769531 301.535156 624.886719 291.257812 599.632812 282.386719 L 596.972656 282.347656 C 596.808594 283.113281 597.824219 283.332031 598.347656 283.667969 C 600.023438 284.742188 601.925781 285.3125 603.597656 286.355469 C 603.6875 288.710938 604.570312 291.011719 602.273438 292.566406 C 597.28125 295.9375 593.847656 292.929688 589.347656 291.082031 C 586.390625 289.871094 581.8125 289.613281 581.40625 285.851562 L 540.46875 302.191406 L 540.148438 303.292969 C 542.160156 303.617188 552.726562 308.089844 553.324219 309.328125 C 553.871094 310.457031 553.65625 314.023438 552.640625 314.992188 C 548.378906 319.070312 542.859375 314.972656 538.773438 313.082031 C 536.949219 312.238281 532.746094 311.496094 532.277344 309.421875 C 532.15625 308.894531 531.949219 304.738281 532.027344 304.234375 C 532.277344 302.65625 533.566406 302.898438 533.75 302.621094 C 533.976562 302.269531 533.648438 300.113281 534.089844 298.996094 C 534.933594 296.859375 538.71875 295.640625 540.699219 294.8125 C 553.585938 289.425781 566.988281 285.191406 579.824219 279.660156 C 580.777344 279.546875 582.113281 278.828125 583.023438 279 C 584.191406 279.21875 583.824219 281.6875 585.539062 281.410156 C 586.296875 282.175781 581.925781 284.78125 584.796875 286.75 C 588.355469 287.46875 595.457031 292.617188 598.6875 292.175781 C 599.667969 292.046875 600.949219 291.171875 601.414062 290.289062 C 598.933594 291.496094 596.691406 291.597656 594.4375 289.796875 C 593.433594 288.996094 594.214844 288.691406 593.957031 288.074219 C 593.5625 287.132812 591.617188 286.660156 591.871094 285.058594 C 592.238281 282.738281 596.613281 286.3125 597.757812 286.480469 C 599.183594 286.6875 597.328125 285.324219 596.9375 285.074219 C 595.433594 284.117188 592.082031 282.6875 590.371094 282.410156 C 588.167969 282.050781 586.917969 284.09375 586.171875 280.132812 L 589.976562 281.558594 C 588.09375 280.238281 584.871094 277.542969 582.535156 277.582031 C 579.734375 277.625 572.539062 281.136719 569.421875 282.269531 C 551.367188 288.839844 533.6875 296.007812 515.777344 302.902344 C 507.589844 306.058594 499.167969 308.691406 491.015625 311.945312 C 490.015625 313.007812 490.914062 317.96875 490.9375 319.625 C 491.027344 325.367188 491.007812 331.050781 491.261719 336.765625 C 491.324219 338.210938 490.917969 342.605469 491.539062 343.464844 C 505.238281 349.953125 518.804688 356.804688 532.398438 363.546875 C 536.660156 365.660156 541.078125 367.539062 545.332031 369.660156 C 560.660156 377.292969 575.671875 385.621094 591.242188 392.785156 L 591.242188 357.878906 L 494.539062 315.089844 C 493.339844 314.316406 490.988281 314.074219 491.976562 312.253906 C 492.648438 311.453125 495.042969 312.707031 495.921875 313.074219 C 499.195312 314.4375 502.390625 316.203125 505.652344 317.628906 C 534.511719 330.261719 563.417969 342.804688 592.054688 355.949219 C 616.746094 345.523438 641.011719 334.105469 665.648438 323.546875 C 670.855469 321.3125 677.140625 318.210938 682.375 316.46875 C 683.515625 316.089844 684.777344 315.550781 685.863281 316.46875 C 686.3125 316.847656 686.164062 316.734375 685.871094 317.105469 L 593.476562 357.710938 L 593.488281 393.101562 L 640.96875 371.542969 C 641.484375 371.171875 641.386719 370.644531 641.441406 370.113281 C 641.972656 364.808594 640.78125 358.730469 641.09375 353.578125 C 641.183594 352.085938 641.496094 350.09375 642.519531 348.976562 C 644.121094 347.234375 651.925781 344.097656 654.539062 342.90625 C 660 340.421875 668.351562 336.195312 673.808594 334.5625 C 675.738281 333.980469 677.273438 333.675781 678.894531 335.175781 C 679.496094 335.730469 679.863281 336.851562 680.234375 337.164062 C 681.238281 338 682.511719 337.386719 682.933594 339.707031 C 683.660156 343.757812 682.546875 349.371094 683.007812 353.59375 C 682.777344 354.804688 681.414062 354.773438 680.464844 354.382812 C 680.457031 354.167969 680.78125 353.988281 680.78125 353.910156 L 680.78125 341.214844 C 680.78125 341.023438 679.773438 339.738281 679.5 339.621094 L 678.308594 339.679688 L 647.851562 352.699219 C 647.566406 352.785156 647.132812 353.390625 647.132812 353.59375 L 647.132812 383.265625 C 647.617188 383.3125 648.058594 383.597656 648.5625 383.589844 C 650.257812 383.5625 654.910156 380.855469 656.757812 380.03125 C 657.464844 379.722656 662.765625 377.316406 663.003906 377.550781 C 662.828125 378.679688 662.460938 379.675781 661.527344 380.355469 C 659.984375 381.488281 652.707031 384.574219 650.617188 385.316406 C 649.621094 385.675781 647.765625 386.394531 646.820312 385.957031 C 646.371094 385.75 645.769531 384.78125 645.207031 384.390625 C 644.398438 383.824219 641.417969 382.402344 641.417969 381.195312 L 641.417969 374.054688 L 593.539062 396 L 593.492188 426.898438 C 592.796875 429.78125 591.496094 429.539062 591.253906 426.585938 C 590.449219 416.9375 591.863281 406.175781 591.28125 396.410156 L 590.949219 395.472656 L 491.261719 346.136719 L 491.5625 371.378906 L 492.507812 374.246094 C 512.148438 385.082031 531.878906 395.765625 551.46875 406.699219 C 563.511719 413.417969 575.671875 421.175781 587.867188 427.4375 C 589.289062 428.167969 591.738281 429.613281 593.289062 429.574219 C 595.164062 429.523438 602.875 425.375 605.121094 424.265625 C 613.984375 419.894531 623.210938 415.125 631.898438 410.414062 C 642.191406 404.828125 652.066406 398.429688 662.679688 393.429688 L 662.054688 396.449219 C 640.117188 408.058594 618.71875 420.648438 596.230469 431.25 C 594.605469 432.046875 592.683594 431.957031 590.929688 431.679688 C 576.265625 423.703125 561.914062 415.164062 547.339844 407.023438 C 529.738281 397.183594 510.273438 387.769531 493.265625 377.300781 C 490.453125 375.566406 489.738281 375.222656 489.394531 371.652344 C 487.570312 352.730469 489.757812 331.804688 488.707031 312.648438 C 488.578125 311.089844 489.71875 310.40625 490.941406 309.808594 C 498.71875 306.023438 509.363281 302.972656 517.6875 299.734375 C 537.863281 291.871094 558.082031 283.300781 578.472656 276.085938 C 582.605469 274.621094 583.332031 274.863281 587.136719 276.796875 C 588.550781 277.519531 591.972656 280.136719 593.070312 280.386719 C 595.195312 280.867188 598.261719 279.863281 600.859375 280.21875 C 603.835938 280.625 608.964844 282.882812 611.96875 284.023438 C 637.054688 293.542969 661.761719 304.101562 686.882812 313.542969 C 687.738281 313.765625 689.667969 315.742188 689.667969 316.472656 L 689.667969 358.839844 Z M 582.050781 283.296875 C 582.445312 282.785156 580.589844 281.144531 579.816406 281.847656 C 568.988281 286.28125 557.90625 290.128906 547.050781 294.488281 C 545.253906 295.210938 537.3125 298.191406 536.511719 299.191406 C 535.351562 300.636719 536.414062 303.503906 536.652344 305.199219 C 534.570312 304.75 532.980469 305.886719 533.964844 308.050781 C 534.550781 309.347656 539.128906 310.589844 540.578125 311.277344 C 543.453125 312.628906 545.488281 314.734375 548.894531 314.417969 C 550.097656 314.304688 551.359375 313.875 551.574219 312.5 C 550.839844 312.535156 550.453125 313.125 549.695312 313.3125 C 547.847656 313.769531 546.574219 313.140625 544.925781 312.46875 C 546.121094 310.542969 540.6875 308.980469 542.027344 307.246094 C 543.050781 305.925781 545.046875 308.988281 546.410156 309.273438 C 546.917969 309.375 548.261719 309.371094 548.398438 308.695312 C 546.394531 307.273438 539.957031 306.167969 538.457031 304.90625 C 538.230469 304.710938 537.652344 302.863281 537.6875 302.546875 C 537.777344 301.605469 539.25 300.589844 540.03125 300.160156 C 542.738281 298.679688 546.445312 297.386719 549.367188 296.164062 C 560.160156 291.660156 571.132812 287.484375 582.054688 283.296875 Z M 601.734375 287.429688 L 596.65625 288.691406 C 598.417969 289.449219 600.410156 288.703125 601.734375 287.429688 Z M 645.59375 351.582031 L 677.597656 337.726562 C 676.726562 336.75 675.28125 336.761719 674.105469 337.089844 C 665.644531 340.808594 656.808594 343.921875 648.503906 347.984375 C 645.71875 349.34375 643.625 349.714844 643.308594 353.261719 C 642.574219 361.550781 643.886719 370.898438 643.3125 379.300781 C 643.3125 380.476562 644.183594 381.308594 645.21875 381.675781 L 645.59375 351.578125 Z M 645.59375 351.582031 " fill-opacity="1" fill-rule="nonzero"/><path fill="#ffc700" d="M 603.710938 469.019531 C 603.183594 472.707031 602.421875 476.949219 600.402344 480.148438 C 598.785156 482.707031 594.902344 484.472656 592.21875 485.933594 C 585.539062 489.566406 577.367188 492.597656 571.050781 496.503906 C 568.191406 498.265625 568.894531 499.855469 567.25 501.269531 C 564.523438 503.613281 555.699219 507.53125 552.003906 509.515625 C 545.257812 513.132812 538.421875 518.492188 530.523438 513.757812 C 526.304688 515.691406 522.285156 518.109375 518.046875 519.996094 C 515.792969 521 512.597656 522.640625 510.148438 522.601562 C 507.601562 522.566406 507.257812 522.550781 504.730469 522.871094 C 502.679688 523.128906 499.746094 521.59375 499.265625 519.5 C 499.070312 518.652344 499.34375 517.863281 498.960938 516.945312 C 498.695312 516.3125 496.582031 514.113281 495.894531 513.03125 C 491.734375 506.488281 487.929688 491.863281 493.796875 485.601562 C 499.59375 481.28125 507.222656 479.328125 513.761719 476.203125 C 513.8125 473.859375 515.003906 471.042969 516.402344 469.160156 C 519.59375 464.859375 528.273438 462.527344 533.160156 460.527344 C 539.03125 458.121094 544.820312 454.445312 551.355469 454.914062 C 561.761719 451.269531 578.65625 440.464844 589.671875 444.675781 C 597.945312 447.839844 603.121094 457.546875 603.488281 466.089844 C 606.175781 463 604.996094 456.648438 602.695312 453.554688 C 600.898438 451.144531 597.503906 450.242188 596.03125 447.371094 L 624.035156 437.121094 C 625.769531 436.65625 626.78125 436.335938 628.394531 437.382812 C 629.085938 437.832031 629.445312 438.917969 630.386719 438.746094 C 636.746094 436.167969 642.90625 431.707031 648.242188 427.367188 C 654.453125 422.308594 661.285156 415.773438 666.167969 409.429688 C 667.371094 407.863281 672.820312 399.144531 673.707031 398.875 C 676.195312 398.125 677.035156 400.925781 676.503906 402.949219 C 675.933594 405.148438 671.878906 410.320312 670.296875 412.292969 C 666.902344 416.519531 662.542969 420.980469 658.5625 424.679688 C 650.789062 431.921875 642.132812 438.375 632.664062 443.242188 C 633.074219 445.761719 634.136719 447.164062 632.796875 449.695312 C 631.085938 452.929688 615.085938 462.628906 611.042969 465.078125 C 608.6875 466.507812 606.203125 467.820312 603.714844 469.019531 Z M 629.039062 449.589844 C 633.007812 446.753906 628.621094 438.445312 623.957031 439.753906 C 624.777344 440.773438 626.269531 441.511719 627.125 442.453125 C 628.835938 444.328125 629.207031 447.152344 629.035156 449.589844 Z M 625.226562 452.445312 C 626.5 452.394531 627.046875 450.445312 627.132812 449.425781 C 627.375 446.554688 624.816406 441.25 621.589844 441.324219 C 620.847656 441.339844 620.019531 441.820312 619.191406 441.65625 C 620.113281 442.554688 621.351562 442.78125 622.375 443.710938 C 624.660156 445.785156 625.421875 449.460938 625.226562 452.445312 Z M 622.261719 454.566406 C 623.765625 452.851562 623.015625 448.378906 621.808594 446.496094 C 620.09375 443.828125 617.820312 442.914062 614.75 443.566406 L 617.445312 445.148438 C 619.976562 447.089844 621.808594 452.277344 620.78125 455.296875 C 620.996094 455.476562 622.09375 454.761719 622.265625 454.566406 Z M 616.339844 458.476562 C 617.386719 457.824219 618.640625 457.125 618.855469 455.761719 C 619.609375 450.996094 616.605469 443.441406 610.625 445.472656 L 613.335938 447.359375 C 615.90625 450.417969 617.386719 454.464844 616.34375 458.480469 Z M 570.308594 494.019531 C 579.253906 489.730469 588.410156 485.628906 596.820312 480.382812 C 602.976562 473.066406 601.734375 460.238281 595.863281 453.078125 C 587.851562 443.3125 579.601562 446.257812 569.273438 449.988281 C 564.488281 451.71875 559.878906 453.960938 555.066406 455.621094 C 556.71875 456.957031 558.625 457.710938 560.296875 459.121094 C 563.207031 461.574219 565.273438 464.996094 567 468.339844 C 573.191406 465.417969 579.5 462.699219 585.65625 459.699219 C 586.992188 459.050781 591.652344 456.054688 592.613281 456.300781 C 592.898438 456.378906 593.140625 456.648438 593.324219 456.878906 C 593.394531 457.742188 592.949219 458.265625 592.320312 458.75 C 589.09375 461.21875 580.636719 464.125 576.53125 466.132812 C 573.851562 467.441406 571.261719 468.960938 568.550781 470.214844 C 568.078125 470.988281 569.878906 475.816406 570.15625 477.1875 C 571.25 482.597656 571.289062 488.609375 570.308594 494.019531 Z M 611.894531 461.015625 C 616.222656 459.535156 614.375 451.425781 612.058594 448.945312 C 610.6875 447.46875 607.125 445.195312 605.542969 447.371094 C 611.226562 449.273438 612.082031 455.78125 611.894531 461.019531 Z M 607.132812 463.550781 C 608.695312 463.449219 609.453125 461.878906 609.640625 460.507812 C 610.457031 454.527344 607.039062 447.417969 600.144531 448.324219 C 601.414062 449.992188 603.464844 450.761719 604.722656 452.46875 C 605.484375 453.496094 607.125 457.152344 607.125 458.320312 L 607.125 463.554688 Z M 550.332031 477.175781 L 565.074219 470.546875 C 563.054688 464.140625 556.265625 457.238281 549.199219 457.179688 C 544.929688 457.140625 538.988281 461.289062 534.753906 462.28125 L 539.804688 464.683594 C 544.386719 467.746094 548.117188 472.097656 550.332031 477.171875 Z M 546.5 510.199219 C 550.441406 509.273438 551.847656 504.964844 552.449219 501.394531 C 554.53125 489.082031 547.15625 468 533.746094 464.722656 C 531.359375 464.136719 529.828125 464.003906 527.453125 464.828125 L 532.949219 467.425781 C 544.707031 474.328125 552.515625 493.691406 548.234375 506.703125 C 547.828125 507.9375 547.261719 509.144531 546.5 510.203125 Z M 533.167969 512.738281 C 541.449219 515.246094 545.816406 510.8125 547.046875 502.976562 C 548.769531 492 543.449219 478.816406 535.078125 471.640625 C 528.085938 465.65625 519.382812 464.753906 516.34375 474.972656 C 516.511719 475.113281 520.105469 473.429688 520.445312 473.207031 C 522.066406 472.148438 521.550781 470.679688 524.34375 469.804688 C 527.738281 468.738281 530.128906 470.035156 532.824219 471.992188 C 539.652344 476.949219 544.515625 484.90625 545.777344 493.3125 C 546.636719 499.046875 546.320312 509.449219 538.964844 510.765625 C 536.839844 511.144531 534.785156 510.601562 533.167969 512.738281 Z M 567.453125 476.878906 L 566.023438 472.757812 L 551.652344 479.566406 C 552.132812 480.605469 552.421875 481.730469 552.824219 482.789062 C 552.945312 483.113281 552.652344 483.359375 553.296875 483.203125 L 567.457031 476.878906 Z M 517.613281 517.503906 L 539.175781 506.851562 C 545.589844 501.933594 542.613281 489.976562 539.25 483.96875 C 536.898438 479.765625 531.632812 473.589844 526.507812 473.210938 C 523.339844 472.976562 513.507812 479.839844 509.671875 480.375 C 509.476562 481.550781 510.269531 480.609375 510.953125 480.824219 C 511.757812 481.078125 516.144531 483.707031 515.070312 484.816406 L 513.183594 484.503906 L 512.480469 486.347656 C 508.769531 486.882812 506.746094 482.300781 502.691406 483.230469 L 507.875 485.820312 C 516.644531 493.394531 521.496094 506.1875 517.613281 517.5 Z M 554.4375 488.625 L 568.089844 482.445312 C 568.820312 481.742188 568.035156 480.023438 567.929688 479.097656 L 553.8125 485.152344 Z M 568.71875 484.816406 L 555.105469 490.878906 L 555.070312 494.015625 L 568.667969 487.617188 L 568.71875 484.8125 Z M 514.011719 518.980469 C 516.386719 516.597656 516.890625 510.679688 516.671875 507.492188 C 516.128906 499.632812 508.792969 484.527344 499.394531 485.484375 C 491.742188 486.257812 492.738281 496.917969 493.960938 502.265625 C 494.695312 505.484375 496.261719 509.71875 497.988281 512.523438 C 498.566406 513.46875 501.121094 516.179688 501.273438 516.550781 C 501.75 517.707031 500.054688 518.367188 502.542969 520.339844 C 505.03125 522.316406 504.269531 520.148438 505.449219 519.753906 C 507.242188 519.152344 511.164062 521.828125 514.011719 518.976562 Z M 568.71875 490.214844 L 555.894531 496.269531 L 555.066406 499.414062 C 556.710938 498.722656 558.449219 498.039062 560.042969 497.25 C 561.734375 496.414062 566.703125 494.0625 567.863281 493.089844 C 568.304688 492.71875 568.484375 490.871094 568.714844 490.214844 Z M 567.449219 496.242188 L 554.957031 501.921875 L 553.796875 505.757812 L 565.53125 499.878906 Z M 567.449219 496.242188 " fill-opacity="1" fill-rule="nonzero"/><path fill="#ffc700" d="M 691.46875 414.582031 C 691.339844 414.777344 690.753906 414.882812 690.625 415.160156 C 690.488281 415.457031 690.503906 416.167969 691.089844 415.949219 C 692.054688 415.582031 693.351562 414.238281 694.890625 413.71875 C 704.488281 410.480469 716.34375 420.375 720.140625 428.644531 C 720.769531 428.363281 720.058594 427.09375 720.140625 426.300781 C 720.355469 424.265625 722.898438 423.160156 724.742188 423.226562 C 730.933594 423.433594 730.441406 436.84375 722.679688 432.136719 C 724.53125 437.167969 726.433594 441.976562 727.339844 447.3125 C 728.933594 456.6875 728.394531 468.855469 721.097656 475.773438 C 720.820312 476.417969 722.808594 476.304688 723.492188 476.546875 C 728.234375 478.222656 728.125 487.722656 722.597656 486.652344 C 719.9375 486.136719 718.351562 483.351562 718.257812 480.800781 C 718.21875 479.695312 718.636719 479.253906 718.925781 478.355469 C 719.496094 476.609375 716.816406 478.472656 716.085938 478.695312 C 704.886719 482.144531 695.371094 471.277344 690.457031 462.605469 C 688.609375 466.359375 683.257812 464.886719 682.710938 461.144531 C 682.109375 457.007812 683.925781 455.957031 687.761719 456.886719 C 684.117188 447.578125 682.210938 437.605469 684.046875 427.628906 C 684.46875 425.355469 685.339844 422.582031 686.550781 420.605469 C 686.984375 419.898438 688.675781 418.226562 688.730469 417.683594 C 688.953125 415.355469 686.925781 415.679688 685.632812 415.0625 C 683 413.8125 682.234375 408.109375 685.21875 406.902344 C 690.335938 404.828125 694.273438 410.332031 691.46875 414.582031 Z M 689.566406 409.703125 C 689.09375 409.1875 688.148438 408.886719 687.445312 408.972656 C 688.488281 410.285156 688.878906 411.746094 688.714844 413.414062 C 690.613281 413.527344 690.625 410.859375 689.566406 409.703125 Z M 687.128906 412.777344 C 687.265625 412.632812 686.234375 409.617188 685.699219 409.613281 C 684.5 409.597656 685.792969 413.046875 687.128906 412.777344 Z M 713.363281 423.042969 C 708.25 417.730469 698.292969 411.691406 691.953125 418.375 L 692.84375 421.03125 C 694.082031 420.519531 694.769531 419.59375 696.117188 419.070312 C 705.039062 415.613281 714.140625 425.378906 718.398438 432.136719 C 718.683594 432.230469 719.132812 431.84375 719.1875 431.648438 C 719.460938 430.613281 714.386719 424.109375 713.367188 423.046875 Z M 691.171875 457.433594 C 691.40625 457.171875 691.457031 456.875 691.414062 456.539062 C 691.25 455.402344 689.875 452.753906 689.4375 451.25 C 687.410156 444.191406 686.191406 434.351562 688.875 427.382812 C 689.964844 424.558594 692.597656 423.304688 689.824219 420.402344 C 687.207031 423.285156 686.230469 427.246094 685.863281 431.035156 C 685.261719 437.207031 685.945312 443.648438 687.535156 449.664062 C 688.273438 452.460938 689.273438 455.15625 690.304688 457.847656 C 690.34375 457.875 691.082031 457.542969 691.171875 457.4375 Z M 695.703125 426.738281 C 696.738281 426.476562 697.523438 425.675781 698.566406 425.320312 C 704.277344 423.367188 709.710938 427.957031 712.972656 432.164062 C 713.554688 432.914062 714.433594 435.113281 715.390625 434.867188 C 716.972656 434.464844 716.128906 433.292969 715.636719 432.359375 C 712.667969 426.742188 701.394531 416.3125 695.085938 422.472656 C 693.503906 424.011719 695.441406 424.996094 695.707031 426.738281 Z M 725.222656 430.542969 C 728.402344 430.804688 726.730469 425.136719 723.949219 425.472656 C 725.246094 426.933594 726.125 428.621094 725.222656 430.542969 Z M 692.210938 425.789062 C 688.371094 433.0625 689.195312 442.261719 691.34375 449.976562 C 691.5625 450.753906 692.800781 455.289062 693.316406 455.292969 L 694.066406 454.433594 C 693.503906 451.78125 692.5 449.222656 691.988281 446.472656 C 691.097656 441.648438 690.785156 437.140625 692.296875 432.382812 C 692.5625 431.550781 694.09375 428.707031 694.097656 428.488281 C 694.109375 428.015625 692.824219 425.328125 692.210938 425.785156 Z M 723.234375 427.460938 C 723.023438 427.191406 721.941406 426.632812 722.050781 427.527344 C 722.164062 428.464844 722.753906 429.503906 723.632812 429.914062 C 723.625 429.28125 723.601562 427.929688 723.234375 427.460938 Z M 713.128906 437.179688 C 710.703125 431.652344 703.339844 423.921875 697.105469 428.957031 L 698.238281 431.816406 C 699.367188 431.816406 699.71875 431.007812 700.921875 430.859375 C 705.46875 430.296875 709.972656 433.792969 711.570312 437.847656 L 713.125 437.175781 Z M 695.695312 431.183594 C 695.101562 430.625 694.234375 433.238281 694.132812 433.578125 C 692.296875 439.621094 693.472656 446.726562 695.867188 452.449219 L 696.921875 451.605469 C 695.378906 447.4375 694.4375 442.523438 695.148438 438.082031 C 695.355469 436.796875 696.5625 435.125 696.65625 434.167969 C 696.777344 432.96875 695.859375 432.273438 695.703125 431.183594 Z M 710.277344 439.71875 C 709.222656 436.71875 704.507812 432.144531 701.078125 433.234375 C 698.492188 434.050781 700.910156 436.320312 701.441406 437.832031 C 704.582031 436.382812 707.199219 437.972656 708.871094 440.703125 L 710.277344 439.722656 Z M 720.765625 433.726562 L 719.496094 434.21875 C 723.964844 443.75 726.796875 459.886719 720.269531 468.921875 C 718.925781 470.777344 716.980469 470.972656 719.355469 473.707031 C 722.796875 471.53125 724.394531 466.496094 725.132812 462.671875 C 727.046875 452.789062 724.734375 442.765625 720.765625 433.722656 Z M 697.921875 436.261719 C 697.003906 438.738281 696.738281 441.382812 696.972656 444.027344 C 697.046875 444.851562 697.925781 449.832031 699.019531 449.582031 C 700.4375 449.253906 698.828125 445.398438 698.84375 444.035156 C 698.859375 442.667969 699.472656 441.195312 699.789062 439.902344 L 697.917969 436.257812 Z M 716.652344 468.628906 C 719.203125 467.535156 720.628906 463.882812 721.199219 461.28125 C 722.910156 453.546875 721.425781 443.246094 717.753906 436.261719 L 716.101562 437.683594 C 720.328125 446.136719 722.089844 458.007812 715.433594 465.664062 Z M 713.179688 439.785156 C 715.15625 444.863281 716.511719 450.070312 715.109375 455.511719 C 714.382812 458.324219 711.269531 460.855469 714.574219 462.917969 C 719.484375 456.117188 717.835938 446.167969 714.265625 439.125 L 713.179688 439.789062 Z M 706.125 443.214844 C 706.199219 443.160156 706.765625 441.773438 706.746094 441.546875 C 706.621094 440.046875 703.992188 438.925781 702.691406 439.769531 L 704.265625 443.726562 C 704.71875 444.175781 704.445312 443.316406 704.980469 443.140625 C 705.390625 443.007812 706 443.3125 706.125 443.21875 Z M 711.566406 441.65625 C 711.160156 441.285156 710.058594 443.007812 710.035156 443.128906 C 709.992188 443.324219 711.058594 445.851562 711.171875 446.65625 C 711.398438 448.324219 711.355469 450.328125 710.917969 451.949219 C 710.691406 452.804688 709.933594 453.683594 709.988281 454.480469 C 710.042969 455.324219 711.121094 456.648438 711.417969 457.523438 C 712.578125 457.523438 713.40625 453.875 713.488281 452.929688 C 713.835938 448.910156 713.253906 445.28125 711.566406 441.652344 Z M 701.410156 442.605469 C 700.96875 442.121094 700.832031 442.640625 700.777344 443.074219 C 700.691406 443.753906 700.679688 446.96875 701.566406 447.03125 L 702.664062 446.257812 Z M 709.027344 451.175781 C 709.703125 450.550781 709.464844 445.308594 708.238281 444.519531 L 706.300781 446.574219 C 707.023438 447.910156 707.453125 449.515625 708.324219 450.761719 C 708.476562 450.976562 708.507812 451.65625 709.027344 451.179688 Z M 704.902344 448.320312 C 704.589844 448.019531 702.929688 449.722656 703.152344 450.226562 C 704.207031 451.265625 705.226562 452.550781 706.8125 452.757812 Z M 709.664062 459.421875 L 707.441406 455.144531 C 704.765625 454.84375 702.320312 453.511719 701.410156 450.859375 C 699.339844 452.132812 699.671875 452.886719 700.960938 454.648438 C 702.882812 457.265625 706.265625 459.765625 709.667969 459.425781 Z M 712.203125 464.820312 L 710.636719 461.496094 C 706.839844 462.34375 703.066406 460.285156 700.613281 457.527344 C 700.0625 456.914062 698.511719 454.347656 698.242188 454.179688 C 697.777344 453.882812 697.257812 454.324219 697.109375 454.664062 C 696.976562 454.960938 697.941406 456.671875 698.179688 457.101562 C 700.871094 461.898438 706.351562 466.503906 712.199219 464.820312 Z M 695.695312 456.570312 L 694.476562 457.429688 C 696.542969 464 706.324219 474.140625 713.796875 471.335938 C 716.003906 470.503906 714.222656 468.421875 713.269531 467.078125 C 705.457031 468.964844 698.589844 463.464844 695.695312 456.570312 Z M 686.171875 462.285156 C 686.371094 460.894531 685.78125 459.953125 684.746094 459.121094 C 683.503906 460.171875 685.28125 461.707031 686.171875 462.285156 Z M 716.324219 472.753906 C 709.585938 476.222656 702.097656 472.042969 697.589844 466.890625 C 695.820312 464.867188 694.464844 461.535156 692.832031 459.902344 C 692.332031 459.402344 692.414062 459.265625 691.882812 459.902344 C 691.648438 461.097656 696.835938 468.175781 697.921875 469.410156 C 702.679688 474.804688 710.695312 479.851562 717.578125 475.136719 L 716.320312 472.75 Z M 723.316406 484.816406 C 723.996094 484.941406 724.1875 484.359375 724.441406 483.882812 C 725.535156 481.820312 724.480469 479.300781 722.367188 478.472656 C 723.414062 480.539062 723.71875 482.523438 723.316406 484.816406 Z M 721.726562 483.546875 C 721.78125 482.339844 721.726562 480.222656 720.140625 480.054688 C 719.988281 481.316406 720.171875 483.222656 721.726562 483.546875 Z M 721.726562 483.546875 " fill-opacity="1" fill-rule="nonzero"/><path fill="#ffc700" d="M 706.175781 361.050781 C 709.730469 351.328125 719.484375 345.128906 728.183594 340.371094 C 746.359375 330.425781 791.617188 315.386719 799.457031 295.792969 C 802.882812 287.238281 798.71875 280.285156 792.355469 274.742188 C 776.296875 260.769531 754.996094 266.339844 735.527344 265.542969 C 723.492188 265.050781 713.363281 262.246094 701.792969 259.917969 C 689.222656 257.386719 677.886719 256.765625 665.117188 258.59375 C 648.378906 260.996094 628.28125 269.050781 622.679688 286.464844 L 618.5625 285.519531 C 626.269531 264.570312 650.148438 255.902344 670.789062 254.109375 C 694.84375 252.019531 713.398438 260.757812 736.480469 261.734375 C 758.453125 262.667969 781.636719 256.523438 798.398438 275.046875 C 820.875 299.878906 779.050781 320.382812 761.210938 328.957031 C 747.65625 335.464844 724.355469 343.664062 714.441406 354.554688 C 713.3125 355.796875 711.488281 359.007812 710.472656 359.792969 C 709.992188 360.167969 706.382812 361.246094 706.179688 361.050781 Z M 706.175781 361.050781 " fill-opacity="1" fill-rule="nonzero"/><path fill="#ffc700" d="M 945.210938 402.941406 C 958.167969 422.386719 949.027344 441.933594 932.667969 455.292969 C 916.113281 468.8125 895.585938 473.765625 878.066406 484.8125 C 870.945312 489.300781 860.824219 498.3125 871.28125 505.574219 C 884.054688 514.449219 908.183594 509.039062 922.839844 507.984375 C 932.910156 507.261719 953.996094 508.234375 949.445312 523.789062 C 945.363281 537.730469 916.375 551.378906 903.480469 555.902344 C 901.914062 556.457031 896.007812 558.578125 894.808594 558.238281 C 893.222656 557.789062 893.042969 555.941406 894.3125 554.992188 C 908.824219 549.710938 924.96875 543.878906 936.800781 533.675781 C 941.292969 529.800781 950.339844 520.527344 943.46875 514.96875 C 934.832031 507.980469 910.332031 513.515625 899.363281 514.023438 C 888.246094 514.535156 858.367188 513.113281 863.484375 494.976562 C 866.882812 482.9375 891.515625 474.195312 902.054688 469.109375 C 922.761719 459.128906 956.023438 440.148438 945.859375 411.972656 C 945.445312 410.828125 943.691406 407.675781 943.640625 406.882812 C 943.609375 406.367188 944.78125 402.636719 945.21875 402.9375 Z M 945.210938 402.941406 " fill-opacity="1" fill-rule="nonzero"/><path fill="#ffc700" d="M 675.699219 371.523438 C 675.527344 371.34375 677.347656 368.820312 677.609375 368.515625 C 680.773438 364.765625 685.742188 362.84375 690.617188 363.90625 C 690.425781 362.199219 687.304688 362.523438 686.046875 362.671875 C 682.8125 363.050781 678.976562 365.351562 676.972656 367.878906 C 676.035156 369.0625 675.171875 370.21875 675.335938 371.796875 L 672.351562 372.738281 C 671.746094 372.632812 671.894531 370.539062 671.59375 369.75 C 671.035156 368.300781 665.75 365.285156 664.164062 364.480469 C 662.980469 363.878906 659.335938 361.6875 659.191406 363.898438 C 660.957031 363.953125 662.667969 364.90625 664.21875 365.695312 C 665.09375 366.140625 670.367188 369.386719 670.632812 369.832031 C 670.816406 370.144531 671.199219 371.925781 671.085938 372.171875 C 667.496094 375.144531 666.625 371.453125 664.375 369.984375 C 662.886719 369.011719 659.175781 367.957031 658.226562 366.921875 C 657.28125 365.882812 657.964844 362.199219 659.382812 361.398438 C 661.300781 360.308594 663.847656 361.605469 665.652344 362.359375 C 667.089844 362.960938 669.738281 364.859375 670.785156 365.164062 C 671.394531 365.34375 671.390625 364.707031 671.242188 364.386719 C 671.144531 364.164062 667.679688 362.109375 667.132812 361.835938 C 664.410156 360.460938 660.085938 358.316406 657.746094 361.347656 C 656.984375 362.339844 656.410156 366.050781 657.027344 367.015625 C 657.269531 367.390625 659.511719 367.597656 659.8125 369.148438 C 660.230469 371.289062 659.464844 370.902344 658.738281 371.832031 C 658.402344 372.265625 659.03125 373.785156 658.074219 373.753906 C 657.175781 373.726562 653.46875 371.820312 653.214844 370.988281 C 652.703125 364.929688 653.027344 359.375 658.578125 355.839844 C 660.082031 354.878906 668.171875 350.804688 669.652344 350.40625 C 672.515625 349.636719 675.683594 353.476562 678.152344 354.621094 C 679.722656 355.34375 681.945312 355.742188 683.621094 356.453125 C 688.050781 358.332031 691.5 361.226562 694.414062 365.027344 C 694.5625 365.664062 693.011719 366.105469 692.507812 366.277344 C 687.050781 368.144531 681.132812 369.449219 675.695312 371.523438 Z M 680.140625 357.566406 C 678.199219 357.480469 675.640625 358.476562 674.074219 359.597656 C 673.902344 359.71875 672.921875 359.949219 673.476562 360.417969 C 673.671875 360.582031 677.679688 358.890625 678.230469 358.667969 C 678.78125 358.445312 679.882812 358.0625 680.140625 357.566406 Z M 681.730469 359.464844 C 680.539062 359.167969 673.410156 362.292969 674.429688 363.589844 Z M 684.902344 361.054688 C 680.605469 361.523438 675.757812 363.609375 673.792969 367.714844 L 679.089844 363.972656 L 684.902344 361.058594 Z M 684.902344 361.054688 " fill-opacity="1" fill-rule="nonzero"/><path fill="#ffc700" d="M 657.53125 309.082031 C 658.117188 309.664062 658.050781 313.542969 657.78125 314.417969 C 657.449219 315.503906 654.925781 316.96875 653.882812 317.183594 C 650.300781 317.925781 647.636719 315.554688 644.585938 314.246094 C 642.023438 313.152344 638.183594 313.144531 637.441406 309.949219 L 598.445312 326.183594 C 597.535156 326.628906 597.246094 327.679688 598.074219 328.378906 L 607.402344 333.171875 C 608.464844 338.089844 604.402344 340.394531 600.144531 340.609375 C 596.601562 338.636719 591.773438 337.753906 588.339844 335.886719 C 587.542969 335.453125 586.835938 335.148438 586.476562 334.257812 C 585.945312 332.957031 586.011719 328.660156 586.683594 327.433594 C 587.304688 326.296875 588.921875 326.1875 589.28125 325.746094 C 590.339844 324.441406 590.507812 320.578125 593.707031 319.855469 L 637.441406 301.691406 C 639.675781 300.648438 644.566406 301.308594 646.191406 303.132812 C 646.914062 303.945312 647.105469 305.5 647.972656 306.113281 C 649.6875 307.050781 656.4375 307.980469 657.542969 309.082031 Z M 656.332031 312.179688 C 653.109375 314.699219 649.65625 313.28125 646.648438 311.234375 C 646.539062 306.835938 643.964844 302.347656 638.859375 303.441406 L 594.859375 321.648438 C 591.257812 323.367188 590.695312 327.074219 591.578125 330.664062 C 591.96875 331.507812 595.53125 331.226562 594.433594 333.121094 C 597.355469 332.191406 599.414062 334.789062 602.261719 335.007812 C 603.039062 335.070312 605.171875 334.84375 603.871094 334 C 601.617188 332.546875 597.921875 331.453125 595.433594 330.226562 C 595.433594 328.648438 594.960938 325.777344 596.347656 324.714844 L 639.503906 306.925781 C 641.808594 306.40625 644.273438 307.605469 643.480469 310.28125 L 639.839844 309.007812 L 639.871094 310.238281 C 643.671875 310.640625 647.007812 313.421875 650.382812 314.488281 C 653.058594 315.335938 655.105469 314.933594 656.339844 312.175781 Z M 654.746094 310.277344 C 653.53125 310.175781 648.378906 307.746094 647.765625 309.164062 C 649.867188 310.285156 652.554688 312.582031 654.746094 310.277344 Z M 604.90625 336.621094 C 600.078125 338.550781 597.335938 335.578125 593.378906 333.699219 C 590.03125 332.105469 588.8125 333.292969 589.347656 328.046875 C 587.589844 328.148438 587.851562 332.832031 588.613281 333.460938 L 600.375 338.125 C 602.007812 338.453125 603.875 337.988281 604.902344 336.617188 Z M 604.90625 336.621094 " fill-opacity="1" fill-rule="nonzero"/><path fill="#ffc700" d="M 679.191406 340.738281 C 680.074219 345.023438 679.800781 349.398438 679.824219 353.75 C 676.535156 353.441406 673.515625 348.851562 670.167969 349.324219 C 665.363281 352.085938 657.835938 353.484375 654.609375 358.214844 C 653.988281 359.132812 652.457031 362.171875 652.28125 363.191406 C 652.054688 364.535156 651.996094 369.734375 652.273438 370.980469 C 652.769531 373.171875 660.402344 375.96875 660.140625 377.074219 L 648.871094 382.625 C 648.5625 382.410156 648.460938 382.210938 648.398438 381.839844 C 648.046875 379.789062 648.210938 374.675781 648.203125 372.265625 C 648.1875 368.070312 648.503906 363.828125 648.414062 359.609375 C 648.382812 358.003906 647.5 355.082031 648.433594 353.621094 L 679.191406 340.734375 Z M 677.28125 348.988281 C 677.503906 346.539062 680.882812 344.480469 677.191406 342.707031 C 673.933594 343.226562 673.164062 348.515625 676.964844 348.035156 Z M 670.339844 348.328125 C 671.078125 348.839844 673.472656 346.199219 672.226562 345.320312 C 671.292969 344.660156 669.542969 346.230469 669.722656 347.164062 C 669.734375 347.230469 670.285156 348.292969 670.339844 348.328125 Z M 651.488281 353.164062 C 649.308594 353.578125 648.707031 359.015625 651.707031 358.820312 C 654.710938 358.625 654.320312 352.621094 651.488281 353.164062 Z M 653.382812 375.105469 C 651.203125 372.414062 647.835938 377.734375 650.207031 379.15625 C 652.726562 380.664062 654.808594 376.875 653.382812 375.105469 Z M 653.382812 375.105469 " fill-opacity="1" fill-rule="nonzero"/><path fill="#ffc700" d="M 732.839844 362.640625 L 745.859375 369.457031 C 746.699219 370.328125 745.652344 371.25 745.535156 372.15625 L 726.8125 362.476562 L 740.933594 357.601562 L 750.617188 362.484375 L 748.9375 364.175781 L 740.621094 360.128906 Z M 732.839844 362.640625 " fill-opacity="1" fill-rule="nonzero"/><path fill="#ffc700" d="M 863.308594 329.636719 L 860.050781 331.167969 L 843.199219 324.632812 C 840.101562 326.335938 836.527344 326.3125 832.992188 327.402344 C 829.5625 328.460938 823.605469 332 820.378906 331.457031 C 819.855469 331.371094 819.230469 331.160156 818.875 330.738281 L 841.484375 323.195312 C 843.007812 322.78125 844.265625 322.382812 845.871094 322.804688 C 850.363281 323.972656 857.121094 327.355469 861.644531 329.246094 C 862.175781 329.46875 862.746094 329.605469 863.316406 329.636719 Z M 863.308594 329.636719 " fill-opacity="1" fill-rule="nonzero"/><path fill="#ffc700" d="M 669.03125 397.386719 C 669.191406 396.601562 671.035156 394.5 671.804688 394.128906 C 675.753906 392.207031 678.957031 396.703125 679.738281 400.015625 C 680.929688 405.070312 680.039062 413.699219 672.839844 409.914062 C 673.886719 407.1875 676.796875 409.019531 677.464844 405.8125 C 678.042969 403.019531 677.320312 397.386719 674.042969 396.476562 C 670.433594 395.464844 671.640625 401.652344 669.03125 402.621094 C 669.246094 401.070312 668.742188 398.828125 669.03125 397.382812 Z M 669.03125 397.386719 " fill-opacity="1" fill-rule="nonzero"/><path fill="#ffc700" d="M 768.066406 354.71875 C 768.25 354.996094 768.042969 355.535156 767.761719 355.816406 C 766.066406 357.484375 761.414062 354.214844 759.667969 353.445312 L 751.886719 355.976562 L 756.648438 358.515625 C 756.863281 358.800781 755.082031 359.949219 754.585938 359.96875 C 754.085938 359.984375 746.179688 356.28125 746.175781 355.8125 L 760.03125 350.976562 L 768.0625 354.71875 Z M 768.066406 354.71875 " fill-opacity="1" fill-rule="nonzero"/><path fill="#ffc700" d="M 939.175781 400.085938 C 935.804688 396.867188 932.042969 394.054688 927.964844 391.777344 C 926.9375 391.207031 922.558594 389.554688 922.421875 388.78125 C 922.3125 388.164062 923.113281 386.992188 922.355469 386.125 C 928.917969 388.351562 935.171875 391.902344 940.085938 396.816406 L 939.175781 400.082031 Z M 939.175781 400.085938 " fill-opacity="1" fill-rule="nonzero"/><path fill="#ffc700" d="M 789.027344 343.28125 C 788.882812 344.109375 789.144531 343.773438 789.480469 343.941406 C 789.902344 344.160156 791.882812 344.636719 791.878906 345.027344 C 791.355469 345.566406 790.625 346.4375 789.820312 346.433594 C 789.496094 346.433594 784.21875 344.1875 783.847656 343.933594 C 783.671875 343.8125 783.257812 343.035156 783.3125 342.96875 L 796.527344 338.527344 C 797.394531 338.351562 802.03125 340.542969 802.039062 340.902344 C 800.234375 343.246094 798.15625 340.929688 796.210938 341.070312 C 794.199219 341.210938 791.238281 343.195312 789.027344 343.289062 Z M 789.027344 343.28125 " fill-opacity="1" fill-rule="nonzero"/><path fill="#ffc700" d="M 806.523438 337.289062 C 806.480469 337.320312 806.71875 337.734375 806.621094 337.890625 C 805.929688 338.964844 803.117188 337.933594 802.359375 337.089844 L 802.894531 336.359375 L 815.695312 332.300781 C 816.804688 332.878906 817.085938 333.125 815.863281 333.777344 C 814.101562 334.714844 807.308594 336.652344 806.519531 337.289062 Z M 806.523438 337.289062 " fill-opacity="1" fill-rule="nonzero"/><path fill="#ffc700" d="M 665.792969 375.269531 L 663.480469 376.824219 C 662.679688 376.410156 660.949219 375.753906 660.777344 374.859375 C 659.472656 368.082031 666.871094 369.300781 665.789062 375.269531 Z M 665.792969 375.269531 " fill-opacity="1" fill-rule="nonzero"/><path fill="#ffc700" d="M 590.9375 287.742188 C 590.640625 288.046875 584.003906 286.265625 585.367188 284.234375 C 585.816406 283.566406 589.121094 284.832031 589.773438 285.257812 C 590.792969 285.917969 591.109375 286.476562 590.9375 287.742188 Z M 590.9375 287.742188 " fill-opacity="1" fill-rule="nonzero"/><path fill="#ffc700" d="M 786.691406 433.761719 C 787.453125 433.503906 788.167969 433.785156 787.933594 434.683594 C 787.589844 436.015625 785.136719 440.386719 784.316406 441.867188 C 783.5 443.347656 781.882812 446.476562 780.914062 447.667969 C 780.554688 448.113281 780.308594 448.421875 779.667969 448.316406 C 779.066406 447.886719 779.164062 447.664062 779.324219 447.042969 C 779.742188 445.421875 784.335938 437.3125 785.484375 435.410156 C 785.742188 434.984375 786.296875 433.894531 786.695312 433.761719 Z M 786.691406 433.761719 " fill-opacity="1" fill-rule="nonzero"/><path fill="#ffc700" d="M 775.640625 451.117188 C 775.335938 451.292969 774.703125 451.226562 774.410156 451.03125 C 773.941406 450.679688 774.132812 450.347656 774.246094 449.898438 C 774.589844 448.570312 780.003906 438.390625 780.949219 437.230469 C 781.308594 436.785156 781.554688 436.472656 782.195312 436.582031 L 782.539062 437.855469 C 781.390625 439.445312 776.441406 450.660156 775.640625 451.117188 Z M 775.640625 451.117188 " fill-opacity="1" fill-rule="nonzero"/><path fill="#ffc700" d="M 797.910156 428.972656 L 797.667969 430.460938 L 791.042969 443.261719 L 789.964844 443.109375 C 789.472656 442.664062 789.660156 442.175781 789.8125 441.652344 C 790.484375 439.289062 794.222656 432.707031 795.648438 430.339844 C 796.269531 429.3125 796.460938 428.390625 797.910156 428.976562 Z M 797.910156 428.972656 " fill-opacity="1" fill-rule="nonzero"/><path fill="#ffc700" d="M 771.882812 441.976562 C 771.980469 442.640625 771.835938 443.171875 771.636719 443.789062 C 770.960938 445.914062 768.160156 450.847656 766.96875 453.082031 C 766.617188 453.742188 765.933594 455.265625 765.554688 455.703125 C 764.804688 456.582031 763.855469 455.9375 763.996094 454.902344 C 764.160156 453.699219 766.558594 449.378906 767.277344 447.996094 C 767.882812 446.835938 769.605469 443.117188 770.28125 442.433594 C 770.773438 441.925781 771.222656 441.910156 771.882812 441.976562 Z M 771.882812 441.976562 " fill-opacity="1" fill-rule="nonzero"/><path fill="#ffc700" d="M 801.933594 426.464844 C 803.226562 426.121094 803.027344 427.425781 802.753906 428.242188 C 801.4375 432.121094 797.421875 436.457031 795.976562 440.507812 C 794.988281 441.800781 794.15625 440.789062 794.679688 439.207031 C 795.332031 437.214844 799.835938 429.113281 801.148438 427.269531 C 801.355469 426.976562 801.5625 426.570312 801.933594 426.464844 Z M 801.933594 426.464844 " fill-opacity="1" fill-rule="nonzero"/><path fill="#ffc700" d="M 766.058594 444.21875 L 767.015625 444.980469 C 767.097656 445.667969 761.53125 455.980469 760.707031 457.296875 C 760.363281 457.851562 759.886719 459.035156 759.03125 458.789062 C 758.023438 458.492188 759.015625 456.6875 759.230469 456.140625 C 760.3125 453.398438 763.207031 448.058594 764.835938 445.558594 C 765.171875 445.046875 765.496094 444.535156 766.058594 444.21875 Z M 766.058594 444.21875 " fill-opacity="1" fill-rule="nonzero"/><path fill="#ffc700" d="M 769.371094 453.367188 C 769.230469 452.738281 769.363281 452.164062 769.597656 451.582031 C 770.585938 449.054688 774.101562 442.457031 775.636719 440.167969 C 776.414062 439.007812 777.722656 438.519531 777.550781 440.144531 C 777.421875 441.320312 773.746094 447.933594 772.894531 449.484375 C 772.460938 450.277344 770.875 453.324219 770.304688 453.558594 Z M 769.371094 453.367188 " fill-opacity="1" fill-rule="nonzero"/><path fill="#ffc700" d="M 754.980469 461.253906 C 753.460938 461.914062 753.210938 461.210938 753.625 459.734375 C 754.113281 458.003906 757.984375 451.242188 759.132812 449.375 C 759.835938 448.226562 760.679688 445.746094 761.964844 447.511719 L 754.980469 461.25 Z M 754.980469 461.253906 " fill-opacity="1" fill-rule="nonzero"/><path fill="#ffc700" d="M 818.230469 419.132812 C 818.324219 419.566406 818.136719 419.921875 817.992188 420.308594 C 817.171875 422.464844 814.496094 427.042969 813.210938 429.175781 C 812.816406 429.828125 810.640625 433.402344 810.140625 433.398438 L 809.472656 432.132812 L 816.980469 418.953125 L 818.234375 419.132812 Z M 818.230469 419.132812 " fill-opacity="1" fill-rule="nonzero"/><path fill="#ffc700" d="M 792.835938 431.503906 C 792.90625 432.023438 792.699219 432.464844 792.527344 432.9375 C 791.730469 435.160156 789.363281 439.347656 788.128906 441.550781 C 787.445312 442.777344 786.4375 444.636719 785.636719 445.714844 C 785.335938 446.121094 785.492188 446.238281 784.75 446.101562 L 784.320312 445.070312 L 791.464844 431.558594 L 792.839844 431.507812 Z M 792.835938 431.503906 " fill-opacity="1" fill-rule="nonzero"/><path fill="#ffc700" d="M 806.125 435.582031 L 804.582031 435.621094 C 804.507812 434.964844 804.605469 434.425781 804.828125 433.800781 C 805.375 432.25 809.957031 423.960938 810.984375 422.507812 C 811.90625 421.207031 813.503906 420.707031 813.011719 422.621094 C 812.386719 425.070312 808.210938 431.191406 806.746094 433.820312 C 806.445312 434.371094 806.375 435.015625 806.125 435.582031 Z M 806.125 435.582031 " fill-opacity="1" fill-rule="nonzero"/><path fill="#ffc700" d="M 806.890625 423.972656 C 807.796875 423.085938 808.621094 423.636719 808.144531 425.0625 C 806.824219 429.027344 802.933594 433.558594 801.253906 437.53125 L 800.003906 437.832031 L 799.644531 436.882812 L 806.894531 423.976562 Z M 806.890625 423.972656 " fill-opacity="1" fill-rule="nonzero"/><path fill="#ffc700" d="M 828.074219 414.046875 C 828.667969 414.648438 825.511719 419.921875 824.953125 420.921875 C 824.1875 422.3125 821.921875 426.59375 821.050781 427.492188 C 819.992188 428.578125 819.308594 427.972656 819.808594 426.574219 C 820.660156 424.210938 822.867188 420.511719 824.210938 418.273438 C 824.683594 417.484375 826.960938 412.917969 828.074219 414.046875 Z M 828.074219 414.046875 " fill-opacity="1" fill-rule="nonzero"/><path fill="#ffc700" d="M 839.785156 418.765625 C 839.0625 418.980469 837.972656 418.757812 838.367188 417.84375 L 846.007812 404.535156 C 846.242188 404.792969 846.660156 405.027344 846.757812 405.386719 C 847.042969 406.472656 840.5 416.835938 839.785156 418.765625 Z M 839.785156 418.765625 " fill-opacity="1" fill-rule="nonzero"/><path fill="#ffc700" d="M 837.597656 408.972656 C 837.691406 409.527344 837.523438 409.960938 837.351562 410.46875 C 836.480469 413.058594 833.148438 418.695312 831.621094 421.242188 C 831.269531 421.832031 830.71875 423.171875 829.824219 422.929688 C 828.933594 422.691406 829.746094 421.273438 829.925781 420.816406 C 830.472656 419.421875 835.664062 409.453125 836.328125 409.125 C 836.738281 408.921875 837.160156 408.945312 837.597656 408.96875 Z M 837.597656 408.972656 " fill-opacity="1" fill-rule="nonzero"/><path fill="#ffc700" d="M 864.476562 395.371094 C 864.910156 395.253906 865.433594 395.421875 865.519531 395.820312 C 865.671875 396.519531 859.699219 407.230469 858.8125 408.433594 C 857.773438 409.84375 856.574219 410.125 857.210938 408.105469 C 857.792969 406.253906 862.042969 398.496094 863.25 396.6875 C 863.53125 396.269531 863.984375 395.496094 864.480469 395.367188 Z M 864.476562 395.371094 " fill-opacity="1" fill-rule="nonzero"/><path fill="#ffc700" d="M 814.742188 430.546875 C 814.46875 429.773438 814.476562 429.574219 814.765625 428.851562 C 815.726562 426.433594 819.554688 419.929688 821.144531 417.757812 C 821.410156 417.394531 821.972656 416.519531 822.472656 416.613281 L 823.21875 417.378906 C 822.988281 417.941406 822.691406 418.488281 822.410156 419.027344 C 821.335938 421.0625 817.335938 428.664062 816.144531 429.898438 C 815.707031 430.355469 815.535156 430.707031 814.738281 430.550781 Z M 814.742188 430.546875 " fill-opacity="1" fill-rule="nonzero"/><path fill="#ffc700" d="M 831.777344 411.554688 C 832.425781 411.34375 833.046875 411.851562 832.699219 412.476562 L 826.109375 425.246094 C 825.3125 426.539062 824.269531 425.667969 824.835938 423.972656 C 825.664062 421.484375 828.507812 416.578125 829.929688 414.152344 C 830.273438 413.566406 831.246094 411.695312 831.78125 411.554688 Z M 831.777344 411.554688 " fill-opacity="1" fill-rule="nonzero"/><path fill="#ffc700" d="M 851.5625 402.625 C 852.132812 403.179688 848.671875 409.152344 848.128906 410.132812 C 847.164062 411.882812 845.65625 414.921875 844.539062 416.382812 C 843.75 417.414062 842.800781 416.929688 843.136719 415.628906 C 843.601562 413.820312 847.753906 407.066406 848.972656 404.949219 C 849.347656 404.300781 850.640625 401.714844 851.566406 402.625 Z M 851.5625 402.625 " fill-opacity="1" fill-rule="nonzero"/><path fill="#ffc700" d="M 856.007812 400.71875 C 856.101562 401.167969 855.902344 401.5 855.757812 401.898438 C 854.96875 404.058594 850.949219 411.65625 849.605469 413.519531 C 849.230469 414.039062 848.996094 414.476562 848.230469 414.363281 C 847.628906 413.933594 847.730469 413.710938 847.890625 413.089844 C 848.210938 411.847656 851.886719 405.183594 852.773438 403.679688 C 853.503906 402.441406 854.222656 400.453125 856.003906 400.71875 Z M 856.007812 400.71875 " fill-opacity="1" fill-rule="nonzero"/><path fill="#ffc700" d="M 873.347656 390.898438 L 874.289062 391.847656 L 867.5625 404.175781 C 867.226562 405.160156 866.058594 404.832031 865.902344 404.007812 C 865.757812 403.261719 872.117188 392.246094 873.347656 390.898438 Z M 873.347656 390.898438 " fill-opacity="1" fill-rule="nonzero"/><path fill="#ffc700" d="M 879.503906 398.175781 C 879.4375 397.613281 879.488281 397.148438 879.679688 396.609375 C 880.4375 394.5 884.976562 387.070312 886.425781 384.949219 C 887.238281 383.761719 888.085938 384.476562 888.019531 385.265625 C 887.988281 385.59375 887.382812 386.546875 887.171875 386.964844 C 885.339844 390.601562 882.796875 394.199219 880.921875 397.851562 L 879.5 398.171875 Z M 879.503906 398.175781 " fill-opacity="1" fill-rule="nonzero"/><path fill="#ffc700" d="M 834.96875 420.617188 C 834.769531 420.796875 834.457031 420.816406 834.265625 421.023438 L 833.933594 419.75 C 836.3125 416.054688 838.066406 411.128906 840.503906 407.59375 C 840.730469 407.273438 841.054688 406.683594 841.527344 406.769531 L 842.226562 407.714844 C 841.023438 409.839844 840.101562 412.125 838.925781 414.261719 C 838.214844 415.546875 835.828125 419.832031 834.96875 420.617188 Z M 834.96875 420.617188 " fill-opacity="1" fill-rule="nonzero"/><path fill="#ffc700" d="M 859.976562 397.871094 C 860.632812 398.378906 861.019531 398.878906 860.535156 399.675781 C 858.277344 403.144531 856.539062 407.109375 854.234375 410.527344 C 853.550781 411.546875 853.089844 412.84375 852.25 411.304688 L 852.324219 410.875 L 859.972656 397.871094 Z M 859.976562 397.871094 " fill-opacity="1" fill-rule="nonzero"/><path fill="#ffc700" d="M 868.914062 393.144531 C 869.929688 392.875 870.242188 393.929688 869.8125 394.675781 C 867.257812 398.109375 865.667969 402.773438 863.257812 406.21875 C 862.523438 407.265625 861.574219 407.371094 861.777344 406.023438 C 861.898438 405.230469 864.558594 400.339844 865.160156 399.234375 C 865.683594 398.277344 868.339844 393.296875 868.914062 393.144531 Z M 868.914062 393.144531 " fill-opacity="1" fill-rule="nonzero"/><path fill="#ffc700" d="M 889.582031 393.648438 C 889.457031 393.777344 888.90625 394.082031 888.703125 393.914062 C 888.484375 393.644531 888.191406 393.289062 888.191406 392.941406 C 888.1875 391.277344 893.859375 383.546875 894.46875 381.242188 C 895.203125 380.191406 896.664062 380.0625 896.1875 381.683594 L 889.585938 393.648438 Z M 889.582031 393.648438 " fill-opacity="1" fill-rule="nonzero"/><path fill="#ffc700" d="M 878.203125 389.324219 C 878.464844 389.476562 878.375 390.375 878.257812 390.71875 C 877.640625 392.527344 873.265625 400.125 872.011719 401.644531 C 871.644531 402.085938 871.289062 402.714844 870.613281 402.625 L 870.519531 401.144531 L 876.929688 389.507812 C 877.136719 389.183594 877.984375 389.203125 878.203125 389.332031 Z M 878.203125 389.324219 " fill-opacity="1" fill-rule="nonzero"/><path fill="#ffc700" d="M 890.773438 382.628906 L 891.523438 383.152344 C 891.714844 383.761719 891.488281 384.214844 891.3125 384.761719 C 890.980469 385.816406 885.753906 394.972656 885.058594 395.644531 C 884.253906 396.425781 883.710938 396.640625 883.683594 395.234375 Z M 890.773438 382.628906 " fill-opacity="1" fill-rule="nonzero"/><path fill="#ffc700" d="M 904.257812 376.285156 C 905.082031 376.886719 903.234375 379.96875 902.839844 380.734375 C 901.707031 382.925781 899.851562 386.511719 898.496094 388.449219 C 897.800781 389.4375 896.4375 390.308594 896.699219 388.570312 C 896.789062 387.953125 898.28125 385.34375 898.699219 384.527344 C 899.605469 382.734375 901.753906 378.273438 902.84375 376.929688 C 903.265625 376.40625 903.53125 376.160156 904.253906 376.28125 Z M 904.257812 376.285156 " fill-opacity="1" fill-rule="nonzero"/><path fill="#ffc700" d="M 908.386719 374.695312 C 908.976562 375.289062 906.742188 379.289062 906.332031 380.097656 C 905.796875 381.144531 902.1875 387.691406 901.566406 387.699219 C 900.347656 386.3125 902.386719 383.496094 903.144531 381.988281 C 903.597656 381.085938 906.660156 375.273438 906.957031 375.007812 C 907.417969 374.601562 907.828125 374.660156 908.390625 374.691406 Z M 908.386719 374.695312 " fill-opacity="1" fill-rule="nonzero"/><path fill="#ffc700" d="M 915.855469 370.570312 C 916.722656 370.386719 916.671875 371.546875 916.496094 372.164062 C 916.015625 373.882812 912.019531 381.0625 910.875 382.734375 C 910.203125 383.710938 909.757812 384.332031 909.078125 383.058594 C 909.863281 381.359375 914.722656 370.8125 915.859375 370.570312 Z M 915.855469 370.570312 " fill-opacity="1" fill-rule="nonzero"/><path fill="#ffc700" d="M 898.949219 378.910156 L 900.140625 378.652344 L 900.316406 380.105469 C 899.082031 381.5625 894.042969 392.097656 892.679688 391.832031 C 891.875 391.675781 892.699219 390.226562 892.878906 389.816406 C 894.492188 386.160156 897.113281 382.488281 898.949219 378.910156 Z M 898.949219 378.910156 " fill-opacity="1" fill-rule="nonzero"/><path fill="#ffc700" d="M 876.257812 400.332031 C 875.058594 400.988281 874.894531 400.183594 875.207031 399.121094 C 875.730469 397.3125 879.9375 389.648438 881.136719 387.917969 C 881.855469 386.882812 882.226562 386.761719 882.9375 387.910156 C 881.992188 389.351562 876.878906 399.988281 876.257812 400.332031 Z M 876.257812 400.332031 " fill-opacity="1" fill-rule="nonzero"/><path fill="#ffc700" d="M 911.449219 372.828125 C 912.210938 372.578125 912.929688 372.855469 912.695312 373.757812 C 912.238281 375.542969 908.648438 381.5625 907.492188 383.480469 C 906.847656 384.550781 905.839844 387.101562 905.042969 384.839844 C 905.984375 383.457031 910.804688 373.046875 911.453125 372.828125 Z M 911.449219 372.828125 " fill-opacity="1" fill-rule="nonzero"/><path fill="#ffc700" d="M 724.664062 505.046875 C 724.015625 503.3125 724.015625 502.671875 725.839844 502.097656 C 727.496094 501.570312 729.277344 501.363281 729.035156 503.695312 C 728.851562 505.421875 725.957031 505.980469 724.664062 505.050781 Z M 724.664062 505.046875 " fill-opacity="1" fill-rule="nonzero"/><path fill="#ffc700" d="M 667.347656 461.078125 C 667.824219 460.933594 669.316406 460.894531 669.6875 461.15625 C 671.035156 462.832031 668.191406 464.550781 666.808594 463.71875 C 665.828125 463.125 666.34375 461.386719 667.347656 461.078125 Z M 667.347656 461.078125 " fill-opacity="1" fill-rule="nonzero"/><path fill="#ffc700" d="M 541.101562 309.953125 C 539.953125 310.253906 535.371094 308.652344 535.105469 307.847656 C 534.097656 304.78125 541.390625 307.691406 541.101562 309.953125 Z M 541.101562 309.953125 " fill-opacity="1" fill-rule="nonzero"/><path fill="#ffc700" d="M 508.226562 491.332031 C 513.316406 496.492188 516.050781 504.398438 515.382812 511.625 C 514.445312 521.734375 505.496094 519.714844 500.480469 513.839844 C 496.484375 509.160156 493.628906 499.105469 494.582031 493.046875 C 495.898438 484.632812 503.691406 486.738281 508.226562 491.332031 Z M 500.359375 492.796875 C 498.191406 494.503906 500.207031 499.226562 503 497.976562 C 505.351562 496.921875 503.363281 491.769531 500.359375 492.796875 Z M 511.164062 500.773438 C 509.351562 498.628906 506.066406 500.589844 508.136719 503.964844 C 510.136719 507.230469 513.445312 503.46875 511.164062 500.773438 Z M 501.332031 502.636719 C 498.929688 503.28125 500.296875 508.566406 503.109375 507.628906 C 505.152344 506.949219 503.933594 501.945312 501.332031 502.636719 Z M 508.453125 509.304688 C 507.042969 511.648438 507.796875 514.5 510.960938 513.558594 C 511.859375 511.425781 511.175781 508.765625 508.453125 509.304688 Z M 508.453125 509.304688 " fill-opacity="1" fill-rule="nonzero"/><path fill="#ffc700" d="M 651.476562 375.386719 C 654.320312 374.527344 653.175781 379.195312 651.105469 378.835938 C 649.59375 378.574219 650.332031 375.734375 651.476562 375.386719 Z M 651.476562 375.386719 " fill-opacity="1" fill-rule="nonzero"/><path fill="#ffc700" d="M 676.238281 343.648438 C 679.167969 342.769531 678.410156 347.179688 676.5 347.273438 C 674.257812 347.386719 674.90625 344.050781 676.238281 343.648438 Z M 676.554688 344.265625 C 675.050781 344.644531 675.839844 347.21875 677.265625 345.960938 C 678.269531 345.070312 677.558594 344.011719 676.554688 344.265625 Z M 676.554688 344.265625 " fill-opacity="1" fill-rule="nonzero"/><path fill="#ffc700" d="M 651.484375 353.796875 C 654.082031 353.082031 653.707031 358.324219 651.105469 357.898438 C 649.449219 357.621094 649.972656 354.210938 651.484375 353.796875 Z M 651.484375 353.796875 " fill-opacity="1" fill-rule="nonzero"/><path fill="#ffc700" d="M 500.789062 494.652344 L 502.550781 495.285156 C 502.449219 497.453125 500.445312 496.402344 500.789062 494.652344 Z M 500.789062 494.652344 " fill-opacity="1" fill-rule="nonzero"/></svg>